<svg width="282" height="68" viewBox="0 0 282 68" fill="none" xmlns="http://www.w3.org/2000/svg">
<path d="M82.5973 0.997605C66.2591 1.10607 52.895 17.9677 52.895 32.6749C52.895 48.1518 62.6915 67.0311 82.5973 66.9698C102.503 66.9086 112.835 46.5833 112.835 32.6749C112.835 17.3119 98.9355 0.88914 82.5973 0.997605ZM82.5973 1.57447C96.2717 1.57447 99.9608 15.5981 99.9608 32.6749C99.9608 55.2073 95.5107 66.3238 82.5973 66.3026C69.6839 66.2814 65.4828 57.1831 65.4828 32.6749C65.4828 17.3224 68.9229 1.57447 82.5973 1.57447Z" fill="black"/>
<path d="M118.23 33.0907C118.157 16.3562 132.58 1.53262 144.79 0.797158C149.2 0.50702 154.87 2.38242 158.179 3.71838C160.583 4.68849 165.489 3.28429 166.36 0.70813H166.835V23.5037H166.36C166.36 22.5319 161.814 1.37028 144.79 1.37028C132.216 1.37028 131.001 21.901 131.001 33.0907C131.001 44.2804 131.368 66.4322 146.041 66.4322C153.149 66.4322 158.411 63.5444 159.775 57.7024V39.9388H153.808V39.1821H176.935V39.9388H171.231V65.909H170.767C170.767 65.909 169.839 62.1619 165.134 62.1744C159.119 62.1903 153.447 67.0424 146.533 66.9833C128.248 66.8271 118.303 49.8252 118.23 33.0907Z" fill="black"/>
<path d="M8.0404 3.24297H0.839355V2.49133H26.065V3.24297H19.7365L37.7609 48.6952C43.3971 32.5823 47.7635 20.6716 53.6394 3.24297H47.3797V2.49133H60.699V3.24297H54.6335L32.7268 66.6577L8.0404 3.24297Z" fill="black"/>
<path d="M180.467 51.1321L180.353 3.16998H173.499V2.45154H198.751V3.16998H191.901L192.053 55.7578C193.57 61.7796 196.266 66.3487 205.477 66.4168C214.689 66.4848 220.951 61.3569 223.278 54.3489V3.16998H215.437L215.437 2.4727H279.615L279.748 25.4964H279.131C277.941 10.6309 271.764 5.01275 260.961 3.37375C257.243 2.80976 253.343 3.22785 248.413 3.19227V32.5766C252.706 32.8846 257.279 32.6326 260.361 30.1748C263.164 27.9397 263.956 22.7757 264.162 20.6778H264.704V46.2625H264.117C263.948 46.2625 263.722 39.8421 260.361 36.7961C256.978 33.7301 252.67 32.9762 248.413 33.7067V65.0956C254.427 65.0956 259.22 65.5686 263.383 64.5089C276.036 61.2875 280.491 51.3747 280.457 41.4326H281.16V65.8387H230.821V65.0956H236.513V3.16998H224.215V54.3489C222.821 59.2458 217.727 67.347 204.671 67.2917C192.532 67.2403 180.493 62.1586 180.467 51.1321Z" fill="black"/>
</svg>
