<svg width="282" height="68" viewBox="0 0 282 68" fill="none" xmlns="http://www.w3.org/2000/svg">
<path d="M29.663 0.53797C29.6663 0.526419 30.1201 0.5431 30.1201 0.5431L31.3369 23.464L30.9275 23.4833C30.079 20.8832 27.7918 0.725341 18.8683 0.725341C12.01 0.725341 9.70804 25.443 9.70804 33.7246C9.70804 44.4497 11.4017 66.9548 19.1002 66.9548C22.8113 66.9548 24.8256 61.992 24.8256 55.4443V34.5318H20.7066V33.7105H37.3303V34.5318H33.1588V67.3013C33.1489 67.2988 32.6836 67.3116 32.6803 67.3052C32.0768 65.941 31.9897 63.1355 29.2848 63.1355C26.2857 63.1355 23.0711 67.9828 18.9029 67.9725C5.11721 67.9392 0.315918 48.0611 0.315918 33.7297C0.315918 21.8573 5.87029 0.0284734 18.8913 0.0284734C21.0733 0.0284734 22.6091 0.468664 24.3504 2.4335C25.6263 3.87472 28.0401 4.20327 29.0727 2.35778C29.3851 1.8008 29.5282 1.0834 29.663 0.53797Z" fill="black"/>
<path d="M216.669 66.1019V1.73717H212.98V0.953034H228.683V1.73717H224.979L225.005 66.1019H228.683V66.8976H212.98V66.1019H216.669V1.73717Z" fill="black"/>
<path d="M171.076 66.0966H180.919C185.534 65.9541 191.188 62.5904 191.188 53.2077C191.188 51.4174 191.215 49.5476 191.215 47.6738L192.092 47.6777V66.8846L162.283 66.8987L182.519 1.74212H173.081C167.112 1.74212 163.818 8.79294 163.818 15.2765C163.818 16.9398 163.754 20.1597 163.754 20.1597L162.922 20.1674V0.954133H191.881L171.076 66.0966Z" fill="black"/>
<path d="M71.1392 1.75139V33.7252C72.8492 33.7175 75.6807 33.8689 78.6223 30.9082C81.3551 28.1567 82.4387 21.2201 82.4387 16.0507C82.4387 10.5348 78.9018 1.73727 74.3603 1.73727L71.1392 1.75139ZM59.1853 0.958265L76.7478 0.962113C85.1567 0.962113 90.6091 8.25549 90.6091 17.0119C90.6091 25.7388 86.0216 33.8715 78.9495 33.8715C78.0041 33.8715 78.0912 34.3143 78.9495 34.3143C83.1868 34.3143 86.3685 38.0976 87.0114 39.1038C89.6028 43.1721 87.8171 61.8913 90.4102 63.7406C92.597 65.3012 94.2035 62.8615 94.4896 62.4829L94.756 62.6343C94.7149 62.8063 92.8404 67.6331 88.1098 67.6331C84.18 67.6331 82.1904 63.8638 81.6248 61.5037C80.7056 57.6587 81.0049 45.8979 80.5034 43.5327C80.066 41.4703 78.8788 35.3153 75.1693 34.7776C73.5152 34.5376 72.9939 34.5376 71.1408 34.5466C71.131 34.5466 71.1441 66.0892 71.1441 66.0892H74.8487V66.899H58.6821V66.0892H62.8339L62.8175 1.75139H59.1853V0.958265Z" fill="black"/>
<path d="M118.664 46.82H130.449L124.771 21.0281L118.664 46.82ZM112.781 66.0872L128.665 0.0271156L143.345 66.0885L146.683 66.0962V66.8944L131.411 66.8931V66.0833H134.755L130.599 47.6593H118.433L114.12 66.0987H118.408V66.8893H109.162V66.1051L112.781 66.0872V66.0872Z" fill="black"/>
<path d="M253.664 46.82H265.45L259.771 21.0281L253.664 46.82ZM247.782 66.0872L263.664 0.0271156L278.346 66.0885L281.682 66.0962V66.8944L266.41 66.8931V66.0833H269.755L265.598 47.6593H253.432L249.119 66.1H253.407V66.8893H244.162V66.1064L247.782 66.0872V66.0872Z" fill="black"/>
</svg>
