<svg width="284" height="70" viewBox="0 0 284 70" fill="none" xmlns="http://www.w3.org/2000/svg">
<path d="M30.831 40.1927V41.4215H10.6898V40.1927C14.8339 40.0698 16.0772 39.7011 16.0772 36.3833V14.7559C16.0772 11.4381 14.834 11.0695 10.8556 10.9465V9.71769H46.4124L46.6611 16.6605H44.9206C43.4287 13.1584 41.771 11.9911 33.4826 11.9911H27.0176C25.0284 11.9911 24.614 12.2983 24.614 13.5885V23.6649H27.7636C34.3943 23.6649 35.8033 22.7433 36.6322 19.4869H38.2899V30.6079H36.6322C35.7205 26.9215 33.234 25.9384 27.7636 25.9384H24.614L24.5311 36.3834C24.5311 39.7012 25.7744 40.0698 30.8302 40.1928L30.831 40.1927ZM87.5231 16.7832H85.3681C83.9591 13.3424 81.9699 12.1137 77.4942 12.1137H72.2726V36.3211C72.2726 39.6389 73.433 40.0075 78.2403 40.1305V41.3593H57.6858V40.1305C62.4101 40.0076 63.6535 39.6389 63.6535 36.3211V12.0516H58.4319C53.9562 12.0516 51.8841 13.3418 50.558 16.7211H48.403L49.3147 9.77822H86.6124L87.5231 16.7832ZM0 70.0674H94.5209V0H0V70.0674Z" fill="#515151"/>
<path d="M113.639 22.1133C113.639 24.8125 114.22 25.0201 116.709 25.124V26.0583H107.083V25.124C109.075 25.0202 109.656 24.7087 109.656 22.1133V4.67195C109.656 1.97269 109.075 1.76512 107.166 1.66125V0.726892H124.094L124.177 6.33298H123.347C122.683 3.52985 121.854 2.59553 117.871 2.59553H114.717C113.721 2.59553 113.555 2.80317 113.555 3.94514V12.0429H117.041C120.277 12.0429 120.941 11.3162 121.273 8.72079H122.02V17.7529H121.273C120.858 14.7422 119.613 13.9117 117.041 13.9117H113.555V22.1132H113.638L113.639 22.1133ZM133.72 22.1133C133.72 24.8125 134.301 25.0201 136.79 25.124V26.0583H126.667V25.124C129.073 25.0202 129.737 24.7087 129.737 22.1133V4.67195C129.737 1.97269 129.239 1.76512 126.667 1.66125V0.726892H136.79V1.66125C134.384 1.76506 133.72 2.07652 133.72 4.67195V22.1133ZM157.785 5.295C157.785 2.80331 157.287 1.7653 154.963 1.45386V0.519506H162.183V1.45386C159.942 1.76531 159.362 2.80347 159.362 5.295V26.5782H158.283L144.342 6.43689V21.179C144.342 23.6707 144.84 24.7087 147.163 25.0201V25.9545H139.944V25.0201C142.184 24.7086 142.765 23.6705 142.765 21.179V4.15294C142.101 2.59569 141.271 1.86899 139.944 1.55755V0.623196H145.503L157.702 18.2721V5.29497L157.785 5.295ZM168.655 16.9225L171.726 6.8522L174.796 16.9225H168.655H168.655ZM183.26 26.0585V25.1241C181.684 25.1241 181.352 24.3974 180.605 22.0095L173.385 0.000673069H172.39L164.921 22.737C164.423 24.3981 163.676 24.8134 162.432 25.1248V26.0592H168.987V25.1248C167.577 25.1248 166.913 24.7096 166.913 23.4638C166.913 22.4256 167.908 19.5187 168.074 18.792H175.46C175.709 19.6225 176.704 22.5294 176.704 23.4638C176.704 24.7096 175.958 25.1248 174.547 25.1248V26.0592H183.26V26.0592L183.26 26.0585ZM203.092 5.29465C203.092 2.80296 202.595 1.76494 200.271 1.4535V0.519148H207.491V1.4535C205.25 1.76496 204.669 2.80312 204.669 5.29465V26.5778H203.591L189.65 6.43653V21.1786C189.65 23.6703 190.147 24.7083 192.471 25.0197V25.9541H185.251V25.0197C187.492 24.7083 188.073 23.6701 188.073 21.1786V4.15258C187.409 2.59533 186.579 1.86864 185.251 1.5572V0.622844H190.811L203.009 18.2717L203.092 5.29461L203.092 5.29465ZM228.9 20.1404C226.743 24.7083 223.921 26.7847 219.772 26.7847C213.134 26.7847 209.151 21.3862 209.151 13.1847C209.151 7.37085 212.802 0 219.938 0C222.096 0 225.083 1.55725 225.581 1.55725C226.162 1.55725 226.328 1.14197 226.909 0H227.987L228.402 8.51292H227.572C226.328 4.5679 224.253 1.66107 220.685 1.66107C215.872 1.66107 213.797 8.20148 213.797 13.081C213.797 19.9328 216.121 24.6046 221.266 24.6046C225.249 24.6046 227.406 20.8672 228.319 19.31L228.9 20.1405L228.9 20.1404ZM238.692 22.1129C238.692 24.8122 239.273 25.0197 241.762 25.1236V26.058H231.638V25.1236C234.045 25.0198 234.709 24.7083 234.709 22.1129V4.67159C234.709 1.97233 234.128 1.76476 231.638 1.66089V0.72654H241.762V1.66089C239.356 1.76471 238.692 2.07617 238.692 4.67159V22.1129ZM250.143 16.9221L253.214 6.85185L256.284 16.9221H250.143H250.143ZM264.748 26.0581V25.1238C263.172 25.1238 262.84 24.397 262.093 22.0092L254.873 0.00032025H253.878L246.409 22.7367C245.911 24.3977 245.165 24.813 243.92 25.1245V26.0588H250.475V25.1245C249.065 25.1245 248.401 24.7092 248.401 23.4634C248.401 22.4252 249.397 19.5184 249.563 18.7916H256.948C257.197 19.6222 258.193 22.5291 258.193 23.4634C258.193 24.7092 257.446 25.1245 256.035 25.1245V26.0588H264.748V26.0588L264.748 26.0581ZM266.574 26.0581V25.1238C268.482 25.0199 269.063 24.7085 269.063 22.1131V4.67174C269.063 1.97248 268.482 1.76491 266.574 1.66104V0.726681H275.951V1.66104C273.71 1.76485 273.129 2.07631 273.129 4.67174V22.6324C273.129 24.1897 273.461 24.7088 275.702 24.7088C279.353 24.7088 281.51 23.8783 283.253 19.4142H284L282.589 26.266H266.408V26.0584L266.574 26.0581ZM111.398 66.3389C113.722 66.2351 114.302 65.9237 114.302 63.3282V43.7063H111.813C109.489 43.7063 108.494 44.9521 107.83 48.3781H107L107.498 41.8377H125.422L125.92 48.3781H125.09C124.427 44.8484 123.514 43.7063 121.107 43.7063H118.618V63.3282C118.618 66.0275 119.199 66.2351 121.522 66.3389V67.2733H111.73V66.3389H111.398H111.398ZM134.965 63.3282C134.965 66.0275 135.546 66.2351 138.035 66.3389V67.2733H127.912V66.3389C130.318 66.2351 130.982 65.9237 130.982 63.3282V45.8869C130.982 43.1876 130.401 42.9801 127.912 42.8762V41.9419H138.035V42.8762C135.629 42.98 134.965 43.2915 134.965 45.8869V63.3282V63.3282ZM159.445 41.7338H166.498V42.6681C164.59 42.772 164.009 43.0834 164.009 45.6788V63.2239C164.009 65.9231 164.59 66.1307 166.498 66.2346V67.1689H157.287V66.2346C159.279 66.1307 159.86 65.8193 159.86 63.2239V45.2632H159.777L152.972 67.5833H151.977L145.255 45.2632H145.172V62.4968C145.172 64.9884 145.67 66.0265 147.993 66.3379V67.2723H140.774V66.3379C143.015 66.0264 143.595 64.9883 143.595 62.4968V45.0554C143.595 43.2905 143.014 42.6676 140.774 42.6676V41.7333H148.159L153.553 59.486L159.445 41.7333L159.445 41.7338ZM169.32 67.2733V66.3389C171.228 66.2351 171.809 65.9236 171.809 63.3282V45.8869C171.809 43.1876 171.228 42.98 169.32 42.8762V41.9418H186.332L186.415 47.5479H185.585C184.921 44.7448 184.091 43.8105 180.108 43.8105H176.955C175.959 43.8105 175.793 44.0181 175.793 45.1601V53.2579H179.278C182.515 53.2579 183.178 52.5311 183.51 49.9357H184.257V58.9678H183.51C183.095 55.9571 181.851 55.2304 179.278 55.2304H175.793V64.0547C175.793 65.612 176.125 66.1311 179.776 66.1311C183.427 66.1311 185.585 65.3006 187.327 60.8365H188.074L186.664 67.6883H169.154V67.273L169.32 67.2733ZM190.895 59.2793H191.642C192.472 62.6015 195.127 66.2351 198.115 66.2351C200.687 66.2351 201.6 63.9511 201.6 61.9786C201.6 56.0611 190.978 55.0229 190.978 47.7557C190.978 44.226 193.634 41.2153 196.787 41.2153C199.857 41.2153 200.936 42.5649 202.264 42.5649C202.844 42.5649 203.259 42.0459 203.342 41.2153H204.089V49.4168H203.342C202.512 45.6793 200.355 42.9801 197.617 42.9801C195.376 42.9801 194.463 44.8487 194.463 46.6137C194.463 51.8044 205.085 51.9083 205.085 60.9404C205.085 64.9893 202.513 68 198.778 68C195.21 68 194.297 66.4428 192.887 66.4428C192.389 66.4428 192.057 66.858 191.808 67.7924H190.729L190.895 59.2795L190.895 59.2793Z" fill="#515151"/>
</svg>
