<svg width="284" height="70" viewBox="0 0 284 70" fill="none" xmlns="http://www.w3.org/2000/svg">
<g clip-path="url(#clip0_2_149)">
<g filter="url(#filter0_d_2_149)">
<path d="M161.254 0.346217C161.254 7.80981 161.254 15.1965 161.254 22.6985C161.601 22.5639 161.927 22.4484 162.254 22.3138C167.501 19.9285 172.953 19.1206 178.526 20.8903C184.57 22.8139 188.265 27.0843 190.511 32.5474C192.308 36.8947 192.634 41.4152 192.226 46.0318C191.859 50.0522 190.858 53.8994 188.817 57.4581C185.121 63.8637 179.302 67.557 171.83 69.0382C167.297 69.923 162.724 69.8653 158.15 69.3075C154.7 68.8843 151.27 68.2495 147.819 67.7494C146.819 67.6147 146.533 67.1915 146.553 66.2489C146.717 54.1879 146.88 42.1269 146.962 30.0659C147.003 25.0838 146.88 20.0824 146.737 15.1003C146.696 13.5229 146.472 11.9071 146.125 10.3682C145.512 7.61745 143.981 6.40557 141.02 6.07856C139.795 5.94391 139.591 5.73231 139.775 4.63586C139.816 4.36655 140.163 4.00107 140.408 3.94336C147.186 2.73149 153.985 1.55809 160.784 0.38469C160.947 0.326981 161.07 0.346217 161.254 0.346217ZM161.131 40.8189C161.111 44.7238 161.09 48.6095 161.131 52.5144C161.172 56.4193 161.274 60.305 161.335 64.2099C161.356 65.9412 161.356 65.9796 163.193 66.1912C166.154 66.5375 168.787 65.9027 170.89 63.806C172.524 62.1709 173.667 60.2665 174.525 58.2083C176.832 52.6683 177.424 46.8782 177.097 40.992C176.913 37.6449 176.26 34.3556 174.729 31.2586C173.79 29.3542 172.585 27.6229 170.727 26.3918C167.93 24.5452 164.929 24.7568 161.866 25.6993C161.254 25.8917 161.09 26.161 161.09 26.7188C161.152 31.4317 161.131 36.1253 161.131 40.8189Z" fill="black"/>
<path d="M57.6781 1.51967C57.6781 3.4048 57.6577 5.11681 57.6781 6.84805C57.7394 11.003 57.8006 15.158 57.9027 19.313C57.9231 19.967 57.6985 20.2748 57.0248 20.4479C54.7585 21.0827 54.7789 21.102 53.9418 19.0052C52.778 16.1006 51.4305 13.2729 49.2663 10.8876C46.5917 7.92527 43.2433 6.27097 39.0783 6.21326C35.2399 6.15556 31.4015 6.21326 27.5427 6.15556C26.6852 6.13632 26.481 6.46333 26.4606 7.15583C26.4197 8.65624 26.3176 10.1567 26.2768 11.6571C26.1747 16.543 26.0931 21.4482 25.991 26.3342C25.9501 28.354 25.9297 30.3545 25.8481 32.3743C25.8276 33.1822 26.1135 33.4323 26.9914 33.3746C29.421 33.2207 31.8711 33.1437 34.3211 33.0283C36.8528 32.8937 38.7516 31.701 39.8745 29.662C40.732 28.0847 41.2833 26.3534 41.8141 24.6606C42.0183 23.9874 42.2429 23.7565 42.9371 23.8143C43.5087 23.8527 44.0804 23.8143 44.7338 23.8143C44.7338 31.3355 44.7338 38.7799 44.7338 46.3397C43.9783 46.3397 43.2433 46.3974 42.5083 46.3012C42.2633 46.282 41.957 45.8972 41.8958 45.6279C41.3445 43.3388 40.6912 41.1075 39.017 39.2608C37.792 37.895 36.2199 37.1833 34.3211 37.1064C31.8711 37.0102 29.4414 36.8948 26.9914 36.7409C26.1543 36.6832 25.8276 36.9332 25.8685 37.7604C26.0726 42.8964 26.2564 48.0517 26.3993 53.1877C26.481 55.9 26.726 58.593 27.6856 61.1899C28.6044 63.6713 30.4215 65.0563 33.239 65.3064C34.2803 65.4026 35.3011 65.6334 36.3424 65.8258C37.6082 66.0566 36.8732 66.9992 37.0161 67.6147C37.1591 68.288 36.5874 68.288 36.0974 68.288C31.8506 68.288 27.6039 68.288 23.3368 68.288C16.0683 68.288 8.77948 68.288 1.51104 68.288C1.02103 68.288 0.306439 68.5573 0.245188 67.634C0.16352 66.1143 0.224771 65.922 1.32729 65.7104C2.28688 65.5372 3.24648 65.3449 4.2265 65.191C6.55403 64.8447 7.9628 63.5175 8.82031 61.5554C9.82074 59.2086 10.1678 56.7271 10.2087 54.2457C10.3924 44.166 10.617 34.0863 10.5762 24.0258C10.5558 19.6593 10.0045 15.3119 9.59616 10.9453C9.51449 10.022 9.10615 9.07944 8.71823 8.21381C7.67696 5.84778 5.65568 4.75132 3.02189 4.50125C2.3073 4.44355 1.59271 4.40507 0.89853 4.27042C0.653527 4.23195 0.449357 3.92417 0.265605 3.71258C0.204354 3.65487 0.245188 3.52022 0.245188 3.42404C0.326856 1.21189 0.000184029 1.5389 2.26647 1.51967C20.1517 1.51967 38.037 1.51967 55.9222 1.51967C56.3918 1.51967 56.8614 1.51967 57.6781 1.51967Z" fill="black"/>
<path d="M50.8385 45.6471C50.8181 38.7991 52.2269 33.413 55.7998 28.6617C59.822 23.3333 65.3754 20.3902 72.2355 19.6015C76.6251 19.0821 80.974 19.2745 85.2003 20.6402C91.2233 22.6023 95.5721 26.3533 97.9405 31.8933C101.718 40.7804 101.799 49.6674 96.8992 58.2275C93.0608 64.9601 86.7724 68.5188 78.7485 69.4036C74.5222 69.8653 70.3367 69.6537 66.2942 68.3649C59.5157 66.2104 55.1465 61.7669 52.7169 55.5344C51.349 52.0142 50.7977 48.3209 50.8385 45.6471ZM85.4453 43.4927C85.2411 41.5883 85.0165 38.145 84.5061 34.7403C83.9957 31.4509 82.9952 28.2577 80.9127 25.4877C78.3197 22.0445 73.9914 21.3904 70.8676 24.045C69.3363 25.3531 68.5196 27.0843 67.9071 28.8925C66.825 32.0472 66.4371 35.2981 66.2329 38.5875C65.8858 44.2236 65.8858 49.8213 67.0904 55.3806C67.7234 58.3621 68.6625 61.2475 70.5817 63.7675C73.2768 67.2877 78.0339 67.5377 81.076 64.2868C82.4236 62.8441 83.1994 61.0937 83.7302 59.2855C85.1186 54.6111 85.2615 49.8213 85.4453 43.4927Z" fill="black"/>
<path d="M239.961 59.3625C241.431 60.5744 241.451 60.6705 240.267 61.9594C236.776 65.7873 232.304 68.0957 227.119 69.0959C221.238 70.2309 215.481 69.7115 210.091 67.1146C203.231 63.806 199.147 58.4199 197.555 51.4372C195.799 43.7813 196.718 36.4139 201.148 29.6813C205.027 23.7758 210.744 20.448 218.074 19.6016C221.79 19.1784 225.465 19.2361 229.017 20.448C234.938 22.4677 238.389 26.642 240.328 32.105C241.37 35.0481 241.676 38.0874 241.941 41.1267C242.023 42.0116 241.655 42.1847 240.798 42.1847C231.59 42.1655 222.361 42.1655 213.153 42.1655C211.54 42.1655 211.5 42.1655 211.581 43.7236C211.785 48.4556 212.643 52.9954 215.767 56.9003C218.605 60.4589 222.463 62.2671 227.139 62.6326C230.446 62.9019 233.652 62.6134 236.653 61.1899C237.797 60.6705 238.858 59.978 239.961 59.3625ZM226.914 38.4337C226.955 38.2028 227.016 38.0489 226.996 37.8951C226.853 35.6252 226.812 33.3553 226.506 31.124C226.2 28.8156 225.628 26.5458 224.219 24.5452C222.627 22.2754 219.952 21.7945 217.604 23.3526C215.991 24.4106 215.011 25.9495 214.215 27.5845C212.704 30.7392 211.969 34.0478 211.724 37.4911C211.622 38.8569 211.602 38.8569 213.051 38.8376C216.828 38.7607 220.585 38.703 224.362 38.6068C225.22 38.5491 226.057 38.4721 226.914 38.4337Z" fill="black"/>
<path d="M278.855 34.8173C278.263 33.4323 277.753 32.0857 277.12 30.7969C275.752 28.0077 274.098 25.4108 271.076 23.8912C269.014 22.8524 266.809 22.4485 264.482 22.9486C261.705 23.5449 259.684 25.7763 259.255 28.4694C258.765 31.4702 259.949 33.7016 262.481 35.4328C265.278 37.3372 268.463 38.5491 271.628 39.7802C274.772 41.0113 277.814 42.3963 280.243 44.7623C282.469 46.9552 283.429 49.6098 283.551 52.5721C283.735 56.6502 282.694 60.3627 279.815 63.4982C277.018 66.5567 273.363 68.211 269.239 69.0382C264.604 69.9615 259.908 69.8269 255.274 69.0767C252.293 68.5958 249.353 67.7878 246.392 67.1146C245.8 66.9799 245.514 66.6914 245.494 66.0374C245.453 61.9208 245.392 57.7851 245.269 53.6686C245.228 52.3798 246.27 52.5914 246.984 52.3798C247.148 52.3221 247.658 52.8414 247.801 53.1684C249.046 56.1885 250.455 59.1316 252.844 61.5361C256.009 64.7486 259.908 66.0181 264.461 64.9024C267.401 64.1907 269.177 62.2286 269.81 59.4202C270.484 56.4771 269.565 53.9956 266.911 52.399C264.706 51.0717 262.256 50.033 259.847 49.0712C257.029 47.9555 254.151 47.0129 251.66 45.2817C247.495 42.3963 245.984 38.4144 246.31 33.7016C246.739 27.5845 251.129 22.5447 257.519 20.5441C261.705 19.2361 265.972 19.2168 270.3 19.5438C273.526 19.7939 276.65 20.4287 279.713 21.4674C280.468 21.7175 280.733 22.083 280.754 22.8524C280.774 26.0456 280.876 29.2388 280.938 32.4512C280.958 34.3364 280.938 34.3364 278.855 34.8173Z" fill="black"/>
<path d="M122.502 19.4284C122.502 22.9679 122.502 26.4111 122.502 30.0852C122.788 29.6235 122.992 29.335 123.176 29.0272C124.748 26.1226 126.708 23.4872 129.607 21.6021C133.364 19.1591 137.386 18.4474 141.755 20.0248C142.674 20.3518 142.858 20.775 142.49 21.6598C140.877 25.5455 139.346 29.4504 137.753 33.49C137.386 33.3169 137.059 33.163 136.753 33.0091C132.792 31.0085 128.709 30.4507 124.462 32.1627C123.094 32.7206 122.318 33.5092 122.339 35.1251C122.4 40.5304 122.175 45.9357 122.257 51.3411C122.318 54.7074 122.604 58.0929 123.053 61.4592C123.421 64.3831 125.074 65.5757 128.219 65.7104C129.158 65.7489 130.097 65.8643 131.036 65.9412C131.097 66.0759 131.179 66.1721 131.179 66.249C131.199 68.7882 131.485 68.3073 129.117 68.3265C120.215 68.3457 111.293 68.3457 102.391 68.3265C101.962 68.3265 101.207 68.2111 101.166 68.0187C101.003 67.4224 101.105 66.7684 101.146 66.1336C101.146 66.0374 101.472 65.9412 101.656 65.9027C102.289 65.7681 102.922 65.6527 103.555 65.5757C105.495 65.3257 106.822 64.2677 107.21 62.5557C107.679 60.4782 107.965 58.343 108.026 56.227C108.19 50.437 108.271 44.6469 108.23 38.8569C108.21 36.0484 108.026 33.2399 107.659 30.4507C107.189 26.892 106.005 25.911 102.269 25.507C101.554 25.4301 101.064 25.3916 101.023 24.5068C101.003 23.6604 101.411 23.4488 102.187 23.2949C108.782 22.0638 115.376 20.7942 121.971 19.5246C122.073 19.4477 122.257 19.4477 122.502 19.4284Z" fill="black"/>
</g>
<path d="M70.561 69.8073C65.6201 69.1341 61.2713 67.1528 57.9638 64.075C55.2075 61.4974 53.4108 58.6697 52.1041 54.784C50.042 48.7246 50.042 40.934 52.1041 35.0093C54.105 29.2577 58.5763 24.2564 64.0889 21.6595C71.7044 18.0624 82.4029 18.2932 89.4467 22.1981C95.7964 25.7183 99.6348 31.97 100.696 40.4916C101.023 43.1077 100.819 48.6092 100.288 50.8791C98.1852 60.1893 92.0601 66.6719 83.0766 69.1341C82.117 69.4034 80.6062 69.7112 79.7487 69.8266C77.9316 70.0574 72.3373 70.0574 70.561 69.8073ZM81.2799 69.0956C84.8937 68.3069 87.793 67.0758 90.3655 65.2676C96.6539 60.8433 100.084 54.0722 100.411 45.5122C100.717 37.0676 98.0219 29.8541 92.7951 25.2182C88.5484 21.4479 83.1991 19.6397 76.2778 19.6397C68.9481 19.6397 63.0476 21.7749 58.4946 26.0838C53.6354 30.7004 51.0628 37.1253 51.0628 44.6851C51.0628 52.5141 53.3904 58.8428 57.9025 63.2863C60.3934 65.7293 62.8026 67.1912 66.2735 68.3646C67.4985 68.7686 68.3968 68.9802 71.684 69.5573C71.9698 69.615 73.8482 69.615 75.8694 69.5765C78.6053 69.4803 79.9937 69.3649 81.2799 69.0956ZM73.5215 66.3641C70.1731 64.9214 67.7843 60.574 66.6001 53.6875C65.8447 49.3209 65.763 39.6067 66.4572 34.8362C67.4168 28.142 69.4585 24.1987 72.6436 22.8714C74.8282 21.948 77.8499 22.5059 79.7895 24.1602C84.0975 27.8343 86.2821 38.2794 85.3429 50.7829C84.6692 59.7661 82.607 64.6328 78.7482 66.3256C77.3599 66.9027 74.8894 66.9412 73.5215 66.3641ZM77.9724 66.0755C79.422 65.6716 81.1983 64.0942 82.1579 62.3822C84.1179 58.8428 84.9958 53.6106 85.0162 45.3006C85.0367 34.8939 83.3012 28.2575 79.6466 24.795C78.1153 23.333 77.0128 22.8906 75.0528 22.8906C70.704 22.8906 67.9272 27.1802 66.8451 35.6249C66.3347 39.5106 66.3347 48.7439 66.8451 52.1294C68.3968 62.6323 72.3781 67.6337 77.9724 66.0755ZM158.252 69.8073C156.231 69.615 150.044 68.6339 147.88 68.1723L146.39 67.8453L146.512 60.324C146.798 42.2036 146.818 32.3163 146.655 22.6982C146.471 13.2726 146.43 12.2723 146.043 10.8873C145.553 9.11759 144.858 7.88649 144.001 7.32864C143.674 7.11705 142.776 6.79003 142.02 6.63614C139.468 6.09754 139.611 6.19372 139.55 5.09726C139.509 4.46247 139.591 4.05851 139.754 3.92386C139.938 3.7315 160.784 -0.0195285 161.457 -0.000292481C161.641 -0.000292481 161.682 2.51963 161.58 11.1566C161.519 17.2929 161.498 22.3135 161.559 22.3135C161.621 22.3135 162.376 22.0057 163.254 21.621C165.888 20.4669 168.317 19.986 171.829 19.8705C174.177 19.7936 175.259 19.8513 176.464 20.0821C184.324 21.621 190.143 27.6804 192.185 36.4713C192.716 38.7603 192.92 44.4542 192.552 47.3012C192.246 49.7249 191.389 53.0143 190.511 55.1302C187.142 63.1517 179.935 68.3839 170.359 69.7496C168.154 70.0574 161.212 70.0959 158.252 69.8073ZM169.787 69.3457C175.994 68.4608 180.547 66.4603 184.386 62.9016C189.959 57.7656 192.634 50.4943 192.267 41.5496C192.083 36.9522 191.287 33.9321 189.245 30.2003C186.509 25.1412 181.813 21.6018 176.464 20.5438C172.462 19.7551 167.317 20.3707 163.397 22.1019C162.417 22.5251 161.498 22.8906 161.314 22.8906C161.049 22.8906 161.029 21.4671 161.09 11.676L161.172 0.461373L160.355 0.615261C159.906 0.692205 155.312 1.50012 150.146 2.40421C144.981 3.30831 140.55 4.07775 140.305 4.13546C139.938 4.2124 139.856 4.34705 139.897 4.96261C139.938 5.63587 139.999 5.69358 140.755 5.84747C143.348 6.38608 143.797 6.57844 144.756 7.521C145.94 8.67517 146.471 10.1371 146.818 13.1956C147.104 15.6386 147.165 57.6117 146.9 63.8057L146.737 67.4798L148.84 67.903C156.864 69.4996 164.806 70.0574 169.787 69.3457ZM162.499 66.4218C162.09 66.3833 161.641 66.2294 161.519 66.0948C161.172 65.6908 160.784 39.5875 161.029 31.9508L161.212 25.8914L162.846 25.449C165.255 24.795 167.848 24.8912 169.685 25.7183C173.381 27.3726 175.811 31.4507 177.056 38.1063C177.464 40.28 177.403 47.8205 176.954 50.5136C176.015 56.1113 174.3 60.4394 171.931 63.2478C170.788 64.5944 168.869 65.8832 167.358 66.3064C166.419 66.5372 164.336 66.5949 162.499 66.4218ZM166.439 65.9794C167.93 65.7101 169.073 65.1522 170.318 64.1135C173.422 61.4781 175.749 56.0728 176.668 49.3402C177.036 46.6087 176.995 40.3762 176.586 38.0871C175.463 31.9123 173.054 27.8535 169.542 26.2184C168.093 25.5452 167.868 25.4875 166.133 25.4875C164.908 25.4875 163.826 25.6029 162.927 25.8722L161.58 26.2569L161.478 33.2781C161.355 42.2805 161.662 64.8252 161.927 65.4792C162.09 65.8832 162.274 65.9794 163.111 66.0371C165.03 66.1717 165.357 66.1717 166.439 65.9794ZM216.951 69.7112C206.824 67.9991 199.576 61.2281 197.207 51.2638C196.901 49.975 196.758 48.5515 196.697 45.7815C196.575 41.3957 196.962 38.6834 198.147 35.2979C200.454 28.7961 204.578 24.1987 210.581 21.4479C216.91 18.5433 225.587 18.3509 231.181 20.9862C237.49 23.9678 241.206 29.9118 242.145 38.568C242.268 39.7414 242.349 41.1071 242.309 41.6458L242.247 42.6076L227.139 42.6653L212.03 42.723L212.091 44.3965C212.234 48.3014 213.112 51.7447 214.766 54.7263C215.521 56.092 216.114 56.823 217.563 58.208C220.83 61.305 224.076 62.5169 229.201 62.5169C232.917 62.5169 235.591 61.8244 238.388 60.1124C239.164 59.6315 239.961 59.2467 240.144 59.2467C240.573 59.2467 241.553 60.4394 241.553 60.9588C241.553 61.8051 238.634 64.5367 235.775 66.3641C233.427 67.8453 229.732 69.211 226.506 69.7304C224.24 70.0959 219.176 70.0959 216.951 69.7112ZM226.036 69.3457C230.773 68.6147 235.428 66.4795 238.776 63.4979C240.614 61.8629 241.226 61.0742 240.961 60.651C240.287 59.5545 240.308 59.5545 238.572 60.5548C235.796 62.1514 234.428 62.5938 231.161 62.9208C227.363 63.2863 223.852 62.69 220.626 61.1126C218.482 60.0739 215.909 57.6886 214.623 55.5342C212.867 52.5911 211.908 49.1671 211.642 44.762C211.52 42.9153 211.54 42.4537 211.785 42.319C211.949 42.2228 218.747 42.1459 227.016 42.1459H241.961V41.588C241.961 40.3185 241.512 36.9137 241.124 35.144C239.532 27.9689 235.346 22.8714 229.364 20.8131C226.975 19.986 224.73 19.659 221.769 19.659C214.746 19.659 208.988 21.8326 204.558 26.18C201.025 29.6425 198.923 33.5281 197.636 38.9912C197.248 40.6455 197.187 41.4919 197.187 44.9544C197.187 48.3976 197.248 49.2825 197.636 50.8598C200.025 60.9588 207.069 67.5952 217.175 69.288C219.707 69.6919 223.505 69.7304 226.036 69.3457ZM211.663 38.9142C211.499 38.6834 211.887 35.2594 212.275 33.4897C213.194 29.2193 214.644 26.1223 216.644 24.2179C217.727 23.1984 218.217 22.8714 219.094 22.6405C219.707 22.4674 220.381 22.3328 220.626 22.3328C221.565 22.3328 222.667 22.7944 223.484 23.5062C225.689 25.4298 226.955 29.5463 227.2 35.6441L227.323 38.6449L225.199 38.7603C220.932 38.9719 211.785 39.0681 211.663 38.9142ZM223.362 38.3564L226.914 38.241L226.792 35.8557C226.342 27.4688 224.158 22.8906 220.626 22.8906C216.787 22.8906 213.725 27.5457 212.439 35.2979C212.275 36.2404 212.153 37.3754 212.153 37.7985V38.568L215.991 38.5103C218.074 38.491 221.402 38.4141 223.362 38.3564ZM257.785 69.9035C254.15 69.538 248.352 68.3454 246.433 67.5567L245.494 67.172L245.371 62.7862C245.31 60.3624 245.228 57.1308 245.187 55.6111L245.126 52.8219L245.698 52.5718C246.004 52.4372 246.637 52.3025 247.086 52.2833L247.923 52.2448L248.638 53.8799C251.394 60.2663 254.62 63.6903 258.826 64.7483C260.439 65.1522 263.44 65.1522 264.645 64.7483C267.973 63.6326 269.81 61.2665 269.831 58.0156C269.851 54.1684 267.605 52.3218 259.132 49.2055C253.885 47.2627 252.047 46.2816 249.863 44.1657C247.515 41.8958 246.372 39.3182 246.167 35.7211C245.902 31.3737 247.352 27.6996 250.557 24.5834C253.783 21.4479 257.968 19.7359 263.665 19.255C268.687 18.8318 276.384 19.8321 280.407 21.4287L281.142 21.7172L281.264 25.6414C281.346 27.7958 281.407 30.6812 281.427 32.0662L281.468 34.5669L280.488 34.9131C278.916 35.4517 278.814 35.394 277.957 33.2204C275.527 27.1418 272.689 24.2564 268.279 23.3715C265.584 22.8329 263.338 23.41 261.705 25.0643C260.439 26.3531 259.928 27.488 259.806 29.3924C259.683 31.4699 260.071 32.5856 261.419 33.9706C263.073 35.6826 265.788 37.1445 271.199 39.2797C277.814 41.8958 280.978 44.108 282.693 47.3396C283.816 49.4364 284.122 51.1099 284.02 54.3416C283.939 56.7653 283.857 57.2654 283.265 58.8813C281.366 64.1904 277.058 67.6721 270.402 69.3264C268.156 69.8843 267.83 69.9035 263.338 69.9612C260.704 69.9612 258.234 69.942 257.785 69.9035ZM267.483 69.3649C276.16 68.1146 281.754 63.748 283.224 57.0538C283.939 53.8222 283.612 50.225 282.367 47.8205C280.652 44.4542 277.732 42.4152 270.545 39.549C265.196 37.4138 261.991 35.6056 260.684 33.9898C259.602 32.6433 259.255 31.6238 259.255 29.8348C259.275 27.1418 260.357 25.0835 262.44 23.7947C264.175 22.7175 266.339 22.4482 268.871 23.0253C271.934 23.6985 274.22 25.4682 276.303 28.7384C276.956 29.7771 278.324 32.701 278.977 34.4899C279.08 34.7785 279.202 34.7785 279.917 34.5861C280.366 34.4707 280.795 34.2976 280.876 34.2206C280.958 34.1437 280.958 31.3929 280.856 28.1036L280.713 22.1212L279.978 21.8326C278.732 21.3325 275.466 20.5053 273.322 20.1206C271.709 19.8321 270.28 19.7744 266.482 19.7744C261.95 19.7744 261.582 19.8128 259.704 20.2937C254.252 21.6787 250.23 24.5834 248.127 28.6037C247.004 30.7389 246.617 32.3932 246.637 34.9708C246.657 38.6257 247.719 41.338 250.047 43.6848C252.068 45.7238 254.681 47.1665 259.132 48.7246C262.644 49.9365 266.258 51.6485 267.646 52.7257C268.463 53.3605 269.096 54.0722 269.565 54.8994C270.239 56.0728 270.28 56.2267 270.28 58.0541C270.28 59.8238 270.219 60.0931 269.626 61.2665C268.075 64.3443 264.971 65.8832 260.908 65.5754C255.375 65.1522 251.496 61.709 248.332 54.4377C247.515 52.5334 247.454 52.4949 246.188 52.9566L245.616 53.1682L245.759 59.9392C245.882 65.9601 245.943 66.7488 246.249 66.9604C247.147 67.6144 253.027 68.9225 257.111 69.3841C260.235 69.6919 265.094 69.6919 267.483 69.3649ZM0.265421 68.7494C0.102085 68.6916 0.020417 68.2107 0.020417 67.3259C0.020417 65.7293 -0.0816678 65.8062 3.18505 65.2292C5.69633 64.7867 6.59468 64.3443 7.6972 62.9785C9.84098 60.324 10.3106 55.2072 10.3106 34.1629C10.3106 14.4075 9.90223 10.2333 7.6972 7.19399C6.71718 5.84747 5.04299 5.09726 2.26628 4.78948L0.122502 4.52018L0.0612509 2.94282L0 1.36547L0.67376 1.25005C1.04127 1.19234 14.0265 1.15387 29.5229 1.19234L57.6983 1.25005L57.8209 2.01949C57.9025 2.44269 58.0046 6.79003 58.0863 11.6568L58.2292 20.5246L56.7592 20.967C54.5746 21.6018 54.595 21.6018 53.5945 19.1396C51.1853 13.1187 48.4086 9.6562 44.6111 7.88649C41.9977 6.67462 40.7931 6.53996 33.4022 6.53996H26.9708L26.8687 7.54024C26.6646 9.42537 26.3379 21.621 26.3379 27.3534V33.0857L28.2162 33.0665C29.2575 33.0665 31.2992 32.9895 32.7692 32.9126C34.9743 32.7972 35.6276 32.6818 36.5464 32.2778C38.8127 31.2968 40.3439 29.1231 41.2831 25.5837L41.7731 23.7562L43.4473 23.6985L45.1215 23.6408V35.2017V46.7625L43.4473 46.7048L41.7731 46.6471L41.3035 44.8197C40.4052 41.3957 38.7106 38.9335 36.5872 38.0486C35.6072 37.6447 33.198 37.4138 28.5225 37.2792L26.3175 37.2215V41.5496C26.3175 46.2816 26.6033 52.6873 26.9504 56.1497C27.4404 60.9972 28.7471 63.671 31.1155 64.6328C31.5646 64.8252 32.9938 65.1137 34.2801 65.3061C35.5664 65.4792 36.7914 65.7101 36.9751 65.8062C37.4651 66.0563 37.506 68.557 37.016 68.7301C36.6689 68.884 0.632926 68.884 0.265421 68.7494ZM36.9751 67.2297C36.9751 66.6526 36.9139 66.1717 36.8526 66.1717C35.8726 66.1717 31.34 65.2484 30.6254 64.9021C28.0325 63.671 26.8279 60.7472 26.3787 54.5147C26.052 50.0904 25.7254 37.0868 25.9295 36.8752C26.1133 36.7021 34.7497 37.0099 35.7705 37.2407C38.5676 37.8755 40.7114 40.4531 41.7935 44.4735L42.2631 46.2432L43.5086 46.3009L44.754 46.3586V35.2017V24.0448H43.4269C42.1814 24.0448 42.0998 24.064 42.0998 24.4872C42.0998 25.2182 41.3239 27.5265 40.5889 28.9692C39.4456 31.2391 37.8326 32.624 35.7705 33.0665C35.2601 33.1819 32.8713 33.355 30.4621 33.4512C27.0729 33.6051 26.052 33.5858 25.9091 33.4127C25.6641 33.0857 26.2154 7.75184 26.4808 6.57844L26.5829 6.13601L34.0759 6.19372L41.5689 6.25142L43.3044 6.84774C47.3469 8.2135 50.2462 11.0027 52.6758 15.831C53.227 16.9082 53.9212 18.5048 54.2275 19.3512C54.5337 20.1976 54.8196 20.9093 54.84 20.9478C54.8604 20.9862 55.5341 20.8131 56.3304 20.6015L57.78 20.1976L57.6779 13.9074C57.6167 10.4449 57.5146 6.30913 57.4533 4.6933L57.3513 1.73095H28.8696H0.408339L0.46959 2.92359L0.530841 4.11622L2.36837 4.32782C4.8184 4.61636 5.71675 4.86643 6.69676 5.53969C8.1872 6.5592 9.10597 8.05961 9.69806 10.4256C10.5964 14.0997 10.9231 22.3712 10.7802 37.8755C10.6168 54.2454 10.3922 57.6502 9.28972 60.9588C8.37096 63.6903 6.67635 65.133 3.87922 65.5754C3.10338 65.6908 2.02128 65.8832 1.4496 65.9986L0.428756 66.2102V67.2489V68.2877H18.7019H36.9751V67.2297ZM100.921 68.7109C100.737 68.5955 100.676 68.153 100.717 67.2297L100.778 65.9024L101.493 65.7678C101.881 65.6908 102.738 65.5369 103.371 65.4215C105.352 65.0753 106.474 64.0558 107.128 62.0744C107.659 60.4586 107.883 55.3034 107.883 44.9351C107.904 32.2586 107.618 29.277 106.25 27.565C105.515 26.6416 104.984 26.3916 103.187 26.0646C102.309 25.9107 101.37 25.7375 101.125 25.6798C100.717 25.6029 100.676 25.4682 100.676 24.5257C100.676 23.6023 100.737 23.4485 101.125 23.2946C101.738 23.0637 121.971 19.255 122.604 19.255H123.114L123.012 22.1019C122.951 23.66 122.869 25.9299 122.828 27.1418L122.726 29.3539L123.461 28.1036C125.809 24.1217 128.443 21.6403 131.934 20.1399C133.854 19.3127 135.14 19.0626 137.508 19.0626C140.326 19.0626 143.143 19.9283 143.143 20.7939C143.143 21.371 138.182 33.7205 137.917 33.8167C137.774 33.8744 136.814 33.5089 135.773 33.0472C133.588 32.0662 131.526 31.5661 129.546 31.5853C127.055 31.5853 124.298 32.4509 123.196 33.5666C122.726 34.0475 122.726 34.0668 122.604 41.1264C122.481 48.1283 122.726 56.6691 123.155 60.0931C123.502 63.017 124.339 64.4597 126.034 65.133C126.606 65.3638 130.199 65.8255 131.363 65.8255C131.444 65.8255 131.506 66.4987 131.465 67.3259L131.404 68.8263L116.295 68.8648C107.985 68.8455 101.064 68.7878 100.921 68.7109ZM131.097 67.2489V66.2102L129.505 66.0755C125.85 65.787 124.85 65.4408 123.89 64.1327C122.502 62.2476 122.196 58.7658 122.196 44.6851V33.682L122.706 33.1819C123.339 32.5471 125.34 31.643 126.749 31.3737C129.607 30.8159 133.282 31.2968 136.14 32.6241C136.957 33.0088 137.672 33.2781 137.712 33.2396C137.794 33.1627 142.51 21.4479 142.653 20.9478C142.715 20.7169 142.449 20.5246 141.653 20.236C139.958 19.6012 138.488 19.3704 136.59 19.4858C131.526 19.7551 127.014 22.9291 123.768 28.5268C123.237 29.4501 122.665 30.2195 122.522 30.2195C122.318 30.2195 122.298 29.1616 122.4 24.9104L122.543 19.6012L122.053 19.7167C121.787 19.7744 117.704 20.563 112.987 21.4479C102.881 23.3523 101.472 23.6408 101.227 23.7755C101.125 23.8332 101.044 24.1794 101.044 24.5449C101.044 25.2759 100.962 25.2374 103.249 25.5837C106.413 26.0646 107.516 27.5073 107.985 31.7584C108.598 37.2984 108.353 58.862 107.638 61.8051C107.271 63.3055 106.332 64.7675 105.392 65.2676C105.045 65.46 103.943 65.7678 102.942 65.9409L101.125 66.2679L101.064 67.2682V68.2877H116.091H131.118V67.2489H131.097Z" fill="#33629A"/>
</g>
<defs>
<filter id="filter0_d_2_149" x="-3.77979" y="0.34314" width="291.351" height="77.3737" filterUnits="userSpaceOnUse" color-interpolation-filters="sRGB">
<feFlood flood-opacity="0" result="BackgroundImageFix"/>
<feColorMatrix in="SourceAlpha" type="matrix" values="0 0 0 0 0 0 0 0 0 0 0 0 0 0 0 0 0 0 127 0" result="hardAlpha"/>
<feOffset dy="4"/>
<feGaussianBlur stdDeviation="2"/>
<feComposite in2="hardAlpha" operator="out"/>
<feColorMatrix type="matrix" values="0 0 0 0 0 0 0 0 0 0 0 0 0 0 0 0 0 0 0.25 0"/>
<feBlend mode="normal" in2="BackgroundImageFix" result="effect1_dropShadow_2_149"/>
<feBlend mode="normal" in="SourceGraphic" in2="effect1_dropShadow_2_149" result="shape"/>
</filter>
<clipPath id="clip0_2_149">
<rect width="284" height="70" fill="white"/>
</clipPath>
</defs>
</svg>
