<svg width="284" height="68" viewBox="0 0 284 68" fill="none" xmlns="http://www.w3.org/2000/svg">
<path d="M38.9449 66.6731H33.3034L31.7787 58.7583C29.6441 63.5072 27.0521 67.6229 19.276 67.6229C5.09604 67.6229 0.0644531 54.1677 0.0644531 34.8555C0.0644531 19.8174 3.41885 0.346893 20.6482 0.346893C35.8955 0.346893 38.1826 15.0685 38.7924 22.5084L28.1194 24.5663C27.0521 17.2846 26.2897 12.0608 20.6482 12.0608C17.2938 12.0608 15.7691 13.8021 14.8543 16.6514C13.482 20.9254 13.3296 30.4232 13.3296 35.4887C13.3296 51.1601 15.3117 55.909 20.8007 55.909C24.46 55.909 27.662 54.1677 27.662 42.9287H19.8859V32.0062H38.9449V66.6731Z" fill="black"/>
<path d="M41.0195 1.32531H53.9797V54.6712H69.9893V66.7018H41.0195V1.32531Z" fill="black"/>
<path d="M86.8309 41.9847L90.1853 23.9389C90.9476 19.9815 91.2526 16.3407 91.71 13.4913C92.0149 19.3483 92.4724 21.881 93.0822 24.4138L96.5891 41.9847H86.8309ZM85.916 1.30247L71.4312 66.679H83.0191L85.4586 52.5906H97.9614L100.553 66.679H113.514L99.3336 1.30247H85.916Z" fill="black"/>
<path d="M114.573 1.32543H132.26L137.139 28.869C138.206 34.8843 138.816 41.6911 139.121 47.548C139.578 40.4247 140.95 30.9269 141.713 27.4444L147.202 1.32543H164.584V66.7019H152.233V29.5022C152.233 25.2282 152.386 22.5372 152.843 9.71515C152.233 13.9892 150.709 25.5448 150.099 28.869L142.475 66.7019H134.394L126.923 28.2358C126.161 23.8035 125.093 15.8887 124.483 9.71515C124.636 14.7806 124.788 22.8538 124.788 27.9193V66.7019H114.573V1.32543Z" fill="black"/>
<path d="M185.94 12.0047C188.379 12.0047 189.752 12.9545 190.819 16.2787C192.039 20.0778 192.039 29.4173 192.039 33.3747C192.039 34.3245 192.039 45.7219 191.276 50.1542C190.666 53.6367 189.599 56.0111 186.245 56.0111C183.043 56.0111 181.976 53.795 181.213 51.2622C180.146 46.6716 180.146 40.3398 180.146 34.6411C180.146 26.4097 180.298 19.2863 181.518 16.1204C182.433 13.1128 183.958 12.0047 185.94 12.0047ZM186.245 0.290741C171.455 0.290741 166.423 13.2711 166.423 33.2164C166.423 43.664 167.643 53.3201 171.76 60.1268C172.522 61.3932 176.182 67.5668 185.94 67.5668C201.492 67.5668 205.761 53.6367 205.761 34.3245C205.761 14.6957 201.492 0.290741 186.245 0.290741Z" fill="black"/>
<path d="M220.924 1.32536V42.9573C220.924 51.0305 221.534 55.6211 227.328 55.6211C233.427 55.6211 233.58 49.7641 233.58 42.1659V1.32536H244.558V42.3242C244.558 53.8798 243.948 67.6516 226.566 67.6516C212.233 67.6516 208.117 60.0534 208.117 43.4322V1.32536H220.924Z" fill="black"/>
<path d="M259.215 11.6126H262.875C266.991 11.6126 269.888 13.8288 269.888 20.6355C269.888 26.8091 267.906 30.2916 262.875 30.2916H259.215V11.6126ZM246.56 66.6998H259.215V41.0558H263.332L270.346 66.6998H283.916L274.463 38.3647C277.36 36.4652 282.696 33.141 282.696 20.7938C282.696 18.4194 282.696 10.6628 276.902 4.96418C273.548 1.79824 269.736 1.48165 262.875 1.48165H246.56V66.6998Z" fill="black"/>
</svg>
