<svg width="281" height="44" viewBox="0 0 281 44" fill="none" xmlns="http://www.w3.org/2000/svg">
<path d="M47.7592 19.7337V15.1148C47.7592 12.5744 47.152 11.5929 46.1243 11.5929C44.723 11.5929 43.9289 13.7291 43.7421 19.7337H47.7592ZM66.4901 17.8861C66.4901 15.7499 65.4158 15.1148 64.2947 15.1148C63.5474 15.1148 62.5664 15.6344 62.2395 15.9231V30.7613C62.2395 32.5511 62.8 33.0707 63.9678 33.3594V33.879H53.9717V33.3594C54.6724 33.1862 55.5599 32.6088 55.5599 30.6458V14.1333C55.5599 12.1703 55.1395 11.5929 53.9717 11.3619V10.8423H62.3796L62.1461 15.4035C63.3138 12.6899 65.3224 10.4382 68.125 10.4382C70.6007 10.4382 73.0763 11.8816 73.0763 17.0778V30.7035C73.0763 32.2047 73.2632 33.1285 74.4776 33.4171V33.9368H65.0421V33.4171C65.9296 33.1285 66.4434 32.3779 66.4434 30.7035L66.4901 17.8861ZM76.4862 14.0756C76.4862 12.5744 76.1125 11.5352 74.9447 11.3042V10.7846H83.1191V30.5881C83.1191 32.0315 83.5395 33.1285 84.754 33.3017V33.8213H74.8513V33.3017C76.0658 33.1285 76.4862 31.9737 76.4862 30.5881V14.0756ZM83.3059 4.89551C83.3059 7.32043 81.6711 9.22572 79.7092 9.22572C77.7474 9.22572 76.1592 7.32043 76.1592 4.89551C76.1592 2.52833 77.7474 0.565308 79.7092 0.565308C81.6711 0.623044 83.3059 2.52833 83.3059 4.89551ZM97.4125 17.8861C97.4125 15.7499 96.3382 15.1148 95.2171 15.1148C94.4698 15.1148 93.4888 15.6344 93.1619 15.9231V30.7613C93.1619 32.5511 93.6757 33.0707 94.8902 33.3594V33.879H85.1276V33.3594C85.7816 33.1862 86.529 32.6088 86.529 30.6458V14.1333C86.529 12.1703 86.1086 11.5929 84.9408 11.3619V10.8423H93.3487L93.1152 15.4035C94.2829 12.6899 96.2915 10.4382 99.0941 10.4382C101.57 10.4382 104.045 11.8816 104.045 17.0778V30.7035C104.045 32.2047 104.232 33.1285 105.447 33.4171V33.9368H96.0112V33.4171C96.8987 33.1285 97.4125 32.3779 97.4125 30.7035V17.8861ZM115.91 17.7707C115.91 13.4404 115.49 11.4774 114.322 11.4774C113.061 11.4774 112.547 13.3827 112.547 17.7707V18.4635C112.547 22.7937 113.061 24.7567 114.322 24.7567C115.536 24.7567 115.91 22.8514 115.91 18.4635V17.7707ZM157.436 29.7798C156.828 31.7428 154.726 34.11 151.457 34.11C148.047 34.11 147.066 31.3964 147.066 28.6828V12.228H145.431V11.7084C147.86 11.1887 151.363 8.70608 153.325 6.10796H153.745V10.8423H157.389V12.2857H153.745V28.0477C153.745 29.5488 154.306 30.4726 155.474 30.4726C156.268 30.4726 156.875 29.953 157.155 29.5488L157.436 29.7798ZM188.265 17.8861C188.265 15.7499 187.19 15.1148 186.069 15.1148C185.322 15.1148 184.341 15.6344 184.014 15.9231V30.7613C184.014 32.5511 184.528 33.0707 185.742 33.3594V33.879H175.886V33.3594C176.587 33.1862 177.381 32.6088 177.381 30.6458V14.1333C177.381 12.1703 176.961 11.5929 175.793 11.3619V10.8423H184.201L183.967 15.4035C185.135 12.6899 187.144 10.4382 189.946 10.4382C192.422 10.4382 194.897 11.8816 194.897 17.0778V30.7035C194.897 32.2047 195.084 33.1285 196.299 33.4171V33.9368H186.863V33.4171C187.751 33.1285 188.265 32.3779 188.265 30.7035V17.8861ZM208.444 28.1054C208.444 30.0684 207.042 30.9345 206.155 30.9345C204.286 30.9345 203.352 29.3179 203.352 26.662V15.288C203.352 12.8054 204.707 11.7661 206.061 11.7661C207.229 11.7661 208.444 12.8631 208.444 14.8839V28.1054ZM3.15061 6.10796C3.15061 4.20267 2.59008 2.6438 0.161133 2.41285V1.66229H20.7138V9.97628H20.0131C17.7243 5.29966 16.9769 3.04795 14.548 3.04795H10.671V17.1933H12.2592C14.875 17.1933 15.669 15.8076 16.9769 11.8816H17.5375V23.7175H16.9769C15.669 19.7914 14.875 18.4058 12.2592 18.4058H10.671V30.0107C10.671 31.6273 11.1381 32.4934 13.1 32.4934H14.1743C17.9579 32.4934 19.0322 29.3756 21.4611 24.2948H22.1151L21.3677 33.879H0.161133V33.0707C2.54337 32.8398 3.15061 31.2809 3.15061 29.3756V6.10796ZM216.805 33.8213V33.3017C215.263 33.013 215.076 32.0315 215.076 30.5881V1.66229H206.435V2.23965C208.21 2.52833 208.444 2.58606 208.444 3.79851V12.0548C207.79 11.131 206.295 10.3227 204.38 10.3227C200.363 10.3227 196.252 14.191 196.252 22.736C196.252 30.6458 199.055 34.3409 203.072 34.3409C206.108 34.3409 207.836 32.0315 208.444 30.4149V33.7636H216.805V33.8213ZM262.815 28.1054C262.815 30.0684 261.413 30.9345 260.526 30.9345C258.657 30.9345 257.723 29.3179 257.723 26.662V15.288C257.723 12.8054 259.078 11.7661 260.432 11.7661C261.6 11.7661 262.815 12.8631 262.815 14.8839V28.1054ZM271.176 33.8213V33.3017C269.634 33.013 269.448 32.0315 269.448 30.5881V1.66229H260.806V2.23965C262.581 2.52833 262.815 2.58606 262.815 3.79851V12.0548C262.161 11.131 260.666 10.3227 258.751 10.3227C254.734 10.3227 250.623 14.191 250.623 22.736C250.623 30.6458 253.426 34.3409 257.443 34.3409C260.479 34.3409 262.207 32.0315 262.815 30.4149V33.7636H271.176V33.8213ZM226.567 30.4149V19.7914C226.194 22.1586 223.391 22.736 223.391 26.8352V27.0084C223.391 29.0292 224.512 30.5303 225.913 30.5303C226.147 30.5303 226.334 30.4726 226.567 30.4149ZM243.29 17.4242V29.8375C243.29 32.0315 243.803 32.9552 245.345 33.3594V33.879H235.162V33.3594C235.816 33.1862 236.657 32.6088 236.657 30.6458V14.1333C236.657 12.6322 236.236 11.5929 235.069 11.3619V10.8423H243.476C243.29 12.9786 243.29 14.422 243.29 17.4242ZM251.09 14.6529C251.09 17.0778 249.455 18.9831 247.494 18.9831C245.532 18.9831 243.944 17.0778 243.944 14.6529C243.944 12.2857 245.532 10.3227 247.494 10.3227C249.455 10.3227 251.09 12.2857 251.09 14.6529ZM109.884 24.9299C109.604 25.2763 109.37 25.7382 109.37 26.3733C109.37 27.0662 109.697 27.759 111.052 27.759L118.152 27.8745C122.823 27.9322 124.224 31.1654 124.224 33.8213C124.224 40.8651 117.685 43.6942 113.014 43.6942C107.035 43.6942 104.933 41.5002 104.933 38.9021C104.933 37.3432 106.194 35.7266 108.81 35.7266C109.184 35.7266 109.511 35.7843 109.884 35.842L109.931 35.9575C109.324 36.5926 108.903 37.5164 108.903 38.4979C108.903 40.4032 110.351 42.3085 114.228 42.3085C118.059 42.3085 120.441 40.4032 120.441 38.2092C120.441 36.4194 119.413 35.6689 116.751 35.4956L111.379 35.207C107.455 34.976 105.961 32.6666 105.961 29.953C105.961 28.1054 107.175 25.6805 109.417 24.699C107.315 23.4288 105.867 21.2926 105.867 18.1171C105.867 13.3827 109.557 10.3804 114.228 10.3804C115.676 10.3804 117.078 10.6691 118.292 11.2465C118.806 11.362 119.273 11.3619 119.74 11.3619C121.562 11.3619 123.243 10.9001 124.878 10.034V13.9601H124.645C123.711 13.8446 121.142 12.8631 119.367 11.9393C121.235 13.325 122.496 15.4612 122.496 18.1748C122.496 23.0246 118.806 26.0269 114.228 26.0269C112.734 25.9114 111.192 25.6228 109.884 24.9299ZM131.651 19.1563C129.596 17.3088 127.868 14.7684 127.868 11.3619C127.868 5.47287 132.072 1.25813 138.191 1.25813C140.853 1.25813 143.329 2.0087 145.011 2.75927L144.824 10.3227H144.076C142.208 5.3574 140.947 2.64379 138.191 2.64379C136.089 2.64379 134.501 4.37589 134.501 7.20496C134.501 9.11025 135.528 10.6691 136.976 11.9393L140.853 15.4612C143.843 18.1748 145.665 20.1956 145.665 23.9484C145.665 30.4726 140.573 34.2832 135.388 34.2832C132.118 34.2832 129.082 33.1284 127.588 32.0892L127.307 23.4865H128.055C130.297 29.4333 132.212 32.8398 135.295 32.8398C137.35 32.8398 138.938 31.2809 138.938 28.2786C138.938 25.9692 137.537 24.3526 135.668 22.736L131.651 19.1563ZM53.925 26.3733C52.9441 30.6458 50.2349 34.3409 45.3302 34.3409C39.725 34.3409 36.6888 29.2601 36.6888 23.3711C36.6888 15.9808 40.3322 10.3804 46.2645 10.3804C50.6085 10.3804 53.8783 13.7291 53.8783 20.2533V21.1771H43.6954C43.6954 27.1239 46.0309 29.4334 48.6 29.4334C50.3283 29.4334 52.15 28.625 53.5046 26.2001L53.925 26.3733ZM176.54 31.5118C175.326 33.1284 173.411 34.3986 171.075 34.3986C168.786 34.3986 167.572 33.0707 167.338 31.1654C166.404 32.9553 164.863 34.3409 162.574 34.3409C159.678 34.3409 157.622 31.916 157.622 28.5096C157.622 24.4103 159.865 22.9669 163.461 21.7544C166.357 20.8307 167.432 19.5605 167.432 16.7891V16.6159C167.432 13.7869 165.563 11.9393 163.274 11.9393C162.714 11.9393 162.153 12.0548 161.546 12.228C163.228 12.4012 164.582 14.1333 164.582 16.1541C164.582 18.4058 163.088 20.1378 161.219 20.1378C159.491 20.1378 158.136 18.4058 158.136 16.2695C158.136 12.5167 162.247 10.265 166.778 10.265C171.169 10.265 173.924 12.4012 173.924 16.4427C173.924 16.5005 173.924 21.7544 173.831 29.7798C173.831 30.7035 174.205 31.5118 174.999 31.5118C175.326 31.5118 175.746 31.3964 176.213 31.05L176.54 31.5118ZM167.292 30.4149V19.7914C166.918 22.1586 164.115 22.736 164.115 26.8352V27.0084C164.115 29.0292 165.236 30.5303 166.638 30.5303C166.871 30.5303 167.058 30.4726 167.292 30.4149ZM235.816 31.5118C234.601 33.1284 232.686 34.3986 230.351 34.3986C228.062 34.3986 226.848 33.0707 226.614 31.1654C225.68 32.9553 224.138 34.3409 221.849 34.3409C218.953 34.3409 216.898 31.916 216.898 28.5096C216.898 24.4103 219.14 22.9669 222.737 21.7544C225.633 20.8307 226.707 19.5605 226.707 16.7891V16.6159C226.707 13.7869 224.839 11.9393 222.55 11.9393C221.99 11.9393 221.429 12.0548 220.822 12.228C222.503 12.4012 223.858 14.1333 223.858 16.1541C223.858 18.4058 222.363 20.1378 220.495 20.1378C218.767 20.1378 217.412 18.4058 217.412 16.2695C217.412 12.5167 221.523 10.265 226.053 10.265C230.444 10.265 233.2 12.4012 233.2 16.4427C233.2 16.5005 233.2 21.7544 233.107 29.7798C233.107 30.7035 233.48 31.5118 234.274 31.5118C234.601 31.5118 235.022 31.3964 235.489 31.05L235.816 31.5118ZM31.7842 33.8213H26.4125L21.3677 14.5952C20.8072 12.5744 20.2 11.6506 19.4526 11.3042V10.7846H30.8033V11.3042C28.8414 11.7084 28.0941 12.6321 28.6079 14.8261L32.0645 28.856L34.9138 16.2695C35.1473 15.1148 35.3342 14.191 35.3342 13.325C35.3342 11.8238 34.4934 11.4197 33.4658 11.2465V10.7268H39.2579V11.2465C38.2302 11.7084 37.5296 12.3435 36.502 16.0386L31.7842 33.8213Z" fill="#1D1D1B"/>
<path d="M276.454 33.8442C278.647 33.8442 280.424 31.6212 280.424 28.8789C280.424 26.1366 278.647 23.9136 276.454 23.9136C274.261 23.9136 272.483 26.1366 272.483 28.8789C272.483 31.6212 274.261 33.8442 276.454 33.8442Z" fill="#DD052B"/>
<path d="M47.7592 19.7607V15.1418C47.7592 12.6014 47.152 11.6199 46.1243 11.6199C44.723 11.6199 43.9289 13.7561 43.7421 19.7607H47.7592ZM66.4901 17.9131C66.4901 15.7769 65.4158 15.1418 64.2947 15.1418C63.5474 15.1418 62.5664 15.6614 62.2395 15.9501V30.7883C62.2395 32.5781 62.8 33.0977 63.9678 33.3864V33.906H53.9717V33.3864C54.6724 33.2132 55.5599 32.6358 55.5599 30.6728V14.1603C55.5599 12.1972 55.1395 11.6199 53.9717 11.3889V10.8693H62.3796L62.1461 15.4305C63.3138 12.7169 65.3224 10.4652 68.125 10.4652C70.6007 10.4652 73.0763 11.9086 73.0763 17.1048V30.6151C73.0763 32.1162 73.2632 33.04 74.4776 33.3287V33.8483H65.0421V33.3287C65.9296 33.04 66.4434 32.2894 66.4434 30.6151L66.4901 17.9131ZM76.4862 14.1025C76.4862 12.6014 76.1125 11.5621 74.9447 11.3312V10.8116H83.1191V30.6151C83.1191 32.0585 83.5395 33.1554 84.754 33.3287V33.8483H74.8513V33.3287C76.0658 33.1554 76.4862 32.0007 76.4862 30.6151V14.1025ZM83.3059 4.92249C83.3059 7.34741 81.6711 9.2527 79.7092 9.2527C77.7474 9.2527 76.1592 7.34741 76.1592 4.92249C76.1592 2.55531 77.7474 0.592285 79.7092 0.592285C81.6711 0.592285 83.3059 2.55531 83.3059 4.92249ZM97.4125 17.9131C97.4125 15.7769 96.3382 15.1418 95.2171 15.1418C94.4698 15.1418 93.4888 15.6614 93.1619 15.9501V30.7883C93.1619 32.5781 93.6757 33.0977 94.8902 33.3864V33.906H85.1276V33.3864C85.7816 33.2132 86.529 32.6358 86.529 30.6728V14.1603C86.529 12.1972 86.1086 11.6199 84.9408 11.3889V10.8693H93.3487L93.1152 15.4305C94.2829 12.7169 96.2915 10.4652 99.0941 10.4652C101.57 10.4652 104.045 11.9086 104.045 17.1048V30.6151C104.045 32.1162 104.232 33.04 105.447 33.3287V33.8483H96.0112V33.3287C96.8987 33.04 97.4125 32.2894 97.4125 30.6151V17.9131ZM115.91 17.7399C115.91 13.4097 115.49 11.4467 114.322 11.4467C113.061 11.4467 112.547 13.352 112.547 17.7399V18.4327C112.547 22.7629 113.061 24.726 114.322 24.726C115.536 24.726 115.91 22.8207 115.91 18.4327V17.7399ZM157.436 29.8067C156.828 31.7698 154.726 34.137 151.457 34.137C148.047 34.137 147.066 31.4234 147.066 28.7098V12.255H145.431V11.7353C147.86 11.2157 151.363 8.73308 153.325 6.13495H153.745V10.8693H157.389V12.3127H153.745V28.0747C153.745 29.5758 154.306 30.4996 155.474 30.4996C156.268 30.4996 156.875 29.98 157.155 29.5758L157.436 29.8067ZM188.265 17.9131C188.265 15.7769 187.19 15.1418 186.069 15.1418C185.322 15.1418 184.341 15.6614 184.014 15.9501V30.7883C184.014 32.5781 184.528 33.0977 185.742 33.3864V33.906H175.886V33.3864C176.587 33.2132 177.381 32.6358 177.381 30.6728V14.1603C177.381 12.1972 176.961 11.6199 175.793 11.3889V10.8693H184.201L183.967 15.4305C185.135 12.7169 187.144 10.4652 189.946 10.4652C192.422 10.4652 194.897 11.9086 194.897 17.1048V30.6151C194.897 32.1162 195.084 33.04 196.299 33.3287V33.8483H186.863V33.3287C187.751 33.04 188.265 32.2894 188.265 30.6151V17.9131ZM208.444 28.0747C208.444 30.0377 207.042 30.9037 206.155 30.9037C204.286 30.9037 203.352 29.2871 203.352 26.6313V15.2572C203.352 12.7746 204.707 11.7353 206.061 11.7353C207.229 11.7353 208.444 12.8323 208.444 14.8531V28.0747ZM3.15061 6.13495C3.15061 4.22966 2.59008 2.67079 0.161133 2.43985V1.68927H20.7138V9.94554H20.0131C17.7243 5.26892 16.9769 3.01721 14.548 3.01721H10.671V17.1625H12.2592C14.875 17.1625 15.669 15.7769 16.9769 11.8508H17.5375V23.6867H16.9769C15.669 19.7607 14.875 18.375 12.2592 18.375H10.671V30.0377C10.671 31.6543 11.1381 32.5203 13.1 32.5203H14.1743C17.9579 32.5203 19.0322 29.4026 21.4611 24.3218H22.1151L21.3677 33.906H0.161133V33.1554C2.54337 32.9245 3.15061 31.3656 3.15061 29.4603V6.13495ZM216.805 33.8483V33.3287C215.263 33.04 215.076 32.0585 215.076 30.6151V1.68927H206.435V2.26663C208.21 2.55531 208.444 2.61305 208.444 3.82551V12.0818C207.79 11.158 206.295 10.3497 204.38 10.3497C200.363 10.3497 196.252 14.218 196.252 22.7629C196.252 30.6728 199.055 34.3679 203.072 34.3679C206.108 34.3679 207.836 32.0585 208.444 30.4418V33.7905H216.805V33.8483ZM262.815 28.0747C262.815 30.0377 261.413 30.9037 260.526 30.9037C258.657 30.9037 257.723 29.2871 257.723 26.6313V15.2572C257.723 12.7746 259.078 11.7353 260.432 11.7353C261.6 11.7353 262.815 12.8323 262.815 14.8531V28.0747ZM271.176 33.8483V33.3287C269.634 33.04 269.448 32.0585 269.448 30.6151V1.68927H260.806V2.26663C262.581 2.55531 262.815 2.61305 262.815 3.82551V12.0818C262.161 11.158 260.666 10.3497 258.751 10.3497C254.734 10.3497 250.623 14.218 250.623 22.7629C250.623 30.6728 253.426 34.3679 257.443 34.3679C260.479 34.3679 262.207 32.0585 262.815 30.4418V33.7905H271.176V33.8483ZM226.567 30.4418V19.8184C226.194 22.1856 223.391 22.7629 223.391 26.8622V27.0354C223.391 29.0562 224.512 30.5573 225.913 30.5573C226.147 30.4996 226.334 30.4418 226.567 30.4418ZM243.29 17.3935V29.8067C243.29 32.0007 243.803 32.9245 245.345 33.3287V33.8483H235.162V33.3287C235.816 33.1554 236.657 32.5781 236.657 30.6151V14.1025C236.657 12.6014 236.236 11.5621 235.069 11.3312V10.8116H243.476C243.29 12.9478 243.29 14.4489 243.29 17.3935ZM251.09 14.6799C251.09 17.1048 249.455 19.0101 247.494 19.0101C245.532 19.0101 243.944 17.1048 243.944 14.6799C243.944 12.3127 245.532 10.3497 247.494 10.3497C249.455 10.3497 251.09 12.3127 251.09 14.6799ZM109.884 24.8992C109.604 25.2456 109.37 25.7075 109.37 26.3426C109.37 27.0354 109.697 27.7282 111.052 27.7282L118.152 27.8437C122.823 27.9015 124.224 31.1347 124.224 33.7905C124.224 40.8343 117.685 43.6634 113.014 43.6634C107.035 43.6634 104.933 41.4694 104.933 38.8713C104.933 37.3124 106.194 35.6958 108.81 35.6958C109.184 35.6958 109.511 35.7536 109.884 35.8113L109.931 35.9268C109.324 36.5619 108.903 37.4856 108.903 38.4672C108.903 40.3725 110.351 42.2777 114.228 42.2777C118.059 42.2777 120.441 40.3725 120.441 38.1785C120.441 36.3887 119.413 35.6381 116.751 35.4649L111.379 35.1762C107.455 34.9453 105.961 32.6358 105.961 29.9222C105.961 28.0747 107.175 25.6498 109.417 24.6682C107.315 23.398 105.867 21.2618 105.867 18.0863C105.867 13.352 109.557 10.3497 114.228 10.3497C115.676 10.3497 117.078 10.6384 118.292 11.2157C118.806 11.3312 119.273 11.3312 119.74 11.3312C121.562 11.3312 123.243 10.8693 124.878 10.0033V13.9293H124.645C123.711 13.8139 121.142 12.8323 119.367 11.9086C121.235 13.2942 122.496 15.4305 122.496 18.1441C122.496 22.9939 118.806 25.9962 114.228 25.9962C112.734 25.9384 111.192 25.592 109.884 24.8992ZM131.651 19.1256C129.596 17.278 127.868 14.7376 127.868 11.3312C127.868 5.44212 132.072 1.22739 138.191 1.22739C140.853 1.22739 143.329 1.97796 145.011 2.72853L144.824 10.2919H144.076C142.208 5.32664 140.947 2.61305 138.191 2.61305C136.089 2.61305 134.501 4.34513 134.501 7.1742C134.501 9.07949 135.528 10.6384 136.976 11.9086L140.853 15.4305C143.843 18.1441 145.665 20.1648 145.665 23.9177C145.665 30.4418 140.573 34.2524 135.388 34.2524C132.118 34.2524 129.082 33.0977 127.588 32.0585L127.307 23.4558H128.055C130.297 29.4026 132.212 32.809 135.295 32.809C137.35 32.809 138.938 31.2501 138.938 28.2479C138.938 25.9384 137.537 24.3218 135.668 22.7052L131.651 19.1256ZM53.925 26.4003C52.9441 30.6728 50.2349 34.3679 45.3302 34.3679C39.725 34.3679 36.6888 29.2871 36.6888 23.398C36.6888 16.0078 40.3322 10.4074 46.2645 10.4074C50.6085 10.4074 53.8783 13.7561 53.8783 20.2803V21.2041H43.6954C43.6954 27.1509 46.0309 29.4603 48.6 29.4603C50.3283 29.4603 52.15 28.652 53.5046 26.2271L53.925 26.4003ZM176.54 31.4811C175.326 33.0977 173.411 34.3679 171.075 34.3679C168.786 34.3679 167.572 33.04 167.338 31.1347C166.404 32.9245 164.863 34.3102 162.574 34.3102C159.678 34.3102 157.622 31.8852 157.622 28.4788C157.622 24.3795 159.865 22.9362 163.461 21.7237C166.357 20.7999 167.432 19.5297 167.432 16.7584V16.5852C167.432 13.7561 165.563 11.9086 163.274 11.9086C162.714 11.9086 162.153 12.024 161.546 12.1972C163.228 12.3705 164.582 14.1025 164.582 16.1233C164.582 18.375 163.088 20.1071 161.219 20.1071C159.491 20.1071 158.136 18.375 158.136 16.2388C158.136 12.4859 162.247 10.2342 166.778 10.2342C171.169 10.2342 173.924 12.3704 173.924 16.412C173.924 16.4697 173.924 21.7237 173.831 29.749C173.831 30.6728 174.205 31.4811 174.999 31.4811C175.326 31.4811 175.746 31.3656 176.213 31.0192L176.54 31.4811ZM167.292 30.4418V19.8184C166.918 22.1856 164.115 22.7629 164.115 26.8622V27.0354C164.115 29.0562 165.236 30.5573 166.638 30.5573C166.871 30.4996 167.058 30.4418 167.292 30.4418ZM235.816 31.4811C234.601 33.0977 232.686 34.3679 230.351 34.3679C228.062 34.3679 226.848 33.04 226.614 31.1347C225.68 32.9245 224.138 34.3102 221.849 34.3102C218.953 34.3102 216.898 31.8852 216.898 28.4788C216.898 24.3795 219.14 22.9362 222.737 21.7237C225.633 20.7999 226.707 19.5297 226.707 16.7584V16.5852C226.707 13.7561 224.839 11.9086 222.55 11.9086C221.99 11.9086 221.429 12.024 220.822 12.1972C222.503 12.3705 223.858 14.1025 223.858 16.1233C223.858 18.375 222.363 20.1071 220.495 20.1071C218.767 20.1071 217.412 18.375 217.412 16.2388C217.412 12.4859 221.523 10.2342 226.053 10.2342C230.444 10.2342 233.2 12.3704 233.2 16.412C233.2 16.4697 233.2 21.7237 233.107 29.749C233.107 30.6728 233.48 31.4811 234.274 31.4811C234.601 31.4811 235.022 31.3656 235.489 31.0192L235.816 31.4811ZM31.7842 33.8483H26.4125L21.3677 14.5644C20.8072 12.5437 20.2 11.6199 19.4526 11.2735V10.7538H30.8033V11.2735C28.8414 11.6776 28.0941 12.6014 28.6079 14.7954L32.0645 28.8252L34.9138 16.2388C35.1473 15.084 35.3342 14.1603 35.3342 13.2942C35.3342 11.7931 34.4934 11.3889 33.4658 11.2157V10.6961H39.2579V11.2157C38.2302 11.6776 37.5296 12.3127 36.502 16.0078L31.7842 33.8483Z" fill="#1D1D1B"/>
</svg>
