<svg width="350" height="74" viewBox="0 0 350 74" fill="none" xmlns="http://www.w3.org/2000/svg">
<path fill-rule="evenodd" clip-rule="evenodd" d="M179.056 52.6141L179.826 53.8359C179.729 52.0064 179.874 48.9421 179.874 48.9421C179.294 49.7556 179.152 51.2861 179.152 51.2861L178.334 51.4887L179.056 52.6141ZM210.601 65.8742C210.505 65.4659 210.36 65.1637 210.117 65.1637C209.879 65.1637 209.637 65.6684 209.637 66.3855C209.637 67.1025 209.879 67.6073 210.117 67.6073C210.405 67.6073 210.65 67.1025 210.65 66.3855C210.647 66.1861 210.601 66.0768 210.601 65.8742ZM210.581 61.0866C210.593 61.1734 210.601 61.2827 210.601 61.3856C210.597 61.9033 210.443 62.3631 210.214 62.5399V64.0447C210.483 64.1026 210.729 64.3952 210.891 64.8517C211.046 65.2922 211.129 65.8292 211.129 66.3823C211.129 67.4819 210.833 68.3694 210.402 68.6459C211.592 68.4497 212.336 68.2215 212.336 68.2215C211.178 67.707 211.852 66.2826 211.852 66.2826C212.383 65.3598 213.393 64.6428 213.393 64.6428C212.19 64.3341 211.516 62.2987 211.223 61.0769H210.581V61.0866ZM209.976 68.707C209.514 68.5462 209.156 67.5912 209.156 66.3855C209.156 65.2312 209.487 64.3019 209.926 64.0897V62.5914C209.657 62.5013 209.443 62.0544 209.399 61.482L209.395 61.4917C208.915 61.7907 208.479 61.7907 208.479 61.7907C208.384 62.302 208.577 62.5078 208.577 62.5078C209.587 64.0383 208.915 65.4659 208.915 65.4659C208.434 66.3855 208.193 66.3855 208.193 66.3855C207.712 66.6941 206.555 68.8388 206.555 68.8388C207.842 68.9224 209.021 68.8388 209.976 68.707ZM196.779 59.2474C196.865 59.2474 196.95 59.1895 197.02 59.0834L197.981 59.9644C197.981 60.5721 198.173 61.0898 198.416 61.0898C198.565 61.0898 198.697 60.884 198.774 60.5946L199.589 60.8486C199.642 61.3599 199.808 61.7039 200.004 61.7039C200.227 61.7039 200.451 61.2698 200.48 60.6428L201.162 59.9612C201.242 60.2152 201.362 60.376 201.5 60.376C201.738 60.376 201.981 59.8647 201.981 59.2506L202.415 57.7297C203.235 57.8616 204.057 57.8294 204.872 57.6236C206.171 56.1895 207.232 55.3761 207.232 55.3761C206.843 55.9838 206.458 56.5014 206.217 57.1124C205.974 57.6204 205.749 58.167 205.543 58.7425C205.189 59.2827 204.989 60.1702 205.012 61.093C205.048 61.675 205.147 62.2344 205.299 62.7232C205.541 63.3341 205.88 63.646 205.88 63.646L206.411 64.6653C205.975 65.3823 205.012 65.8839 205.012 65.8839C204.481 66.3019 203.761 65.5848 203.761 65.5848C202.075 64.7714 201.498 66.3983 201.498 66.3983C201.16 67.2118 200.533 67.3212 200.533 67.3212L200.822 68.2407C200.195 68.6491 199.861 68.1379 199.861 68.1379C199.811 66.4016 200.245 64.6685 200.245 64.6685C200.052 61.9161 197.352 62.4209 197.352 62.4209L196.682 61.0866L196.536 60.7779L194.996 57.7169C194.996 58.6364 194.803 59.9644 194.565 61.0898C194.37 62.0029 194.129 62.8229 194.129 62.8229L193.552 62.2055C193.662 61.8679 193.742 61.4885 193.791 61.0898C194.27 58.6364 194.609 55.167 194.609 55.167C194.897 55.167 195.141 55.2732 195.331 55.3728C195.477 55.5754 195.574 55.6815 195.574 55.6815C195.686 55.7941 195.807 55.9034 195.94 56.0127L196.471 57.6108C196.421 57.8005 196.395 58.0127 196.395 58.2281C196.393 58.839 196.536 59.2474 196.779 59.2474ZM202.156 57.659L201.875 58.5046C201.796 58.2184 201.653 58.0384 201.498 58.0255C201.256 58.0255 201.063 58.5303 201.063 59.2474C201.063 59.3438 201.067 59.4435 201.08 59.5303L200.465 60.138C200.4 59.6589 200.202 59.2409 200.004 59.2409C199.767 59.2409 199.573 59.8519 199.573 60.4628L198.84 60.1959C198.847 60.1187 198.85 60.0383 198.85 59.9612C198.85 59.3503 198.655 58.7297 198.416 58.7297C198.234 58.7297 198.085 59.0705 198.02 59.4982L197.17 58.6847C197.199 58.54 197.213 58.3856 197.211 58.2281C197.211 57.7168 197.019 57.2121 196.776 57.2121C196.738 57.2088 196.7 57.2217 196.665 57.2539L196.437 56.3889H196.434C197.66 57.2378 199.181 57.8229 199.181 57.8229H200.242L200.58 56.6976C201.017 57.2152 201.583 57.5111 202.156 57.659ZM196.448 40.2349C196.487 40.3378 196.524 40.4343 196.563 40.5211L196.503 40.7526C196.471 40.7076 196.433 40.6818 196.395 40.6754C196.202 40.6754 196.056 41.0838 196.056 41.4953L196.011 41.3924L195.622 40.4728L195.481 40.1674L194.613 38.2285C193.601 35.3733 192.061 38.2285 192.061 38.2285L191.822 37.8202C192.637 36.7977 191.919 35.4729 191.919 35.4729L193.507 26.7979L193.071 25.6757C193.845 22.306 192.208 22.2064 192.208 22.2064C191.724 19.1453 190.857 20.5761 190.857 20.5761C190.57 17.6148 189.508 19.1453 189.508 19.1453C189.124 17.1068 188.209 18.3286 188.209 18.3286L188.253 13.5313L187.197 13.631L186.039 13.5313L186.136 18.4283C184.982 17.2065 184.785 19.6533 184.785 19.6533C183.439 18.0199 183.439 21.1839 183.439 21.1839C182.33 20.4668 182.378 22.7144 182.378 22.7144C180.886 23.0198 181.079 25.7754 181.079 25.7754L182.233 34.1418C181.946 35.6723 178.527 44.5499 178.527 44.5499L177.08 43.6335L176.983 43.1255C177.32 43.5339 177.561 43.3281 177.561 43.3281C177.419 42.3056 177.608 40.267 177.608 40.267C178.044 36.2896 177.273 34.8588 177.273 34.8588C177.32 33.2254 176.79 31.2898 176.79 31.2898C177.513 29.3509 176.454 27.412 176.454 27.412L176.308 26.8976L176.261 22.7144C176.068 22.7144 175.971 22.2031 175.971 22.2031C175.683 20.4668 175.153 21.5922 175.153 21.5922C174.767 19.7595 174.141 21.1839 174.141 21.1839C173.61 19.6533 173.08 21.1839 173.08 21.1839L172.647 18.2225L171.203 19.4443L171.685 22.7112C170.624 22.1967 170.963 24.4442 170.963 24.4442C170.046 24.5471 170.48 26.2802 170.48 26.2802C169.614 26.486 169.951 28.5277 169.951 28.5277L170.913 31.8942C170.142 33.727 170.866 34.9553 170.866 34.9553C171.107 35.8749 171.397 35.8748 171.397 35.8748C170.963 38.6336 171.541 41.4889 171.541 41.4889C170.914 43.0194 169.999 44.2412 169.181 45.1576C167.978 46.3859 166.917 46.9968 166.917 46.9968C165.038 47.9196 161.331 50.4662 161.331 50.4662C160.03 51.1768 157.96 52.5048 157.96 52.5048C155.359 54.1414 154.685 52.4083 154.685 52.4083C154.058 51.5851 154.541 49.4437 154.541 49.4437C155.166 46.791 156.468 46.1769 156.468 46.1769C157.383 47.4084 157.719 48.1158 157.719 48.1158C158.297 49.3473 159.309 49.2411 159.309 49.2411L159.358 48.8328C159.79 48.9389 160.08 48.6302 160.08 48.6302C159.79 48.0193 159.79 47.3023 159.79 47.3023C159.79 46.7942 159.453 45.9808 159.453 45.9808L166.147 45.3666C166.39 45.2734 166.582 45.2734 166.774 45.164C169.084 44.2477 169.615 43.1255 169.615 43.1255C171.204 40.4664 170.53 36.0806 170.53 36.0806C169.662 31.7978 167.978 31.5888 167.978 31.5888C166.677 30.875 165.715 31.2866 165.715 31.2866C164.993 31.3894 163.501 30.5727 163.501 30.5727C163.451 31.1804 164.077 33.1193 164.077 33.1193C163.64 33.2029 163.208 32.9103 162.874 32.3058C162.103 30.7753 160.851 31.4891 160.851 31.4891C161.044 32.3058 162.202 34.3508 162.202 34.3508C161.526 34.4504 159.698 32.8202 159.698 32.8202C160.035 36.19 161.865 38.534 161.865 38.534C164.032 40.4728 165.909 38.4343 165.909 38.4343C166.824 37.2125 167.739 36.4922 167.739 36.4922C167.876 36.3604 168.025 36.2929 168.175 36.2929C168.645 36.2929 169.06 36.9649 169.184 37.923C169.089 41.3924 167.884 41.4953 167.884 41.4953C164.416 43.0226 159.792 42.0034 159.792 42.0034C160.129 41.0838 160.177 38.7365 160.177 38.7365L159.792 38.9423C157.77 38.534 157.239 39.4536 157.239 39.4536C156.517 40.3731 156.18 42.312 156.18 42.312C155.265 43.1287 154.542 44.1448 154.011 45.1673C152.664 47.9293 152.519 50.9839 152.519 50.9839C152.422 54.6591 153.386 55.1735 153.386 55.1735C152.519 58.7361 153.818 60.0673 153.818 60.0673C154.397 59.1541 154.636 58.1284 154.636 58.1284C155.793 56.2989 159.165 54.7619 159.165 54.7619C158.49 55.8905 158.103 59.2506 158.103 59.2506C157.526 59.6589 156.562 58.9419 156.562 58.9419C156.033 58.8455 156.033 59.765 156.033 59.765L155.791 60.9837L155.454 63.2344C153.383 63.0286 153.673 65.5752 153.673 65.5752L153.383 72.4111C153.866 74.9608 154.635 74.5557 154.635 74.5557V72.0059H155.165C155.791 74.7583 156.755 75.3724 156.755 75.3724H157.045C157.38 75.1699 157.526 76.1956 157.526 76.1956L157.863 76.2888L157.91 74.5557L158.294 74.4592C158.537 74.665 158.679 75.4785 158.679 75.4785H158.968C159.063 75.067 159.113 73.948 159.113 73.948C159.499 73.4336 159.4 71.604 159.4 71.604C160.173 71.2953 160.991 71.9127 160.991 71.9127L160.944 73.4336C161.52 75.4785 162.244 75.784 162.244 75.784C162.727 76.0862 163.448 76.2888 164.316 76.3949C165.809 76.5975 167.686 76.4914 169.421 76.3949C171.303 76.1923 173.182 75.8869 175.056 75.4721C175.249 76.083 175.344 75.9865 175.344 75.9865C176.162 76.5942 177.077 74.7551 177.077 74.7551L176.79 75.9865C177.416 75.8804 178.091 74.9609 178.091 74.9609C178.258 75.4464 178.495 75.8033 178.765 75.9865L178.911 75.6779L179.103 76.2856C179.487 75.8772 179.728 74.4561 179.728 74.4561C180.164 75.2696 180.789 75.0637 180.789 75.0637L180.984 75.6747L181.125 75.1602C181.412 75.5782 181.943 76.083 181.943 76.083C182.524 74.5525 182.283 72.3114 182.283 72.3114L182.427 72.8162L182.569 71.5944C182.856 72.2021 183.343 72.2021 183.343 72.2021C182.427 73.0156 182.955 74.4528 182.955 74.4528C183.069 74.8548 183.237 75.1731 183.439 75.3628C183.755 75.2824 184.049 75.7325 184.113 76.3917C184.835 77.1087 185.269 75.4689 185.269 75.4689L185.366 74.2471C185.221 73.53 185.221 72.4078 185.221 72.4078L185.366 73.7326L185.605 74.0413L187.242 76.7936L188.641 74.3435C189.411 75.4689 190.472 75.4689 190.472 75.4689C190.856 75.4689 190.569 74.4528 190.569 74.4528C191.822 76.5943 193.698 76.083 193.698 76.083C193.985 75.5782 193.794 75.2695 193.794 75.2695C194.134 74.9608 194.71 75.9865 194.71 75.9865C195.19 76.6939 195.912 76.083 195.912 76.083C195.867 75.5782 195.625 75.4721 195.625 75.4721C195.964 75.4721 195.771 74.4561 195.771 74.4561C196.105 74.5525 196.396 75.3692 196.396 75.3692C196.683 76.1891 197.216 75.9865 197.216 75.9865L197.261 75.4721C197.6 75.9866 198.366 76.083 198.366 76.083C198.563 75.6747 198.416 75.0637 198.416 75.0637C201.884 77.3113 207.035 76.8933 207.035 76.8933C213.732 76.8001 214.647 74.0413 214.647 74.0413C214.888 73.4239 214.743 72.7165 214.743 72.7165V71.903C215.081 71.485 215.611 71.8002 215.611 71.8002L215.127 73.9416L214.985 74.6586C216.139 77.411 217.872 74.3499 217.872 74.3499V73.4303C218.212 73.1281 218.499 72.3114 218.499 72.3114L219.273 72.7198C219.368 73.6426 219.078 74.6586 219.078 74.6586C220.282 75.3692 220.713 72.7198 220.713 72.7198L220.091 65.8775C219.127 63.5335 217.392 63.9386 217.392 63.9386L217.344 62.2023C217.247 61.5946 216.913 61.1862 216.621 61.0866L216.248 60.8036L215.899 61.0866C215.366 61.183 214.595 61.183 214.595 61.183V61.0866L214.693 58.7329V56.0867L214.595 55.1639L215.611 55.4725C216.38 56.1799 218.163 56.1799 218.163 56.1799C218.74 56.6944 218.74 57.9162 218.74 57.9162L218.547 59.3502C220.185 59.0416 219.992 55.1639 219.992 55.1639C221.145 53.1189 220.857 47.6109 220.857 47.6109C220.711 46.2862 220.473 45.4663 220.324 45.1576L220.28 45.0644C220.28 41.5886 218.641 40.058 218.641 40.058C218.354 39.5468 218.016 39.5468 218.016 39.5468C217.632 39.3475 217.101 38.0163 217.101 38.0163C216.476 40.4632 217.004 42.2992 217.004 42.2992C216.04 41.8908 211.222 43.9326 211.222 43.9326C210.068 44.5467 208.143 43.2188 208.143 43.2188C206.936 41.7879 207.132 39.9552 207.132 39.9552C207.37 36.9938 208.526 37.4021 208.526 37.4021H208.865C209.877 36.9938 210.6 37.8105 210.6 37.8105C212.621 39.849 216.231 37.8105 216.231 37.8105C217.964 36.3797 218.449 31.5856 218.449 31.5856C217.292 33.8331 216.186 33.4247 216.186 33.4247C215.941 33.5276 215.7 33.6659 215.463 33.8331C215.656 32.0968 216.617 31.2801 216.617 31.2801C215.366 30.158 214.019 32.0968 214.019 32.0968C213.345 33.6273 211.85 34.1386 211.85 34.1386C212.955 33.219 213.536 30.6692 213.536 30.6692C212.814 31.5856 211.515 31.3798 211.515 31.3798C209.539 30.5631 207.372 34.3379 207.372 34.3379C205.396 38.2157 206.359 42.5018 206.359 42.5018C206.602 43.7236 207.179 44.6464 207.804 45.1544C208.721 46.0772 209.68 46.2798 209.68 46.2798C211.753 46.7911 215.993 45.7685 215.993 45.7685C216.377 45.5628 216.811 45.5627 216.811 45.5627C216.039 46.791 215.896 49.5466 215.896 49.5466C216.665 48.9389 217.242 48.9389 217.242 48.9389L217.197 49.3472C218.113 49.0386 218.88 49.3472 218.88 49.3472C219.364 49.4437 219.461 48.5337 219.461 48.5337C220.038 50.3633 218.88 52.4115 218.88 52.4115C218.207 53.8359 216.715 52.7105 216.715 52.7105C215.896 51.8971 213.774 51.5852 213.774 51.5852C213.39 50.5691 209.008 48.7331 209.008 48.7331C208.765 47.8103 208.334 48.2186 208.334 48.2186L207.947 48.1158C207.563 46.1769 206.696 47.3023 206.696 47.3023C206.071 47.0997 205.059 45.8779 204.479 45.1576C204.191 44.8554 204.047 44.5499 204.047 44.5499C206.358 39.1417 206.212 33.3283 206.212 33.3283C205.925 24.9587 202.699 23.634 202.699 23.634C202.218 21.1839 200.677 20.9813 200.677 20.9813L200.58 21.4925L200.723 22.2064C200.677 22.7176 200.964 23.6372 200.964 23.6372L200.339 23.9394L196.437 19.1453C195.477 18.6373 195.861 20.3671 195.861 20.3671L196.053 20.9813L199.425 26.5921C199.087 28.0197 197.934 29.8589 197.934 29.8589L197.498 30.0615L196.967 31.2866L197.017 32.9199C196.774 33.3283 196.243 33.3283 196.243 33.3283L196.198 34.3508C196.533 35.3733 197.497 35.3733 197.497 35.3733L198.266 37.0034C198.509 37.3121 198.702 36.9038 198.702 36.9038L199.374 35.2704L200.289 34.354C200.532 34.6594 200.967 34.7623 200.967 34.7623C200.341 35.2768 199.668 37.2125 199.668 37.2125C199.137 36.9038 198.268 37.3121 198.268 37.3121L198.172 38.4343L198.145 38.7044L197.934 38.4343C197.595 35.4762 196.534 37.3121 196.534 37.3121C196.182 38.116 196.146 39.3442 196.448 40.2349ZM196.469 42.3699C196.586 42.2574 196.68 41.9069 196.68 41.4889C196.68 41.3699 196.668 41.2542 196.644 41.1481L196.709 40.804C196.861 41.0645 197.049 41.2027 197.243 41.2027C197.739 41.1674 197.932 39.6497 197.932 39.6497H198.052L197.932 40.8715C197.448 41.4857 197.017 43.5242 197.017 43.5242L196.469 42.3699ZM196.771 39.4536C196.513 38.3185 197.066 37.8169 197.066 37.8169C197.739 37.6112 197.597 39.4472 197.597 39.4472C197.416 39.9262 197.27 40.1063 197.151 40.1256C196.888 40.1706 196.774 39.4632 196.771 39.4536ZM170.48 60.9805C170.095 61.6975 169.419 62.7167 168.553 62.8196L168.167 64.1379L169.083 64.6524L169.275 64.855L170.095 65.3694C170.095 65.3694 170.142 64.2441 170.769 64.4466C170.769 64.4466 171.203 61.9933 172.936 62.8164C172.936 62.8164 173.226 62.6106 173.61 63.019C173.755 63.2248 173.899 63.4305 174.042 63.7296L173.849 62.4048C173.849 62.4048 174.042 61.794 174.523 61.9933C174.523 61.9933 174.33 61.5849 174.186 60.9772C173.983 60.3792 173.866 59.6686 173.849 58.9323C173.834 58.1992 174.426 58.4274 175.006 58.6332V57.5078H175.341L174.716 56.6943C174.716 56.6943 173.125 60.4628 170.139 58.6332C169.548 58.2795 168.982 57.7651 168.454 57.1027C167.926 56.4403 169.034 60.1638 170.864 60.0609C170.866 60.0609 170.722 60.4692 170.48 60.9805ZM162.727 60.9805C163.689 61.5914 165.377 61.9033 165.377 61.9033C165.231 62.2023 165.087 62.511 164.943 62.7168C164.414 63.6364 163.98 63.8421 163.98 63.8421C163.692 64.8582 163.838 66.7038 163.838 66.7038C163.98 67.1121 164.414 67.4112 164.8 67.7199C165.282 68.1282 165.762 68.4369 165.762 68.4369C165.175 68.6909 164.569 68.6909 163.98 68.4369C163.449 68.334 163.115 68.0221 163.115 68.0221L163.355 67.0028C163.162 64.3469 161.284 64.0447 161.284 64.0447L161.381 62.8229C161.62 62.2055 161.863 61.4981 161.959 60.9837C162.02 60.7972 162.067 60.5914 162.103 60.376C162.199 60.5818 162.44 60.7843 162.681 60.9837H162.727V60.9805ZM197.02 69.4497C196.874 69.6555 196.779 69.8613 196.779 70.2632C196.779 70.2632 196.874 70.8741 197.501 71.2825C197.501 71.2825 197.597 70.1635 197.451 68.9385C197.45 68.9385 197.211 69.141 197.02 69.4497ZM175.056 67.6073L175.393 67.4048C175.393 67.4048 175.056 66.7938 175.009 66.3855C175.009 66.3855 175.009 65.572 174.576 64.855L174.623 65.572V66.5913L174.767 66.9V67.7134L175.056 67.6073ZM176.598 71.186L176.646 72.7165L177.273 71.2825C177.171 71.2857 177.077 71.1699 177.03 70.9802C176.79 70.5719 176.646 69.9642 176.646 69.9642L176.598 71.186ZM178.774 61.019C179.141 60.9322 179.448 60.9837 179.621 61.4274C179.616 60.7779 179.751 60.1252 180.21 59.9612C180.21 59.9612 179.197 59.5496 178.282 58.8326C177.706 58.4242 177.127 57.913 176.935 57.3021L176.501 57.6108L176.162 57.913V58.2216C176.162 58.2216 177.077 58.5207 177.56 59.347V58.9291C177.56 58.9323 178.435 59.2827 178.774 61.019ZM181.316 65.0607C181.316 64.855 181.364 64.6524 181.364 64.3437L182.087 65.9803C182.087 65.9803 182.228 66.9996 181.941 67.6105C181.941 67.6105 181.8 67.3115 181.607 67.1057C181.486 66.9771 181.354 66.9096 181.219 66.9031L181.173 65.5752C181.173 65.572 181.27 65.3694 181.316 65.0607ZM122.753 9.34489C122.753 9.34489 129.929 17.1003 130.795 18.6308C131.71 20.1613 131.228 21.1839 131.228 21.1839C131.228 21.1839 130.892 22.2031 130.073 22.6115C129.252 22.9137 129.496 24.3445 129.496 24.3445L129.4 60.5721C132.771 67.6105 135.95 63.8389 135.95 63.8389C137.155 63.0254 137.011 60.7779 137.011 60.7779C137.011 60.7779 137.253 26.6982 137.155 25.5728C137.058 24.351 136.578 24.351 136.578 24.351C136.578 24.351 133.592 20.3671 133.11 19.6566C132.578 18.946 133.157 17.8238 133.157 17.8238C133.157 17.8238 138.214 10.3738 138.938 8.94615C139.661 7.6182 140.239 8.4317 140.239 8.4317C140.239 8.4317 148.571 18.3318 149.533 19.8623C150.496 21.3929 150.015 21.9009 150.015 21.9009L147.656 26.9008C147.173 27.9233 147.414 28.8396 147.414 28.8396L147.317 62.3116C146.692 70.8806 140.333 72.1121 140.333 72.1121C132.675 72.3146 129.112 65.3758 129.112 65.3758C126.077 61.3952 122.562 64.1476 122.562 64.1476C118.084 67.4112 117.745 73.5364 117.745 73.5364C117.6 77.9286 119.913 80.0701 119.913 80.0701C122.755 83.9478 126.896 81.4945 126.896 81.4945C130.411 78.9479 135.854 75.067 135.854 75.067C139.272 73.5364 141.969 74.7583 141.969 74.7583C145.051 76.1956 146.256 79.2566 146.256 79.2566C148.231 83.5395 148.087 89.0474 148.087 89.0474C148.231 101.095 141.247 105.172 141.247 105.172C138.117 106.5 137.251 104.97 137.251 104.97C135.035 103.944 137.395 103.439 137.395 103.439C137.395 103.439 133.348 103.944 137.731 103.536C142.115 103.234 142.597 98.7481 142.597 98.7481C144.188 92.7225 141.731 91.7033 141.731 91.7033C138.359 90.6872 134.7 96.5006 134.7 96.5006C126.512 104.253 120.3 97.8253 120.3 97.8253C113.943 92.6197 114.762 82.6198 114.762 82.6198C114.905 69.6619 118.759 64.5624 118.759 64.5624L118.519 24.4571C118.326 23.4346 117.844 23.1323 117.844 23.1323C117.844 23.1323 115.194 20.8848 114.762 19.663C114.376 18.4379 115.002 17.9267 115.002 17.9267L121.119 9.35451C121.837 7.20664 122.753 9.34489 122.753 9.34489ZM4.08045 3.22282C3.16519 1.89809 4.17697 1.18429 4.17697 1.18429L13.3767 -13.1048H37.697C42.9464 -12.0856 42.5134 2.20032 42.5134 2.20032L42.4169 54.8519C33.8922 58.3213 29.7982 73.6329 29.7982 73.6329C21.8502 68.8388 8.22168 73.1217 8.22168 73.1217C7.01716 73.3242 7.83591 71.3854 7.83591 71.3854C12.556 53.8327 21.6101 54.3472 21.6101 54.3472C22.1947 54.3214 22.7674 54.3536 23.3244 54.4308L23.3717 3.75658L4.08045 3.22282ZM16.217 6.07807C17.9982 4.34498 17.6616 6.89796 17.6616 6.89796V36.1803C17.518 48.5273 12.9417 55.2667 12.9417 55.2667C11.5935 59.1477 6.44047 63.6331 6.44047 63.6331C4.65911 65.0608 5.71809 61.3856 5.71809 61.3856C7.40293 56.0867 7.40293 52.3022 7.40293 52.3022V17.1004C7.40293 16.0811 7.59582 15.6727 7.59582 15.6727L16.217 6.07807ZM24.1393 54.5754C28.3495 55.4725 31.4378 58.6332 31.4378 58.6332L31.3748 35.9938L31.3099 36.0967C31.3 36.071 27.9303 26.6468 24.1551 36.444L24.1393 54.5754ZM31.3669 33.6981L31.3413 24.2031C30.0521 26.7593 27.0465 31.0582 24.1648 23.1002L24.1551 33.8492C27.328 27.0262 30.182 31.2769 31.3669 33.6981ZM31.3334 21.7272L31.2901 5.8755C31.6267 3.22282 29.8945 3.93662 29.8945 3.93662L24.1846 3.77907L24.1708 20.0392C27.4008 31.3798 31.0027 22.5825 31.3334 21.7272ZM97.8026 -3.10182C97.8026 -3.10182 108.398 -10.346 109.746 -11.0599C111.142 -11.7737 111.047 -10.3461 111.047 -10.3461C111.047 -10.3461 110.76 53.5304 111 55.778C111.24 58.0255 111.722 57.4146 111.722 57.4146C111.722 57.4146 114.179 61.0898 114.708 61.5946C115.287 62.1058 114.998 63.3277 114.998 63.3277L109.026 73.1281C109.026 73.1281 99.2966 64.0447 98.527 63.0286C97.5645 61.5946 98.1904 60.7811 98.1904 60.7811L99.9245 57.1059C99.9245 57.1059 100.212 4.86267 99.7317 2.1071C99.2494 -0.651688 97.7082 -1.77387 97.7082 -1.77387C97.3697 -2.89925 97.8026 -3.10182 97.8026 -3.10182ZM85.9083 7.71468C86.2449 9.44776 87.111 9.1455 87.111 9.1455C90.9648 5.87869 92.5061 -1.87675 92.5061 -1.87675C93.4685 -9.52932 91.205 -11.5679 91.205 -11.5679C89.1816 -14.1209 87.6896 -12.0823 87.6896 -12.0823C85.3768 -9.42964 84.751 -4.32364 84.751 -4.32364C84.1743 2.40934 85.9083 7.71468 85.9083 7.71468ZM84.1743 11.1841C84.1743 11.1841 77.9131 19.3479 77.4308 20.8784C76.9487 22.4089 77.3364 23.1292 77.3364 23.1292C77.3364 23.1292 80.0329 26.6982 80.7553 27.3091C81.5248 27.8204 81.2356 28.6371 81.2356 28.6371L81.4285 55.167C81.5248 55.8841 81.4285 57.7169 81.4285 57.7169C81.4285 57.7169 80.3675 59.556 79.7908 60.5753C79.1176 61.7972 79.6451 63.0286 79.6451 63.0286L89.3273 73.3339C89.3273 73.3339 95.8757 63.3341 96.4544 62.8229C97.0311 62.3116 96.4544 61.2923 96.4544 61.2923C96.4544 61.2923 93.6122 57.823 93.1319 57.3117C92.6516 56.7973 92.8445 55.7812 92.8445 55.7812C92.8445 55.7812 92.4587 29.5503 92.7481 27.3059C92.9882 25.1645 93.3248 25.8751 93.3248 25.8751C93.3248 25.8751 94.1909 25.367 94.9624 24.3445C95.6848 23.3253 95.0116 22.4057 95.0116 22.4057C95.0116 22.4057 86.0048 12.4091 85.3316 11.1841C84.6544 9.95901 84.1743 11.1841 84.1743 11.1841ZM44.2711 55.3664C44.2474 55.1638 45.017 70.7777 54.4569 73.3307L60.7181 62.6203C60.7181 62.6203 61.0547 61.3888 61.5368 62.4081L72.1323 73.3307L78.5862 62.6203C78.5862 62.6203 78.8756 61.3888 78.3933 60.167L73.9135 53.8359V27.8139C73.9135 27.8139 73.8663 26.5921 74.2501 26.3895L75.9841 23.4314C75.9841 23.4314 76.2735 22.4089 75.6968 21.0842C75.1653 19.6565 64.6192 8.63748 64.6192 8.63748C64.6192 8.63748 64.2335 7.41565 63.269 8.84005C63.269 8.84005 51.7585 18.6373 47.2313 31.1836C47.2333 31.1836 43.6215 36.0806 44.2711 55.3664ZM53.3016 47.0033C53.5908 48.119 51.3745 40.3667 52.4355 31.8974C52.4355 31.8974 52.5812 24.4507 56.6732 20.6758L62.212 28.3284L62.1156 58.5303C62.1156 58.5303 61.3933 61.0865 59.6119 59.3502C59.6119 59.3502 55.0356 54.5562 53.3016 47.0033ZM318.724 11.9976C318.724 11.9976 312.465 20.0585 311.98 21.6919C311.5 23.2224 311.884 23.9362 311.884 23.9362C311.884 23.9362 314.583 27.5053 315.305 28.0197C316.074 28.5342 315.786 29.4473 315.786 29.4473L315.979 55.9773C316.074 56.6944 315.979 58.5239 315.979 58.5239C315.979 58.5239 314.916 60.2602 314.341 61.2859C313.667 62.5077 314.199 63.7296 314.199 63.7296L323.879 74.1377C323.879 74.1377 330.429 64.138 331.006 63.5238C331.583 63.019 331.006 61.9933 331.006 61.9933C331.006 61.9933 328.211 58.5239 327.684 58.0191C327.2 57.5078 327.393 56.4886 327.393 56.4886C327.393 56.4886 327.009 30.2641 327.295 28.0197C327.538 25.9812 327.877 26.5921 327.877 26.5921C327.877 26.5921 328.74 26.0808 329.514 25.0616C330.237 24.0423 329.56 23.2288 329.56 23.2288C329.56 23.2288 320.553 13.2258 319.879 12.0007C319.254 10.7757 318.724 11.9976 318.724 11.9976ZM222.976 3.32248C221.484 1.58939 222.545 0.769493 222.545 0.769493L230.057 -9.43286C230.441 -10.1467 230.779 -9.1242 230.779 -9.1242L237.619 -0.654932C237.619 -0.654932 246.864 -11.063 247.491 -11.8765C247.875 -12.391 248.213 -11.674 248.213 -11.674L256.018 -2.49089L263.867 -12.899C264.732 -14.4295 264.974 -13.4103 264.974 -13.4103L274.173 -1.97966C274.943 -0.96039 274.604 -0.654932 274.604 -0.654932V52.2057C274.943 58.7297 277.545 61.2891 277.545 61.2891C278.268 62.511 277.929 63.4338 277.929 63.4338L270.847 74.1441C264.732 69.752 264.156 59.2474 264.156 59.2474V8.73074C264.01 6.99766 263.433 6.5893 263.433 6.5893L258.704 1.48329L258.741 23.933H263.819L258.764 39.37L258.796 57.9548L262.328 63.019C262.808 64.244 262.042 64.4466 262.042 64.4466L254.718 74.1377L243.833 61.8936C242.823 60.4596 243.592 59.6461 243.592 59.6461L245.952 56.4854V40.2574H240.769L240.789 61.0898L242.536 63.4306C243.067 64.6524 242.439 65.4659 242.439 65.4659L235.166 74.1377L225.678 63.5238C224.86 62.3984 225.724 61.4917 225.724 61.4917L228.422 58.2249V11.4895L223.22 3.53148L222.976 3.32248ZM258.052 0.853095C256.615 -0.0922225 256.836 1.79839 256.836 1.79839L256.933 22.306V23.9394H258.091L258.052 0.853095ZM258.114 40.2638H256.933V55.2667C256.979 55.6751 257.559 56.1799 257.559 56.1799L258.14 57.0191L258.114 40.2638ZM240.768 37.3603L245.035 23.9362H245.951V8.73074C245.808 7.91726 245.277 7.10053 245.277 7.10053L240.741 2.10066L240.768 37.3603ZM240.088 1.77269C238.759 1.83378 238.681 3.73727 238.681 3.73727L238.581 58.2281C238.581 58.5303 239.015 58.7329 239.015 58.7329L240.134 60.2313L240.088 1.77269ZM278.831 55.3664C278.807 55.1638 279.576 70.7777 289.019 73.3307L295.277 62.6203C295.277 62.6203 295.616 61.3888 296.097 62.4081L306.693 73.3307L313.145 62.6203C313.145 62.6203 313.434 61.3888 312.953 60.167L308.476 53.8359V27.8139C308.476 27.8139 308.43 26.5921 308.814 26.3895L310.547 23.4314C310.547 23.4314 310.836 22.4089 310.26 21.0842C309.729 19.6565 299.18 8.63748 299.18 8.63748C299.18 8.63748 298.796 7.41565 297.831 8.84005C297.831 8.84005 286.32 18.6373 281.793 31.1836C281.79 31.1836 278.181 36.0806 278.831 55.3664ZM287.861 47.0033C288.149 48.119 285.935 40.3667 286.997 31.8974C286.997 31.8974 287.138 24.4507 291.233 20.6758L296.772 28.3284L296.675 58.5303C296.675 58.5303 295.952 61.0865 294.169 59.3502C294.169 59.3502 289.595 54.5562 287.861 47.0033ZM332.354 -3.10182C332.354 -3.10182 342.898 -10.346 344.299 -11.0599C345.645 -11.7737 345.598 -10.3461 345.598 -10.3461C345.598 -10.3461 345.309 54.2475 345.548 56.495C345.79 58.7329 346.27 58.2281 346.27 58.2281C346.27 58.2281 348.727 61.9032 349.258 62.4081C349.835 62.9193 349.545 64.1411 349.545 64.1411L343.576 73.9416C343.576 73.9416 333.845 64.8582 333.076 63.7392C332.112 62.4113 332.738 61.4981 332.738 61.4981L334.472 57.9226C334.472 57.9226 334.759 4.76297 334.279 2.00418C333.798 -0.751387 332.258 -1.76744 332.258 -1.76744C331.921 -3.00214 332.354 -3.10182 332.354 -3.10182ZM320.459 8.53139C320.797 10.2677 321.661 9.959 321.661 9.959C325.517 6.58929 327.057 -1.16295 327.057 -1.16295C328.018 -8.71584 325.755 -10.7544 325.755 -10.7544C323.734 -13.407 322.242 -11.2689 322.242 -11.2689C319.926 -8.61618 319.305 -3.51018 319.305 -3.51018C318.724 3.2228 320.459 8.53139 320.459 8.53139Z" fill="black"/>
<path fill-rule="evenodd" clip-rule="evenodd" d="M171.685 19.8638L172.359 19.15V20.1725L172.6 19.6613L172.887 21.0889L172.503 21.1918L172.746 21.703C173.274 22.5197 172.939 23.2335 172.939 23.2335L172.696 23.6419C171.925 24.2496 172.166 21.703 172.166 21.703L171.925 22.2111L171.637 20.6805H172.024L171.685 19.8638Z" fill="white"/>
<path fill-rule="evenodd" clip-rule="evenodd" d="M170.963 26.2859C171.541 26.3888 171.588 27.3084 171.588 27.3084C171.635 25.5753 172.262 27.1058 172.262 27.1058C172.058 27.2377 171.875 27.4852 171.732 27.8164C171.732 28.8389 172.454 28.8389 172.454 28.8389C173.08 28.1219 172.984 27.3084 172.984 27.3084C173.08 26.183 172.454 26.7971 172.454 26.7971L172.211 25.675L172.597 25.5753V25.167L172.262 24.7554L173.322 23.6364L173.177 24.5528L173.272 24.7554L173.512 24.1445L173.706 25.7779C173.224 25.5753 173.416 26.4917 173.416 26.4917C173.69 27.1187 173.908 27.1766 174.068 27.0415C174.203 26.9032 174.313 26.6718 174.379 26.3888C174.668 25.675 174.332 25.3663 174.332 25.3663C173.948 25.6686 173.899 25.9772 173.899 25.9772C173.706 23.8358 174.234 24.2409 174.234 24.2409C174.092 23.2217 174.234 22.7104 174.234 22.7104C174.621 23.1188 174.668 23.9323 174.668 23.9323C175.245 22.6043 175.341 24.0319 175.341 24.0319C174.571 24.3406 174.908 25.257 174.908 25.257C175.089 25.8615 175.232 25.9579 175.344 25.8068C175.587 25.4692 175.678 23.9194 175.678 23.9194C175.245 22.5915 174.137 22.3535 174.137 22.4886L174.089 23.3181L173.511 23.5207L173.415 22.9098L173.271 22.8101V22.2956C174.667 21.1735 175.921 23.6236 175.921 23.6236L175.968 27.7039C173.896 28.318 171.343 31.8871 171.343 31.8871L170.333 28.2151C170.671 25.257 171.97 23.6236 171.97 23.6236L172.163 24.0319L171.92 24.6429L172.017 25.3567L171.441 26.3792L170.958 25.8647C170.752 26.6428 170.551 27.3952 170.621 28.2151L170.958 29.7456C171.633 30.3566 171.394 28.6235 171.394 28.6235C171.201 28.109 170.958 29.2312 170.958 29.2312C170.525 27.4981 171.104 27.5978 171.104 27.5978C170.865 27.1058 170.963 26.2859 170.963 26.2859ZM155.31 63.6356C154.685 67.105 155.02 71.5936 155.02 71.5936H154.635V65.9796C153.527 65.4683 154.009 64.552 154.009 64.552C154.442 63.3269 155.31 63.6356 155.31 63.6356ZM157.429 73.9408C157.67 74.7543 157.621 75.8797 157.621 75.8797C157.524 75.0662 157.139 75.1627 157.139 75.1627C156.947 73.9408 157.429 73.9408 157.429 73.9408ZM158.344 73.9408C158.585 73.6418 158.585 72.9248 158.585 72.9248C159.116 73.4264 158.778 75.0662 158.778 75.0662C158.682 74.3492 158.344 73.9408 158.344 73.9408ZM157.717 69.9666C158.489 69.658 158.682 71.1885 158.682 71.1885C159.019 71.9055 159.019 70.8798 159.019 70.8798C158.583 68.0181 157.717 69.9666 157.717 69.9666ZM158.776 71.9055C159.016 72.1113 159.113 71.7029 159.113 71.7029C159.306 72.6161 159.063 73.3331 159.063 73.3331C159.016 72.5197 158.776 72.5197 158.776 72.5197V71.9055Z" fill="white"/>
<path fill-rule="evenodd" clip-rule="evenodd" d="M159.354 70.6666C158.873 66.8982 157.621 69.4447 157.621 69.4447C157.284 67.1007 157.767 65.2583 157.767 65.2583C158.489 65.4641 159.451 65.2583 159.451 65.2583C159.691 65.2583 159.595 65.567 159.595 65.567C159.788 67.3998 159.258 67.3998 159.258 67.3998C159.644 68.1168 159.741 67.8081 159.741 67.8081C160.512 68.0107 161.186 64.7535 161.186 64.7535C161.908 64.6506 162.775 65.9753 162.775 65.9753C163.257 66.8981 162.775 67.1972 162.775 67.1972C162.101 66.8982 160.896 67.403 160.896 67.403C160.752 67.6055 160.799 68.2229 160.799 68.2229C160.896 68.8338 160.944 70.8724 160.944 70.8724C160.319 70.5669 159.354 70.6666 159.354 70.6666ZM162.533 59.4417C162.726 57.9112 164.171 56.281 164.171 56.281C164.893 55.6701 165.953 55.1556 165.953 55.1556C167.206 55.2585 168.073 58.1105 168.073 58.1105L167.59 58.924L167.783 59.2327C168.218 58.3131 168.698 59.3388 168.698 59.3388C169.13 59.8404 170.19 60.6636 170.19 60.6636C169.707 62.1844 168.215 61.5767 168.215 61.5767C168.262 63.2166 167.397 64.3291 167.397 64.3291C167.976 65.3548 170.19 66.2776 170.19 66.2776C171.009 63.8243 171.874 65.5606 171.874 65.5606C172.068 65.8596 172.31 66.3709 172.31 66.3709C171.827 66.8853 171.971 68.21 171.971 68.21C171.009 68.6216 168.312 68.6216 168.312 68.6216C165.663 67.7985 164.315 66.3709 164.315 66.3709C164.074 66.0654 164.219 65.6538 164.219 65.6538L164.171 65.0461C164.124 64.3291 164.414 64.4384 164.414 64.4384C165.376 64.1297 166.194 61.8886 166.194 61.8886C166.437 60.6668 165.906 60.8725 165.906 60.8725C164.268 60.67 162.533 59.4417 162.533 59.4417Z" fill="white"/>
<path fill-rule="evenodd" clip-rule="evenodd" d="M171.107 64.4536C171.734 62.6241 172.6 63.846 172.6 63.846C172.793 64.145 172.986 65.0678 172.986 65.0678C172.6 65.0678 172.503 65.7848 172.503 65.7848C172.166 64.3475 171.107 64.4536 171.107 64.4536ZM172.263 68.0195C172.166 67.206 172.505 66.9038 172.505 66.9038C172.697 67.2028 172.889 67.9198 172.889 67.9198C172.696 68.0195 172.263 68.0195 172.263 68.0195ZM172.6 66.2929C173.033 66.7012 173.081 67.8169 173.081 67.8169L173.418 67.7205C173.515 66.1899 173.13 65.3765 173.13 65.3765C172.696 65.4729 172.6 66.2929 172.6 66.2929ZM173.081 63.534C173.324 63.8427 173.274 64.8588 173.274 64.8588C173.611 65.3732 173.708 66.3893 173.708 66.3893C173.949 66.0806 174.333 66.1867 174.333 66.1867C174.141 63.3283 173.081 63.534 173.081 63.534ZM173.804 66.7977L173.852 67.6111L174.38 67.5147C174.429 66.907 174.285 66.4986 174.285 66.4986C173.996 66.3893 173.804 66.7977 173.804 66.7977ZM177.176 44.7595C177.273 45.573 177.176 47.0071 177.176 47.0071C177.03 47.6148 176.646 48.8366 176.646 48.8366L177.32 50.2707L178.959 50.3671C179.152 49.1453 180.112 47.1035 180.112 47.1035C180.739 40.9815 182.327 38.4285 182.327 38.4285V37.9205C181.943 37.7147 181.896 36.898 181.896 36.898C181.889 36.2549 182.034 35.644 182.28 35.2678C182.472 35.6761 182.472 34.9591 182.472 34.9591C182.377 34.7533 182.231 34.7533 182.231 34.7533L182.134 35.1617L181.703 36.5893C181.51 37.914 180.304 41.7917 180.304 41.7917C179.92 42.6117 178.666 45.5666 178.666 45.5666L178.473 45.364C178.044 45.4765 177.176 44.7595 177.176 44.7595ZM179.971 62.0035L180.305 60.7817L180.548 60.8846C180.644 62.3122 181.079 63.3283 181.079 63.3283L181.031 65.3733C180.888 64.6562 180.549 64.6562 180.549 64.6562C180.789 62.8234 179.971 62.0035 179.971 62.0035ZM177.8 71.4889H177.464L176.645 73.4277C176.596 74.5563 175.922 75.0676 175.922 75.0676C177.223 74.865 177.416 73.8457 177.416 73.8457C177.349 74.3763 177.252 74.8875 177.127 75.3666C177.944 74.4567 177.752 74.0515 177.752 74.0515C177.898 73.0258 177.85 72.9262 177.85 72.9262C177.898 72.4117 177.944 72.3152 177.944 72.3152C178.044 71.4889 177.8 71.4889 177.8 71.4889ZM178.379 72.312C178.91 72.5146 179.197 72.4085 179.197 72.4085C179.874 73.7332 179.152 75.6721 179.152 75.6721C178.959 74.7492 179.056 74.3473 179.056 74.3473C179.152 73.8425 178.959 73.2219 178.959 73.2219C178.668 74.0419 178.859 75.4695 178.859 75.4695C178.282 74.955 178.141 73.7332 178.141 73.7332C178.141 72.9262 178.379 72.312 178.379 72.312ZM183.771 60.473L184.207 59.7624C184.4 60.7817 184.066 61.7978 184.066 61.7978C184.007 61.3219 183.906 60.8718 183.771 60.473ZM183.099 61.7978C183.245 61.4987 183.437 60.8846 183.437 60.8846C183.724 61.7978 183.579 63.0293 183.579 63.0293C183.34 62.7206 183.437 62.9232 183.437 62.9232L183.099 61.7978Z" fill="white"/>
<path fill-rule="evenodd" clip-rule="evenodd" d="M182.954 51.4928V54.9622C184.353 54.6536 184.207 56.9011 184.207 56.9011C184.784 57.3126 184.4 59.4509 184.4 59.4509C184.643 60.6791 184.355 62.1068 184.355 62.1068C185.077 65.6726 187.243 67.0038 187.243 67.0038L187.146 51.39L182.954 51.4928ZM182.666 45.3676L182.716 47.4125C181.942 50.8819 182.377 55.5731 182.377 55.5731C182.21 55.6278 182.066 55.8561 181.993 56.1808C181.462 48.8369 182.666 45.3676 182.666 45.3676ZM185.748 65.9845L185.699 73.6435L187.241 76.2897L188.543 73.8461V66.9073L188.012 67.0038V72.9265L187.241 74.756L186.375 73.428V66.9073L185.748 65.9845Z" fill="white"/>
<path fill-rule="evenodd" clip-rule="evenodd" d="M187.192 69.5417C187.334 69.5417 187.434 69.3391 187.434 68.934C187.434 68.5289 187.334 68.2234 187.192 68.2234C187.096 68.2234 186.999 68.5256 186.999 68.934C186.999 69.3423 187.098 69.5417 187.192 69.5417ZM187.627 71.1815C187.724 71.1815 187.82 70.8728 187.82 70.5738C187.82 70.1655 187.724 69.8568 187.627 69.8568C187.482 69.8568 187.384 70.1655 187.384 70.5738C187.384 70.8728 187.482 71.1815 187.627 71.1815ZM187.24 72.4033C187.336 72.4033 187.436 72.1043 187.436 71.7957C187.436 71.487 187.336 71.1847 187.24 71.1847C187.098 71.1847 187.002 71.487 187.002 71.7957C187.002 72.1043 187.098 72.4033 187.24 72.4033ZM186.856 71.0722C187.002 71.0722 187.098 70.7732 187.098 70.3648C187.098 70.0561 187.002 69.7475 186.856 69.7475C186.714 69.7475 186.618 70.0561 186.618 70.3648C186.618 70.7732 186.712 71.0722 186.856 71.0722ZM182.715 62.8151C182.665 61.9952 182.856 61.8955 182.856 61.8955C183.049 62.9116 183.437 63.5257 183.437 63.5257V63.4293C183.578 64.1367 184.014 64.8537 184.014 64.8537C184.062 65.5707 183.725 65.5707 183.725 65.5707C183.099 64.4453 182.715 62.8151 182.715 62.8151ZM183.675 63.4261C183.917 62.8151 183.868 62.2975 183.868 62.2975C184.014 62.8119 184.109 62.8119 184.109 62.8119L184.255 62.6061L184.543 63.5193C184.205 63.6254 184.011 64.4421 184.011 64.4421C183.725 64.1335 183.675 63.4261 183.675 63.4261ZM181.895 64.3392L182.231 65.3649C182.231 64.9566 182.326 64.6479 182.326 64.6479L182.715 63.8344L182.522 63.1174L182.133 64.037C182.038 64.1335 181.895 64.3392 181.895 64.3392ZM181.366 62.5065L181.654 63.3199C181.702 62.9116 181.8 62.8151 181.8 62.8151L182.279 61.8955L181.992 61.4872L181.366 62.5065ZM180.162 51.1755V52.3009L180.303 52.2012L181.027 52.0983L180.162 54.2365L180.739 55.0565H181.557V54.2365H180.693L181.557 52.2012V51.2816L181.411 51.3813H180.303L180.162 51.1755ZM180.258 48.6289L180.209 49.645L180.303 49.4424L181.411 49.7511L181.557 50.1595L181.654 48.9376H181.461L180.45 48.6289L180.258 48.3235V48.6289ZM181.121 43.121L181.461 43.629L181.218 43.8316C180.834 44.5454 181.077 44.9538 181.077 44.9538C181.315 45.2624 181.364 44.6515 181.364 44.6515C181.748 43.5294 182.038 44.1371 182.038 44.1371C182.522 44.8509 182.184 45.9763 182.184 45.9763L182.038 46.3846L181.992 46.6901L181.608 46.3846L181.801 46.0791C181.994 45.7705 181.942 45.2689 181.942 45.2689C181.847 44.3461 181.608 45.2689 181.608 45.2689C181.027 46.4907 180.74 45.1628 180.74 45.1628C180.496 44.2367 181.121 43.121 181.121 43.121ZM182.522 39.7513V40.568C181.941 40.2594 181.989 41.4844 181.989 41.4844C182.132 42.912 182.616 42.7062 182.616 42.7062V43.3204C181.939 43.5229 181.701 42.195 181.701 42.195C181.461 39.8542 182.522 39.7513 182.522 39.7513ZM182.953 50.973H187.143V37.9154L182.762 37.8124L182.953 50.973ZM182.618 24.9542C183.728 22.9028 185.072 21.4945 186.515 20.8707V22.9092C185.075 22.5073 182.618 24.9542 182.618 24.9542ZM187.82 20.9768V22.8095C190.804 22.607 192.203 25.3626 192.203 25.3626C190.418 20.7678 187.82 20.9768 187.82 20.9768ZM186.759 20.8707V22.9157H187.579V20.8707H186.759ZM181.411 26.2789C181.124 23.4237 182.133 24.5458 182.133 24.5458L181.411 26.2789ZM182.472 24.0378C182.376 21.0797 183.291 22.7099 183.291 22.7099L182.472 24.0378ZM183.771 22.0989C183.725 19.1408 184.639 20.8739 184.639 20.8739L183.771 22.0989ZM185.025 20.6713C185.219 16.7936 185.99 19.8546 185.99 19.8546L185.025 20.6713ZM186.518 18.7292H187.82C188.013 19.3402 187.627 20.2598 187.627 20.2598C187.192 20.5684 186.759 20.1569 186.759 20.1569C186.085 19.8546 186.518 18.7292 186.518 18.7292ZM186.566 14.1377H187.82L187.436 15.3628L187.674 15.874L187.963 15.0541L188.011 17.6071L187.384 16.5878L187.674 18.1183L186.566 18.0154L187.046 16.7904L186.905 16.4849L186.421 17.4013L186.374 14.9544L186.856 15.874L187.002 15.5653L186.566 14.1377ZM191.96 23.2179L192.682 24.6487C192.925 21.4848 191.96 23.2179 191.96 23.2179ZM191.576 22.607L190.708 21.5845C191.717 19.4463 191.576 22.607 191.576 22.607ZM189.457 20.0572L190.322 20.8739C190.322 17.71 189.457 20.0572 189.457 20.0572ZM189.119 19.9543C189.023 18.5234 188.639 18.5235 188.639 18.5235C188.204 18.3209 188.155 19.8482 188.155 19.8482L189.119 19.9543ZM182.715 35.5681C187.336 33.6293 191.479 35.5681 191.479 35.5681C192.056 35.7707 191.817 36.6903 191.817 36.6903C191.383 36.9925 191.192 36.79 191.192 36.79C187.627 35.2595 182.859 37.0986 182.859 37.0986C182.137 37.1983 182.282 36.4845 182.282 36.4845C182.426 35.3623 182.715 35.5681 182.715 35.5681ZM187.384 37.9154V51.0823H191.383L191.526 37.9154H187.384ZM191.383 51.4842H187.384L187.434 67.098C189.649 66.2845 190.275 63.4261 190.275 63.4261C190.371 61.9888 191.38 56.0757 191.38 56.0757V51.4842H191.383ZM188.878 66.6929V68.2234C189.746 69.4452 190.804 70.0561 190.804 70.0561C191.239 69.7475 191.046 68.9308 191.046 68.9308C190.905 68.6864 190.741 68.516 190.565 68.4259C189.65 68.2234 188.878 66.6929 188.878 66.6929ZM190.373 63.7283L190.611 64.2428L189.746 66.8986L189.6 66.1816L190.373 63.7283ZM190.802 64.5514L189.987 66.9951C191.238 68.7282 191.96 64.6511 191.96 64.6511C191.238 65.0562 190.802 64.5514 190.802 64.5514ZM191.625 44.5454V46.9988C192.056 48.629 192.153 52.0983 192.153 52.0983L192.54 50.6707C192.491 47.0952 191.625 44.5454 191.625 44.5454ZM188.829 72.8085V73.9339C189.213 74.6509 190.225 75.1557 190.225 75.1557C190.468 74.9499 190.225 74.2426 190.225 74.2426C189.65 74.2426 188.829 72.8085 188.829 72.8085Z" fill="white"/>
<path fill-rule="evenodd" clip-rule="evenodd" d="M190.418 72.4113L190.661 70.5818C191.479 70.4757 191.192 68.5369 191.192 68.5369C191.865 68.1285 192.633 65.4758 192.633 65.4758L192.83 66.5016L193.117 67.7234C193.259 68.3343 193.355 68.6462 193.309 68.6462L192.875 69.4597V68.9452L192.056 70.4757L192.344 67.1092L191.575 70.8809C191.141 71.9066 190.418 72.4113 190.418 72.4113ZM190.564 73.3342C191.238 75.4756 193.455 75.4756 193.455 75.4756C193.214 74.2538 192.587 73.7425 192.587 73.7425C193.552 72.929 194.419 74.7586 194.419 74.7586C194.95 75.7843 195.525 75.7843 195.525 75.7843C195.387 75.3663 195.226 74.9901 195.044 74.6589C195.331 74.9579 195.621 74.7554 195.621 74.7554C195.287 73.5335 194.322 72.4113 194.322 72.4113C195.334 71.286 196.202 73.8454 196.202 73.8454C196.633 75.1637 197.02 75.4756 197.02 75.4756L196.729 73.4339C197.02 75.273 198.173 75.7843 198.173 75.7843C198.319 75.4756 198.173 74.8647 198.173 74.8647C197.84 74.8647 197.548 73.8454 197.548 73.8454L197.503 71.8037C196.442 71.495 196.442 70.2732 196.442 70.2732C196.587 68.4404 197.357 68.2378 197.357 68.2378L197.261 65.8842C197.887 64.6624 199.092 65.3794 199.092 65.3794C198.994 63.9453 198.465 64.3537 198.465 64.3537C198.465 63.238 197.843 63.1318 197.843 63.1318V63.4405L196.105 66.3022C196.348 69.1542 195.721 70.0706 195.721 70.0706C194.519 71.7104 193.652 69.4629 193.652 69.4629L192.976 70.3857C193.601 70.4789 194.036 71.7104 194.036 71.7104L193.941 71.9162C193.63 71.3792 193.267 70.9966 192.878 70.7876L192.302 71.2924L192.015 71.8069L190.564 73.3342Z" fill="white"/>
<path fill-rule="evenodd" clip-rule="evenodd" d="M194.416 63.0239C194.949 61.384 195.185 58.7313 195.185 58.7313L195.383 59.2458L195.096 61.1847L195.288 61.593L195.622 59.9628L195.865 60.5705L195.481 61.8985L195.768 62.4033L196.152 61.2843L196.395 61.6927L195.864 62.8181L196.102 63.5286L196.536 62.101L196.874 62.6155L196.298 63.8373L196.536 64.2457L197.117 63.2264L197.31 63.5286L195.911 65.9788C195.428 63.7312 194.416 63.0239 194.416 63.0239ZM199.377 65.4675C200.583 64.8566 199.573 63.5286 199.573 63.5286C198.512 62.7152 198.366 63.1203 198.366 63.1203C198.755 63.429 198.705 63.9338 198.705 63.9338C199.234 64.0399 199.377 65.4675 199.377 65.4675ZM199.425 67.9176L199.861 65.6701C199.184 66.1846 198.755 65.8759 198.755 65.8759C198.032 65.6701 197.739 66.0785 197.739 66.0785C197.308 66.5929 197.647 66.6958 197.647 66.6958C198.173 67.8115 199.425 67.9176 199.425 67.9176ZM200.822 67.6058L201.063 68.2263L202.221 67.4064L201.544 68.4321L202.798 68.6347L202.221 66.7923L200.822 67.6058ZM197.355 22.5102C197.258 20.6742 196.779 19.8575 196.779 19.8575C196.248 19.1437 196.202 19.7578 196.202 19.7578C196.202 20.6742 196.536 20.9797 196.536 20.9797L197.355 22.5102ZM198.462 23.9346C198.365 22.8124 198.319 22.7128 198.319 22.7128C198.126 21.999 197.981 21.5906 197.981 21.5906L197.355 20.6743C197.548 21.491 197.597 22.5102 197.597 22.5102L198.462 23.9346ZM198.51 22.3044C198.797 23.3269 198.753 24.1404 198.753 24.1404L199.523 25.7738C199.523 24.1404 199.139 23.1211 199.139 23.1211L198.512 22.1019V22.3044H198.51ZM197.02 33.6322C196.682 34.0405 196.44 33.8347 196.44 33.8347C196.44 34.8572 197.308 34.8572 197.308 34.8572C197.647 34.8572 197.934 34.1434 197.934 34.1434V33.7351C197.647 34.1434 197.308 34.2495 197.308 34.2495L197.02 33.6322ZM198.078 40.6706L198.173 39.9568C199.089 39.4456 198.416 38.0179 198.416 38.0179C198.755 37.7125 198.85 37.9183 198.85 37.9183C199.281 37.4038 199.427 38.5259 199.427 38.5259C199.767 37.9182 200.004 38.3234 200.004 38.3234C199.281 39.7542 200.149 40.2623 200.149 40.2623C200.585 40.2623 200.682 39.3459 200.682 39.3459C200.489 38.9311 200.439 38.6321 200.439 38.6321C200.582 38.7478 200.712 38.9182 200.823 39.1401C200.778 38.526 201.066 38.5259 201.066 38.5259C201.207 39.0404 201.162 39.4456 201.162 39.4456C201.307 39.1401 201.597 39.4456 201.597 39.4456C201.162 40.4648 201.738 41.3844 201.738 41.3844C202.415 42.1979 202.319 39.8539 202.319 39.8539C202.799 39.8539 202.751 40.7703 202.751 40.7703L203.042 40.2623C203.137 40.8732 203.137 41.2848 203.137 41.2848C203.33 40.7703 203.619 41.1851 203.619 41.1851C202.845 42.2011 203.376 43.1239 203.376 43.1239C203.619 43.5323 203.811 43.2236 203.811 43.2236L203.766 42.5098L204.388 42.7156L203.766 44.2461C200.486 40.2623 198.078 40.6706 198.078 40.6706ZM199.573 23.6324L200.195 24.4491C200.149 25.2658 199.811 26.0793 199.811 26.0793C199.907 25.2658 199.573 23.6324 199.573 23.6324ZM202.555 24.4491C203.858 23.7353 204.725 27.404 204.725 27.404L203.764 26.5905C203.374 25.6709 202.555 24.4491 202.555 24.4491ZM203.858 27.2014C204.145 28.0181 204.289 29.3429 204.289 29.3429C204.628 30.1628 205.593 31.3878 205.593 31.3878C205.35 28.0181 203.858 27.2014 203.858 27.2014ZM204.482 30.5711C206.17 31.8959 205.64 35.6707 205.64 35.6707C205.397 34.3427 204.966 33.9344 204.966 33.9344C204.482 32.9184 204.482 30.5711 204.482 30.5711ZM204.773 34.5485C204.819 35.3652 204.676 36.7929 204.676 36.7929C204.915 37.6096 205.107 39.2398 205.107 39.2398C205.302 38.8314 205.543 36.3845 205.543 36.3845C205.397 35.2656 204.773 34.5485 204.773 34.5485ZM204.581 37.8154C204.481 38.9343 203.904 40.9761 203.904 40.9761L204.145 41.587L204.434 41.9953C205.253 39.7542 204.581 37.8154 204.581 37.8154ZM214.501 70.9787L214.07 67.5093C213.732 66.3839 213.202 67.1009 213.202 67.1009C212.767 67.8115 212.237 67.4032 212.237 67.4032C211.66 67.1974 212.141 66.3839 212.141 66.3839C212.914 65.3678 213.682 64.8534 213.682 64.8534C214.263 65.3678 215.319 65.2617 215.319 65.2617C216.234 64.9627 216.042 66.5897 216.042 66.5897C216.092 68.1202 215.849 70.7761 215.849 70.7761C215.272 70.7761 214.501 70.9787 214.501 70.9787ZM216.042 71.6989L216.284 72.2005L215.562 74.9529L215.224 74.5445C215.703 73.731 216.042 71.6989 216.042 71.6989ZM216.476 72.4063L215.899 75.0622C216.955 75.4705 217.729 73.9368 217.729 73.9368L217.584 72.3066C217.052 72.8114 216.476 72.4063 216.476 72.4063ZM218.644 71.2809C218.883 71.3838 219.367 71.7922 219.367 71.7922C219.559 69.9626 219.124 67.7118 219.124 67.7118C219.943 68.3195 219.943 67.6058 219.943 67.6058C220.185 66.1813 219.367 65.7762 219.367 65.7762C217.967 64.8534 217.486 65.0592 217.486 65.0592C217.584 65.8727 217.536 66.3839 217.536 66.3839C217.58 66.5897 217.58 67.4032 217.58 67.4032C218.931 68.4321 218.644 71.2809 218.644 71.2809ZM191.672 39.6545V40.4648L192.153 39.7542L191.672 42.1014L191.625 43.5323L192.394 40.0565L192.153 39.1401L191.672 39.6545ZM191.818 44.0403H192.01L193.021 42.4037L193.117 41.9953L193.355 43.1239H193.214L192.299 44.6545L192.44 45.4712L192.684 45.9792L192.346 46.2846L191.818 44.0403ZM192.684 48.5322L192.83 49.754L193.068 49.4454L193.455 49.1431L193.791 49.6479H194.27L193.693 48.8312L194.129 47.8151L193.936 46.5933L193.839 47.0981L193.407 48.3264L192.83 48.6319L192.684 48.5322ZM193.455 55.7764C193.214 55.8793 193.31 56.1848 193.31 56.1848C193.791 57.5095 194.08 56.3873 194.08 56.3873C194.226 55.7796 194.176 55.3713 194.176 55.3713L194.035 55.2748C194.035 56.4967 193.747 56.188 193.747 56.188C193.552 56.1783 193.455 55.7764 193.455 55.7764ZM192.926 57.7088L192.83 59.04L193.021 59.757L193.117 58.5288L193.598 59.04L193.355 60.0593L193.214 60.1622L193.552 60.5705L193.886 58.9307L194.032 58.5288H193.886L192.926 57.5095V57.7088ZM183.438 68.9369C183.34 69.7504 183.002 69.6539 183.002 69.6539L182.471 68.3292C182.132 67.2006 182.425 66.9016 182.425 66.9016L183.099 64.8566C183.246 65.0527 183.365 65.3357 183.438 65.6701L182.953 66.998C182.811 67.7151 183.049 67.9176 183.049 67.9176L183.438 68.9369Z" fill="white"/>
<path fill-rule="evenodd" clip-rule="evenodd" d="M184.11 64.6521C184.304 66.3852 183.484 65.9769 183.484 65.9769C183.198 67.1987 183.63 67.1987 183.63 67.1987C184.304 67.3016 184.545 65.874 184.545 65.874C184.545 64.964 184.11 64.6521 184.11 64.6521ZM198.365 36.3891L197.788 35.2669C197.788 35.2669 198.267 34.4502 198.172 33.4309C198.172 33.4309 198.51 33.3313 197.838 33.3313L197.595 33.6367C197.595 33.6367 197.352 33.4309 197.308 33.1223L197.211 31.9004L197.647 30.7815L198.031 30.8812C198.311 30.0677 199.041 28.6786 199.664 27.5532L199.861 28.0227C199.618 29.1449 199.906 29.4503 199.906 29.4503C200.289 29.9616 200.438 28.9423 200.438 28.9423C200.822 29.3506 200.679 28.8394 200.679 28.8394C200.292 28.6561 199.861 27.5726 199.78 27.3507C200.275 26.46 200.679 25.7784 200.679 25.7784C200.917 24.6594 201.306 24.145 201.306 24.145C201.063 23.5372 200.87 21.9006 200.87 21.9006C202.074 21.9006 202.266 24.5533 202.266 24.5533C205.975 30.7815 203.665 40.5755 203.665 40.5755C202.555 38.6366 200.052 37.4116 200.052 37.4116C200.391 35.9839 201.205 35.0644 201.205 35.0644C202.797 35.1673 202.555 31.0837 202.555 31.0837C202.221 29.6529 202.316 31.7975 202.316 31.7975C201.639 36.4888 199.906 32.312 199.906 32.312C199.712 32.0033 199.906 33.0226 199.906 33.0226C200.002 33.5338 200.099 33.4309 200.099 33.4309L200.245 33.7364L199.041 34.7589C198.849 35.373 198.51 36.3923 198.51 36.3923H198.365V36.3891ZM175.971 28.3281C173.949 28.7365 171.494 32.5113 171.494 32.5113C171.204 32.9197 171.157 32.8136 171.157 32.8136C170.674 34.6496 171.687 35.4663 171.687 35.4663C171.548 37.1447 171.685 38.8714 172.072 40.3633C172.505 41.4887 172.602 44.3471 172.602 44.3471C172.939 43.8327 173.034 42.7105 173.034 42.7105C173.42 46.1766 174.672 46.8937 174.672 46.8937C175.001 47.048 175.282 47.4917 175.444 48.1155C175.587 47.0995 175.54 46.0802 175.54 46.0802C175.684 47.4082 176.262 48.1155 176.262 48.1155C176.359 46.8937 176.552 45.7715 176.552 45.7715C176.985 43.8359 176.648 41.897 176.648 41.897C176.842 42.6108 177.274 42.8166 177.274 42.8166C176.985 40.9806 177.274 39.4469 177.274 39.4469C177.42 37.6109 177.082 36.3859 177.082 36.3859L176.989 35.6463C176.78 36.9325 176.886 38.9356 176.886 38.9356C176.646 38.836 176.405 38.6334 176.405 38.6334C176.551 40.4662 175.971 42.9163 175.971 42.9163C175.635 44.0384 175.585 44.8551 175.585 44.8551C175.153 43.6333 173.804 42.8166 173.804 42.8166C173.587 42.2411 173.394 41.6269 173.227 40.9806C173.034 41.6944 172.841 41.4951 172.841 41.4951C172.697 40.4726 172.265 39.2443 172.265 39.2443C171.928 38.0225 171.928 36.7974 171.928 36.7974C172.363 38.5337 172.508 38.9421 172.508 38.9421C172.845 39.3536 172.845 40.7749 172.845 40.7749C173.133 40.4726 173.18 39.7588 173.18 39.7588C173.855 42.1028 174.77 42.5143 174.77 42.5143C175.156 42.9227 175.493 43.6365 175.493 43.6365C175.54 42.0031 175.83 41.2925 175.83 41.2925C176.406 39.4533 176.069 37.2122 176.069 37.2122C176.195 37.7942 176.447 38.2122 176.745 38.3311C176.648 37.4148 176.698 36.5981 176.698 36.5981C176.777 35.9389 176.812 35.0097 176.828 34.2959L176.698 33.2284C176.408 31.9004 176.361 30.984 176.361 30.984C176.837 29.1416 175.971 28.3281 175.971 28.3281ZM173.996 37.4051C174.38 38.5273 174.913 38.9356 174.913 38.9356C175.2 37.6109 175.106 36.5949 175.106 36.5949C174.672 36.6946 174.479 36.3891 174.479 36.3891C174.333 37.5113 173.996 37.4051 173.996 37.4051ZM172.118 32.9197C172.793 33.3281 173.033 32.7139 173.033 32.7139C173.755 32.103 173.852 33.7364 173.852 33.7364C173.852 34.4502 173.996 34.9582 173.996 34.9582C174.204 35.0032 174.572 34.8618 174.72 34.5499C174.913 34.0386 174.623 33.5274 174.623 33.5274C174.526 32.8136 174.43 32.4052 174.43 32.4052C174.43 30.7718 174.962 30.8747 174.962 30.8747C175.298 30.9776 175.538 30.2638 175.538 30.2638C175.591 31.0869 175.373 31.8876 175.009 32.2027C174.672 32.7139 174.767 33.3281 174.767 33.3281C175.103 34.5499 174.814 34.6528 174.814 34.6528C174.748 34.9936 174.608 35.2444 174.44 35.3312C174.591 36.1801 174.96 36.0836 174.96 36.0836C175.49 35.4759 175.49 34.2509 175.49 34.2509C175.729 35.6753 175.49 36.0836 175.49 36.0836C175.729 37.0032 175.344 37.4116 175.344 37.4116C175.344 39.1446 174.91 39.9646 174.91 39.9646C173.272 37.9228 173.225 35.5756 173.225 35.5756C173.755 37.5145 174.285 36.5981 174.285 36.5981C174.389 36.373 174.367 35.7203 174.347 35.3795C174.118 35.4663 173.899 35.3762 173.899 35.3762C173.609 34.5595 173.658 33.9486 173.658 33.9486C173.417 32.8232 173.272 33.746 173.272 33.746C172.407 34.8553 172.118 32.9197 172.118 32.9197ZM160.992 68.0154C162.341 69.7517 167.304 69.7517 167.304 69.7517C172.071 69.8546 174.672 68.4334 174.672 68.4334C175.248 68.4334 176.214 67.5106 176.214 67.5106C176.406 67.4077 176.308 68.2276 176.308 68.2276C176.021 70.5716 176.261 72.9221 176.261 72.9221C176.261 74.5523 175.443 74.4526 175.443 74.4526C168.459 76.4847 162.872 75.4686 162.872 75.4686C161.235 74.8609 161.186 73.0153 161.186 73.0153C161.572 70.1633 161.042 68.5299 161.042 68.5299C160.846 68.2276 160.992 68.0154 160.992 68.0154ZM162.534 74.041L162.68 73.7324V70.7774L162.583 70.263C163.642 70.1697 163.979 71.0765 163.979 71.0765C164.701 73.6327 163.448 74.2468 163.448 74.2468C163.139 74.3722 162.822 74.3015 162.534 74.041ZM164.941 70.6713L165.663 70.7774C165.471 70.98 165.519 71.5909 165.519 71.5909L165.472 74.3432L165.665 74.951L164.894 74.8545C165.087 74.5458 165.087 74.3432 165.087 74.3432V71.3851C165.087 70.98 164.941 70.6713 164.941 70.6713ZM163.159 70.7774L163.112 73.6391C163.642 73.7323 163.739 72.8159 163.739 72.8159C163.835 72.3111 163.642 71.5941 163.642 71.5941C163.449 70.7774 163.159 70.7774 163.159 70.7774ZM166.434 70.98H167.83L167.877 71.7002C167.685 71.4848 167.445 71.4848 167.445 71.4848H167.155V72.6134H167.301L167.638 72.4076L167.591 73.3304L167.351 73.2243H167.157V74.4558H167.493C167.686 74.4558 167.83 74.1471 167.83 74.1471V74.9606L166.771 74.8641H166.483C166.434 74.758 166.483 74.758 166.483 74.758C166.578 74.758 166.675 74.5555 166.675 74.5555V71.3948C166.628 71.1858 166.434 70.98 166.434 70.98ZM168.601 70.8771L169.324 70.98C169.28 71.1375 169.246 71.3079 169.228 71.4848V73.5298C169.275 74.3433 169.565 74.2468 169.565 74.2468C169.902 74.1439 169.853 73.2211 169.853 73.2211V71.1858L169.758 70.98H170.287C170.24 71.0764 170.24 71.2822 170.24 71.2822V73.4237C170.19 74.7516 169.518 74.8609 169.518 74.8609C168.796 74.7548 168.796 73.3304 168.796 73.3304V71.2854C168.745 71.1214 168.679 70.9832 168.601 70.8771ZM172.118 70.4688L173.272 70.263L173.417 70.98C173.272 70.8771 173.08 70.8771 173.08 70.8771H172.793V71.9028H173.08C173.127 71.7999 173.225 71.7002 173.225 71.7002L173.272 72.6134C173.177 72.4076 173.08 72.4076 173.08 72.4076H172.793V73.533H173.13C173.225 73.533 173.371 73.2243 173.371 73.2243V73.9413L172.263 74.25L172.359 74.0475L172.312 70.7806C172.31 70.5716 172.118 70.4688 172.118 70.4688ZM174.191 70.0604L174.238 70.8739C174.333 70.4623 174.67 70.4623 174.67 70.4623L174.717 73.4204L174.622 73.6327L175.198 73.4204L175.101 73.324L175.054 70.3691C175.341 70.1633 175.487 70.4623 175.487 70.4623L175.44 69.652L175.391 69.7453L174.285 69.9607H174.188V70.0604H174.191ZM176.982 66.7936C176.645 65.4688 176.884 64.5557 176.884 64.5557C177.174 62.7165 177.992 62.9159 177.992 62.9159C178.473 63.5236 178.428 62.7133 178.428 62.7133C178.907 61.2857 179.484 62.1024 179.484 62.1024C179.643 62.5171 179.863 62.8065 180.111 62.9159C180.449 63.8387 180.256 64.3435 180.256 64.3435C180.231 64.665 180.266 64.9962 180.352 65.2631C180.788 65.4688 180.736 66.4946 180.736 66.4946C180.833 67.6103 180.495 69.4495 180.495 69.4495C180.206 69.9639 179.873 69.5459 179.873 69.5459C179.63 69.6521 179.727 69.8546 179.727 69.8546C179.97 70.6681 179.727 71.0765 179.727 71.0765C179.343 71.9993 178.812 71.8996 178.812 71.8996C178.042 71.8996 177.992 71.0765 177.992 71.0765C177.897 70.3691 177.464 70.3691 177.464 70.3691C176.837 69.9607 176.789 68.6328 176.789 68.6328C176.742 67.9157 176.982 67.6071 176.982 67.6071C177.223 67.308 176.982 66.7936 176.982 66.7936ZM178.282 67.7164C178.475 69.2469 178.044 69.861 178.044 69.861C177.657 69.9639 177.608 69.3466 177.608 69.3466C177.608 68.7389 177.367 68.636 177.367 68.636C177.223 67.4077 177.513 67.4077 177.513 67.4077C177.995 67.1023 178.282 67.7164 178.282 67.7164ZM179.197 67.1022C179.294 68.1215 179.971 68.935 179.971 68.935C180.305 68.935 180.164 67.9157 180.164 67.9157C179.971 67.4045 180.067 67.1022 180.067 67.1022C180.548 66.8997 180.209 65.9769 180.209 65.9769C179.294 65.4688 179.197 67.1022 179.197 67.1022ZM178.525 65.4688C178.525 63.53 177.944 63.6361 177.944 63.6361C177.657 63.7326 177.657 64.3467 177.657 64.3467C177.752 65.3724 177.56 65.3724 177.56 65.3724C177.127 65.575 177.416 66.5942 177.416 66.5942C177.56 67.0026 177.657 66.9029 177.657 66.9029C178.089 66.9029 178.428 66.3884 178.428 66.3884C178.666 66.2888 178.525 65.4688 178.525 65.4688ZM179.152 63.3242C179.294 63.9351 179.536 63.8387 179.536 63.8387C180.067 63.8387 179.728 64.964 179.728 64.964C179.442 65.7775 179.056 65.8772 179.056 65.8772C178.525 64.5589 178.572 63.8419 178.572 63.8419C178.572 62.2021 179.152 63.3242 179.152 63.3242ZM178.813 68.2276C179.536 68.4334 179.487 70.0604 179.487 70.0604C179.294 70.7774 179.103 70.4688 179.103 70.4688C178.86 69.9639 178.719 70.3723 178.719 70.3723C178.719 71.2854 178.381 70.6713 178.381 70.6713C178.186 68.5299 178.813 68.2276 178.813 68.2276Z" fill="white"/>
<path fill-rule="evenodd" clip-rule="evenodd" d="M179.484 72.3091C180.206 71.9007 180.206 70.4699 180.206 70.4699C180.265 70.4313 180.32 70.3767 180.371 70.3059C180.9 71.0069 181.026 71.9039 181.026 71.9039C181.218 72.1097 181.51 73.1258 181.51 73.1258C181.461 71.8011 181.171 71.4859 181.171 71.4859C181.063 70.8429 180.887 70.2609 180.655 69.785C181.025 68.8108 181.026 67.3092 181.026 67.3092C181.557 66.9008 182.038 68.3252 182.038 68.3252C181.843 68.531 181.654 68.4313 181.654 68.4313C182.426 69.1387 182.279 71.6949 182.279 71.6949C181.941 71.6949 181.799 71.3863 181.799 71.3863C182.376 72.8139 181.799 75.5727 181.799 75.5727C181.218 75.0614 181.121 73.6338 181.121 73.6338C181.218 74.6531 181.026 74.9521 181.026 74.9521C180.546 74.7463 180.352 73.4216 180.352 73.4216C180.303 74.6531 180.013 74.1386 180.013 74.1386C179.872 73.936 179.872 73.219 179.872 73.219C179.632 73.1258 179.484 72.3091 179.484 72.3091ZM185.505 71.1869C185.307 71.0905 185.112 70.9554 184.924 70.785C184.804 71.4795 184.486 73.1644 184.109 74.0422C184.109 74.0422 184.537 72.2255 184.788 70.6564C184.366 70.2416 183.976 69.6982 183.63 69.0423C183.581 70.5728 182.81 69.7529 182.81 69.7529C182.426 71.2834 183.146 71.7014 183.146 71.7014C183.725 71.5953 184.014 70.8783 184.014 70.8783C184.686 70.5792 184.206 71.7014 184.206 71.7014C183.964 72.203 183.437 72.4087 183.437 72.4087C182.715 72.9232 183.099 74.145 183.099 74.145C183.482 75.2704 183.868 74.8621 183.868 74.8621C184.206 74.9553 184.206 75.4698 184.206 75.4698C184.448 76.6916 184.832 75.981 184.832 75.981C185.267 74.9553 185.024 73.9393 185.024 73.9393C184.783 72.6145 184.929 72.1097 184.929 72.1097C184.783 70.2705 185.17 71.5953 185.17 71.5953C185.267 71.904 185.364 72.7207 185.364 72.7207C185.505 73.4313 185.557 72.9265 185.557 72.9265L185.505 71.1869ZM177.995 62.4057L178.282 61.2868C178.236 60.0553 177.656 59.3479 177.656 59.3479C177.559 59.7563 177.656 60.2611 177.656 60.2611C177.367 59.348 176.5 58.7306 176.5 58.7306C176.404 59.2419 176.5 60.2611 176.5 60.2611C176.066 58.5248 175.151 58.4283 175.151 58.4283C175.151 59.2418 175.344 59.7563 175.344 59.7563C174.91 59.0393 174.042 59.2418 174.042 59.2418C174.187 61.081 174.91 62.3029 174.91 62.3029L174.814 62.8173C174.284 61.9942 174.14 62.6115 174.14 62.6115C174.093 62.708 174.14 62.9138 174.14 62.9138C174.428 63.9299 175.489 64.8526 175.489 64.8526C175.199 65.0552 175.102 65.5697 175.102 65.5697C175.489 67.1999 176.644 67.1002 176.644 67.1002C176.492 65.9877 176.503 64.8044 176.673 63.7048C176.552 63.544 175.898 62.663 175.682 62.2C175.682 62.2 175.489 61.6952 175.105 60.9781L174.43 59.8528C174.43 59.8528 174.961 60.2611 175.345 60.8785C175.345 60.8785 176.209 62.4347 176.832 63.1164C177.313 62.1389 177.995 62.4057 177.995 62.4057ZM197.646 67.7175C197.933 70.2641 197.739 73.6403 197.739 73.6403C203.135 78.0228 212.381 75.3637 212.381 75.3637C213.921 74.9553 213.973 74.4537 213.973 74.4537C214.549 74.3476 214.454 72.5117 214.454 72.5117C214.115 71.5921 213.921 67.9169 213.921 67.9169C212.667 69.4474 205.592 69.8558 205.592 69.8558C199.86 70.1709 197.646 67.7175 197.646 67.7175ZM198.319 69.2481L198.85 69.4506L199.138 71.7014L199.715 69.9651L200.194 70.0616L200.149 70.3702V73.6338L200.246 74.0422L199.572 73.8396L199.669 73.5309V71.7946L199.044 73.5309L198.608 71.3863V73.3252L198.224 72.9168L198.27 72.7142L198.319 69.7465V69.2481ZM200.871 70.7786C200.053 72.4088 200.871 74.248 200.871 74.248C201.352 75.1611 201.977 74.248 201.977 74.248C202.7 72.1033 201.929 70.7786 201.929 70.7786C201.207 69.9651 200.871 70.7786 200.871 70.7786ZM201.401 70.8783C200.583 71.7014 201.159 73.5341 201.159 73.5341C201.352 74.4569 201.639 73.7399 201.639 73.7399C202.028 72.9264 201.736 71.5953 201.736 71.5953C201.639 70.6725 201.401 70.8783 201.401 70.8783ZM202.651 70.6725H203.038L203.665 72.5117L203.615 71.0776L203.566 70.7786L204.192 70.875L204.096 71.1837V74.6531L204.145 74.9521H203.806L203.134 72.8075V74.2447L203.179 74.6531L202.698 74.547L202.744 74.0422L202.792 71.0776L202.651 70.6725ZM205.688 70.8783H206.362C207.084 70.8783 207.23 72.9232 207.23 72.9232C207.23 75.1611 206.213 75.0646 206.213 75.0646L205.687 74.9618L205.879 74.6595L205.831 71.1901L205.688 70.8783ZM206.265 71.3927V74.6563C206.891 74.1451 206.746 72.6145 206.746 72.6145C206.603 71.3927 206.265 71.3927 206.265 71.3927ZM207.564 70.8783L207.852 70.7818C208.239 70.3734 208.72 70.6789 208.72 70.6789C209.2 71.8043 208.67 72.8203 208.67 72.8203L209.106 74.2544C209.186 74.2994 209.254 74.4055 209.298 74.5566C209.06 74.7592 208.914 74.5566 208.914 74.5566C208.479 73.9489 208.383 73.129 208.383 73.129H208.145V74.6595L208.191 74.9618H207.709L207.755 74.6595L207.709 71.0872L207.564 70.8783ZM208.145 72.7174V71.0776C208.338 70.6693 208.479 71.1837 208.479 71.1837C208.722 71.994 208.479 72.5084 208.479 72.5084C208.383 72.8139 208.145 72.7174 208.145 72.7174ZM210.262 70.1709C211.177 70.0648 211.177 72.6145 211.177 72.6145C211.082 74.6563 210.214 74.6563 210.214 74.6563C209.394 74.4538 209.348 72.3123 209.348 72.3123C209.491 69.9651 210.262 70.1709 210.262 70.1709ZM210.262 70.7786C210.743 70.875 210.698 72.4087 210.698 72.4087C210.743 73.8428 210.262 74.145 210.262 74.145C210.021 74.2479 209.924 73.5341 209.924 73.5341C209.637 71.5953 210.021 70.9876 210.021 70.9876C210.071 70.7786 210.262 70.7786 210.262 70.7786ZM211.466 70.0616L212.138 69.9651L212.042 70.3734L212.091 73.9393L212.188 74.145L211.611 74.248L211.657 74.0422L211.611 70.3702L211.466 70.0616ZM212.622 69.7529L212.667 70.7786L212.813 70.4699L213.056 70.3734V73.6403L213.006 73.9393L213.487 73.7335L213.441 73.4248V70.0616H213.775L213.731 69.2481L213.634 69.3445L212.766 69.7529H212.622ZM192.925 65.1678C192.937 65.4282 192.957 65.6726 192.983 65.9041C193.004 65.8751 193.025 65.8494 193.048 65.8269C193.201 64.9234 193.116 64.5568 193.116 64.5568L193.259 64.3446C193.324 64.6919 193.259 65.3189 193.209 65.6854C193.339 65.5986 193.477 65.5697 193.612 65.5986C193.676 65.1227 193.704 64.6308 193.693 64.1388L193.001 63.9588C192.845 64.499 192.925 65.1678 192.925 65.1678ZM193.043 66.3671C193.163 67.1516 193.351 67.7497 193.559 68.2127C193.782 67.8558 193.732 66.4796 193.705 65.9652C193.468 65.9105 193.232 66.0552 193.043 66.3671ZM193.669 68.4442C193.895 68.8815 194.128 69.1773 194.321 69.3638C194.42 68.8365 194.458 68.2674 194.429 67.7047C194.156 67.7047 193.869 67.9008 193.749 67.9812C193.72 68.1966 193.685 68.351 193.669 68.4442ZM194.479 69.5021C194.617 69.6146 194.705 69.6564 194.705 69.6564C194.875 69.7079 195.012 69.6982 195.132 69.6564L195.097 68.7272C194.943 68.7079 194.673 68.9941 194.544 69.1516L194.479 69.5021ZM195.286 69.5728C195.531 69.3831 195.71 68.9233 195.751 68.3767C195.605 68.2609 195.447 68.232 195.294 68.2931L195.286 69.5728ZM195.766 67.9683C195.751 66.5825 195.54 65.6243 195.255 64.9362C195.289 65.1935 195.412 66.1645 195.335 66.7755L195.573 66.5857L195.619 66.8944L195.283 66.9844C195.303 67.3156 195.299 67.6533 195.271 67.9844C195.525 67.814 195.689 67.8976 195.766 67.9683ZM195.132 64.6694C194.951 64.3189 194.745 64.036 194.52 63.8302C194.559 63.9524 194.678 64.4089 194.661 65.0842C194.799 64.8623 194.962 64.7176 195.132 64.6694ZM194.241 63.6051C194.018 63.4508 193.785 63.3607 193.552 63.3286C193.383 63.3543 193.222 63.4958 193.095 63.7305L193.802 63.8334L194.241 63.6051ZM193.825 64.1903C193.861 64.5826 193.898 64.9395 193.833 65.29C194.195 64.9974 194.429 65.1452 194.518 65.2224C194.526 64.7819 194.478 64.3446 194.376 63.9588L193.825 64.1903ZM194.701 65.5825C194.766 66.0423 194.755 66.5343 194.673 66.9844C194.939 66.724 195.104 66.7465 195.194 66.8044C195.23 66.2738 195.195 65.7305 195.094 65.2385C194.946 65.2449 194.807 65.3671 194.701 65.5825ZM194.608 67.4089C194.66 67.8719 194.655 68.3542 194.593 68.8108C194.843 68.2384 195.069 68.2224 195.126 68.2224C195.195 68.0166 195.203 67.3574 195.195 67.187C194.995 67.1902 194.798 67.2642 194.608 67.4089ZM194.535 65.7626C194.294 65.6115 194.036 65.6468 193.805 65.8655C193.848 66.5568 193.833 67.1291 193.793 67.56C194.007 67.3221 194.248 67.2256 194.487 67.2835C194.57 66.7947 194.587 66.2674 194.535 65.7626ZM182.617 34.8565L181.799 29.3454L182.23 26.8985L182.715 30.8759L182.279 30.4676C182.617 33.6283 183.821 31.9981 183.821 31.9981C184.352 30.7762 183.866 30.3679 183.866 30.3679C183.244 29.6508 183.144 30.4676 183.144 30.4676C182.712 26.9982 183.821 28.3261 183.821 28.3261C183.771 26.0786 184.205 25.876 184.205 25.876C184.782 26.2844 184.782 28.2265 184.782 28.2265C185.407 26.0818 185.797 28.3261 185.797 28.3261C185.842 28.6348 185.747 29.2425 185.747 29.2425C184.977 28.6348 184.883 30.3679 184.883 30.3679C184.783 31.49 185.747 31.7955 185.747 31.7955C186.905 31.0817 186.905 28.4258 186.905 28.4258C186.566 28.5287 185.99 29.6476 185.99 29.6476V25.0561C186.276 26.1783 187.002 26.7892 187.002 26.7892C186.856 24.7507 186.323 23.6285 186.323 23.6285L188.349 23.5288C187.673 24.8568 187.724 26.7956 187.724 26.7956C188.301 26.593 188.588 25.368 188.588 25.368L188.636 29.3454C188.202 27.921 187.768 28.5351 187.768 28.5351C187.575 31.5897 188.829 31.6958 188.829 31.6958C189.694 31.6958 189.746 30.1653 189.746 30.1653C189.551 28.3294 188.972 29.3454 188.972 29.3454C188.733 26.2844 189.79 27.6123 189.79 27.6123C189.407 25.5738 190.078 24.8568 190.078 24.8568C190.901 25.876 190.512 27.6123 190.512 27.6123C191.623 26.3905 191.429 29.3454 191.429 29.3454C190.371 28.3261 190.512 30.6733 190.512 30.6733C190.998 33.1202 191.957 31.281 191.957 31.281C192.151 30.6733 192.2 30.0592 192.2 30.0592L191.764 30.265L192.2 27.1043L192.584 28.7377L192.87 27.0046L193.113 27.6123L191.714 35.0591C187.481 33.0206 182.617 34.8565 182.617 34.8565ZM189.793 33.4289C189.554 33.3292 189.312 33.1202 189.362 32.9177C189.362 32.6122 189.554 32.5093 189.841 32.6122C190.08 32.7119 190.322 32.9177 190.277 33.1202C190.277 33.4289 190.08 33.5286 189.793 33.4289ZM184.59 33.5286C184.832 33.4289 185.024 33.2263 185.024 32.9209C185.024 32.7151 184.783 32.6154 184.545 32.7151C184.258 32.7151 184.065 33.0205 184.065 33.2263C184.065 33.4289 184.304 33.6347 184.59 33.5286ZM187.24 31.4901L187.917 32.7151L187.24 33.6347L186.618 32.7151L187.24 31.4901ZM196.296 47.509C196.341 46.0814 196.727 44.4512 196.727 44.4512L196.165 43.1747L195.972 43.9078C196.077 44.1168 196.15 44.4222 196.15 44.7566C196.15 45.2196 196.012 45.628 195.839 45.7984L195.793 46.2325L196.296 47.509ZM196.012 42.8274L194.608 39.657C193.647 36.6957 192.971 38.1265 192.971 38.1265L192.298 38.6378C192.829 39.3516 193.116 40.5766 193.116 40.5766C193.693 40.3741 193.743 40.985 193.743 40.985L195.235 44.8113V44.7598C195.235 44.1457 195.428 43.6377 195.67 43.6377C195.722 43.6377 195.781 43.6634 195.831 43.7116L196.012 42.8274Z" fill="white"/>
<path fill-rule="evenodd" clip-rule="evenodd" d="M194.031 42.4023C193.693 41.5921 193.455 40.9779 193.309 41.2834C193.309 41.2834 193.745 43.0165 194.08 45.1547C194.321 46.6852 194.514 48.4215 194.467 50.0517L195.185 50.1578L195.375 50.206L195.309 49.4215C195.103 49.3347 194.948 48.8685 194.948 48.3218C194.948 47.6048 195.141 47.0903 195.382 47.0903C195.394 47.0903 195.409 47.0903 195.422 47.1L195.51 46.219C195.39 45.92 195.268 45.5952 195.141 45.2608C194.948 44.7463 194.705 44.2351 194.514 43.7271C194.37 43.2223 194.174 42.8139 194.031 42.4023ZM195.569 50.2575L196.343 50.4697C196.343 50.4697 196.101 49.6466 196.247 48.1161L195.734 46.817L195.678 47.3701C195.798 47.6241 195.865 47.9713 195.863 48.3315C195.86 48.788 195.73 49.1996 195.532 49.3797L195.569 50.2575Z" fill="white"/>
<path fill-rule="evenodd" clip-rule="evenodd" d="M190.611 63.327C190.949 64.3463 191.962 64.0441 191.962 64.0441C192.107 63.8415 192.059 62.6197 192.059 62.6197C191.962 61.9026 192.013 61.4943 192.013 61.4943C192.251 61.5875 192.3 62.2016 192.3 62.2016C192.3 62.4074 192.154 63.4332 192.154 63.4332C193.215 61.9959 192.3 59.2435 192.3 59.2435C192.543 56.3851 192.877 55.6777 192.877 55.6777C193.983 53.6359 194.564 54.353 194.564 54.353C195.525 54.353 197.117 55.4783 197.117 55.4783C197.739 55.8867 199.956 56.7002 199.956 56.7002C199.984 56.3947 200.05 56.115 200.149 55.8867C200.776 54.9671 201.207 50.5781 201.207 50.5781C201.207 49.8707 201.352 50.1698 201.352 50.1698C201.448 50.9832 201.401 51.2951 201.401 51.2951C201.498 52.8257 200.917 55.578 200.917 55.578C202.075 57.0056 204.051 56.7066 204.051 56.7066C205.447 56.7066 206.553 55.1761 206.553 55.1761C207.852 53.9542 209.49 54.2533 209.49 54.2533L209.444 53.6456C208.241 52.517 209.06 51.1922 209.06 51.1922L208.576 49.7646C207.277 49.5621 203.233 45.0734 203.233 45.0734C199.763 40.9931 197.935 41.7037 197.935 41.7037C196.44 45.0734 196.681 50.6874 196.681 50.6874L197.545 50.8932C197.501 47.0123 198.607 44.9705 198.607 44.9705C198.946 44.665 198.703 45.4817 198.703 45.4817C197.501 49.2534 197.98 51.9093 197.98 51.9093C197.449 51.398 194.27 51.0958 194.27 51.0958C193.748 50.8 193.189 50.9832 192.732 51.6006C192.153 52.6263 191.914 54.2565 191.914 54.2565L191.288 58.8545C190.661 61.6969 190.611 63.327 190.611 63.327ZM204.051 51.3884C203.858 53.533 203.233 55.8835 203.233 55.8835C203.328 56.5941 203.712 55.4751 203.712 55.4751C204.148 53.8353 204.289 51.5877 204.289 51.5877C204.192 49.8675 204.051 51.3884 204.051 51.3884ZM202.459 49.9608C202.221 53.1215 201.498 55.1665 201.498 55.1665C201.352 55.9799 201.785 55.369 201.785 55.369C202.412 53.533 202.604 50.1665 202.604 50.1665C202.554 49.2437 202.459 49.9608 202.459 49.9608ZM203.233 50.8836C203.183 53.0282 202.316 55.369 202.316 55.369C202.123 56.0892 202.554 55.6777 202.554 55.6777C203.328 54.2436 203.469 50.7742 203.469 50.7742C203.374 49.6521 203.233 50.8836 203.233 50.8836ZM208.529 55.0635C208.869 54.8127 209.233 54.7484 209.59 54.8738L209.693 55.9671C209.476 56.2082 209.341 56.6938 209.347 57.2146C209.347 57.922 209.585 58.5329 209.878 58.5329H209.924V60.1213C209.406 60.4718 208.875 60.729 208.336 60.8866C207.517 61.2949 208.094 62.3142 208.094 62.3142C208.529 63.1277 208.625 63.8447 208.625 63.8447C209.009 64.7675 208.383 65.4749 208.383 65.4749C207.084 65.9894 205.637 68.7417 205.637 68.7417C204.626 68.9443 203.136 68.6453 203.136 68.6453C202.747 68.0279 202.459 66.6003 202.459 66.6003C202.99 65.5842 203.469 66.8061 203.469 66.8061C203.905 67.3173 204.725 67.1147 204.725 67.1147C205.447 66.3013 206.508 65.2756 206.508 65.2756C206.7 64.9733 206.987 65.0698 206.987 65.0698C207.276 64.8672 206.939 64.3527 206.939 64.3527C206.453 63.6325 206.016 62.774 205.64 61.8062C205.256 60.4782 205.64 59.8673 205.64 59.8673C206.216 58.4301 208.529 55.0635 208.529 55.0635ZM209.887 55.0635C210.2 55.324 210.467 55.787 210.649 56.3883C210.936 57.713 210.842 58.0281 210.842 58.0281C210.745 58.4365 210.842 59.25 210.842 59.25C210.628 59.5265 210.403 59.758 210.168 59.9413V58.3111C210.321 58.0378 210.408 57.6326 210.406 57.2082C210.406 56.5265 210.188 55.9285 209.915 55.8835L209.887 55.0635Z" fill="white"/>
<path fill-rule="evenodd" clip-rule="evenodd" d="M220.423 51.8982C220.666 49.7568 220.474 47.4127 220.474 47.4127C220.135 45.8822 219.797 45.5736 219.797 45.5736C219.797 41.191 218.546 40.5769 218.546 40.5769C218.546 41.3936 218.784 42.5157 218.784 42.5157C218.88 42.9241 218.546 42.4129 218.546 42.4129C218.496 40.9852 217.869 40.2682 217.869 40.2682C217.388 39.6605 217.147 38.9435 217.147 38.9435C216.616 40.7762 218.015 42.7215 218.015 42.7215C215.845 42.5157 212.09 44.146 212.09 44.146C209.441 45.4771 207.947 43.5382 207.947 43.5382C206.41 42.0077 206.987 39.0464 206.987 39.0464C207.709 35.9854 209.298 36.2908 209.298 36.2908C210.082 36.3358 210.861 36.6123 211.612 37.1075C213.922 38.4355 216.379 36.9049 216.379 36.9049C217.581 35.6799 217.968 33.1301 217.968 33.1301C217.246 34.2555 216.233 34.0465 216.233 34.0465C215.611 35.2715 213.584 35.4773 213.584 35.4773C214.934 34.3551 214.887 33.2298 214.887 33.2298C214.983 32.5159 215.509 31.5931 215.509 31.5931C214.69 31.9018 213.729 33.5352 213.729 33.5352C213.153 34.4548 211.658 34.4548 211.658 34.4548C211.42 34.6606 210.984 34.3551 210.984 34.3551C211.945 33.741 211.996 32.9243 211.996 32.9243C209.732 31.5996 207.756 34.5609 207.756 34.5609C205.829 37.9274 206.41 41.2939 206.41 41.2939C206.744 44.5607 209.488 45.5768 209.488 45.5768C212.04 45.8854 215.078 44.9691 215.078 44.9691C217.388 44.3581 218.015 45.072 218.015 45.072C218.302 45.4803 218.015 45.5768 218.015 45.5768C216.616 45.1684 216.185 48.6378 216.185 48.6378C217.145 46.3935 218.448 47.0076 218.448 47.0076C218.686 47.1041 218.448 47.2134 218.448 47.2134C217.771 47.0076 217.291 47.9304 217.291 47.9304C218.206 49.1523 218.879 48.6378 218.879 48.6378C219.267 48.4352 219.46 47.6217 219.46 47.6217C220.036 49.4513 219.991 50.8854 219.747 51.9046C219.408 53.1265 218.783 53.6377 218.783 53.6377C217.387 54.3547 215.411 52.8242 215.411 52.8242C214.834 52.2165 213.822 52.3129 213.822 52.3129C213.676 52.2165 213.438 52.0107 213.245 51.9046C211.8 50.9818 209.102 50.1683 209.102 50.1683L209.345 50.8853C209.727 51.0911 209.922 51.4963 209.97 51.9046C210.016 52.313 209.922 52.7181 209.922 52.7181C209.825 53.2293 209.679 53.5316 209.679 53.5316L209.876 54.3515C211.416 55.3676 211.125 58.2292 211.125 58.2292C211.271 60.779 211.993 61.7951 211.993 61.7951C213.631 64.8561 215.317 64.3449 215.317 64.3449C215.896 64.3449 215.994 64.6535 215.994 64.6535C216.57 65.3706 216.473 68.6342 216.473 68.6342C216.473 69.9621 216.186 71.3865 216.186 71.3865C216.379 72.4058 217.34 71.901 217.34 71.901C217.485 71.7949 217.537 71.3865 217.537 71.3865C217.633 70.7788 217.391 70.1647 217.391 70.1647C217.294 69.856 217.391 69.9621 217.391 69.9621C218.017 70.5698 217.968 72.1035 217.968 72.1035C218.932 69.5473 217.584 67.8143 217.584 67.8143C217.391 67.7178 217.246 67.6085 217.246 67.6085C217.103 66.2902 217.053 63.6343 217.053 63.6343V62.9173L216.572 61.7919C215.221 62.5089 214.26 61.4928 214.26 61.4928C214.306 60.8819 214.306 60.1649 214.306 60.1649C214.403 58.3257 214.113 53.8339 214.113 53.8339C214.497 54.2422 216.716 55.0557 216.716 55.0557C217.243 55.5701 218.303 55.4737 218.303 55.4737C219.558 56.0814 219.171 57.9173 219.171 57.9173C220.184 56.1811 219.314 54.9592 219.314 54.9592C219.995 54.448 220.282 53.2261 220.423 51.8982ZM153.144 52.9174C152.711 50.7728 153.383 48.0204 153.383 48.0204C154.635 43.8373 156.37 42.818 156.37 42.818C157.285 39.8599 158.683 39.8598 158.683 39.8598C158.49 40.6765 158.152 41.3904 158.152 41.3904C159.017 40.982 159.789 39.4515 159.789 39.4515C159.789 41.7987 158.777 42.7183 158.777 42.7183C162.486 43.7376 167.541 42.5125 167.541 42.5125C169.614 41.7987 169.516 37.7152 169.516 37.7152C169.083 34.0433 166.916 36.1847 166.916 36.1847C162.339 41.7987 160.125 34.3519 160.125 34.3519C161.234 35.2683 163.401 35.2683 163.401 35.2683C162.582 34.5545 161.522 32.0047 161.522 32.0047C162.198 32.2073 162.535 32.8214 162.535 32.8214C163.689 34.1461 164.992 33.8439 164.992 33.8439C164.605 32.9243 163.979 31.3938 163.979 31.3938C164.75 32.1076 165.52 32.1076 165.52 32.1076C166.002 32.2073 166.386 32.3134 166.386 32.3134C167.206 32.6156 167.638 32.3134 167.638 32.3134C170.095 32.8214 170.384 37.6155 170.384 37.6155C170.625 43.7376 167.301 44.2488 167.301 44.2488C165.951 45.0687 158.487 44.8598 158.487 44.8598C159.26 45.5736 159.452 47.1041 159.452 47.1041C159.596 47.8211 159.789 48.3355 159.789 48.3355C159.017 48.4288 158.247 46.2906 158.247 46.2906C158.49 47.3066 159.115 48.8372 159.115 48.8372C158.683 49.2455 157.768 46.8983 157.768 46.8983C156.323 44.3517 155.071 47.0044 155.071 47.0044C153.72 49.2423 153.963 51.1812 153.963 51.1812C153.952 51.8339 154.075 52.4673 154.299 52.9174C154.781 54.1457 155.648 53.9432 155.648 53.9432C156.563 53.9432 157.478 53.4287 158.247 52.9174C158.763 52.6184 159.264 52.2101 159.742 51.6956C159.888 51.6956 160.032 51.731 160.175 51.7985C160.607 51.1811 161.235 51.2873 161.235 51.2873C163.353 50.8789 169.421 46.178 169.421 46.178C170.242 45.3646 171.734 42.0978 171.734 42.0978C172.264 42.8116 172.601 45.4675 172.601 45.4675C172.756 45.2424 172.872 44.9209 172.936 44.5479C173.226 46.7922 174.671 48.0172 174.671 48.0172C175.103 48.1137 175.443 49.0333 175.443 49.0333L175.586 48.1137C175.779 48.7311 177.223 50.8725 178.718 52.9078C179.732 54.3805 180.759 55.8113 181.8 57.2003C183.1 54.1393 184.015 55.9689 184.015 55.9689C183.822 56.3772 183.579 56.2775 183.579 56.2775C182.907 56.1746 182.473 56.9881 182.473 56.9881C184.066 56.4833 184.353 57.6055 184.353 57.6055C184.687 59.2357 183.579 60.0491 183.579 60.0491C183.579 57.808 182.567 57.9045 182.567 57.9045C182.987 58.3578 183.262 59.2517 183.289 60.2485C182.951 62.1874 182.133 60.6665 182.133 60.6665C181.844 60.3578 181.41 59.5379 181.41 59.5379C179.054 59.2292 176.789 55.7599 176.789 55.7599L175.584 56.8884C174.929 55.837 174.401 54.4737 174.043 52.9046C173.9 52.3998 173.803 51.9914 173.803 51.9914V52.9046C173.948 54.3387 174.379 55.5605 174.379 55.5605C172.309 60.5604 168.6 56.075 168.6 56.075C168.168 55.7663 166.817 54.2358 166.817 54.2358C162.966 54.1393 161.182 61.4832 161.182 61.4832L160.892 62.4992C160.606 67.0972 159.93 67.0972 159.93 67.0972C160.267 65.3609 159.451 64.5474 159.451 64.5474C158.871 64.7532 157.523 64.6439 157.523 64.6439C156.657 67.9075 157.378 70.2579 157.378 70.2579C159.062 70.1615 158.34 73.0103 158.34 73.0103C158.196 73.9299 157.81 73.9299 157.81 73.9299C157.857 70.975 156.558 71.1775 156.558 71.1775C157.665 72.1003 157.425 73.5215 157.425 73.5215C157.138 73.4186 156.848 74.4443 156.848 74.4443C155.211 72.2997 155.452 68.2226 155.452 68.2226C155.646 61.1777 156.369 59.8466 156.369 59.8466C156.61 59.644 156.704 59.9527 156.704 59.9527C157.426 60.6697 158.39 60.0491 158.39 60.0491C158.775 59.8434 158.871 58.2164 158.871 58.2164C159.114 55.3579 160.026 53.1072 160.026 53.1072C159.401 53.7277 155.886 55.6666 155.886 55.6666C154.248 56.4769 153.814 59.435 153.814 59.435C152.757 56.6826 154.441 55.1521 154.441 55.1521C153.72 54.7567 153.288 53.9431 153.144 52.9174ZM171.974 50.5735C172.41 52.4127 173.709 54.7599 173.709 54.7599C173.853 55.0621 174.094 55.3675 174.094 55.3675C173.997 55.5733 173.757 55.5733 173.757 55.5733C172.649 54.2486 171.927 51.4898 171.927 51.4898C171.686 50.4738 171.974 50.5735 171.974 50.5735ZM170.384 52.7117C171.057 54.448 171.299 54.8563 171.299 54.8563C171.781 56.0878 172.408 56.6955 172.408 56.6955C171.156 56.6955 170.384 53.7374 170.384 53.7374C170.191 52.9175 170.241 52.612 170.241 52.612L170.384 52.7117ZM171.203 51.387C171.54 53.4287 172.985 55.4737 172.985 55.4737C173.32 55.6762 173.226 56.181 173.226 56.181C172.936 56.2872 172.841 55.9785 172.841 55.9785C171.541 55.0557 171.107 52.0043 171.107 52.0043C170.866 50.8821 171.203 51.387 171.203 51.387Z" fill="white"/>
</svg>
