<svg width="282" height="60" viewBox="0 0 282 60" fill="none" xmlns="http://www.w3.org/2000/svg">
<g filter="url(#filter0_d_2_252)">
<mask id="path-1-inside-1_2_252" fill="white">
<path fill-rule="evenodd" clip-rule="evenodd" d="M21.7758 9.64141C21.0946 9.64141 20.5263 9.51804 19.8826 9.39711V27.3049C19.8826 27.731 19.8446 27.8519 19.6921 28.0336L13.3263 34.5304C14.274 35.2591 15.4106 35.7462 16.5868 35.7462C20.6018 35.7462 25.1477 32.2225 27.2715 23.4213C27.3845 22.9342 27.6488 22.8133 27.6488 23.6629V24.2709C27.6488 33.9218 23.0633 42.6021 16.2828 42.6021C8.8939 42.6021 4.46143 33.6775 4.46143 24.3916C4.46143 17.4114 6.84539 10.9154 12.2651 8.18401C12.4936 8.05976 12.5316 8.24141 12.3786 8.42569C9.99243 11.3989 8.7034 16.2566 8.7034 21.1134C8.7034 26.2736 9.99243 31.3729 12.8714 34.1069L14.4629 32.1616C14.9953 31.4938 15.1066 30.8885 15.1066 29.9146V7.81791C13.3643 6.78664 11.8124 6.17869 10.3703 6.17869C8.40105 6.17869 6.61906 7.57274 4.87672 10.9754C4.68786 11.3389 4.57273 11.3389 4.57273 10.9754C4.80124 4.11596 8.62738 0.229736 12.4166 0.229736C16.7751 0.229736 20.7907 3.63244 25.1872 3.63244C26.739 3.63244 28.3322 3.08206 29.6577 1.92986C29.8465 1.80894 29.884 2.05061 29.8085 2.29246C28.4456 7.75789 25.1096 9.64141 21.7758 9.64141ZM42.3908 42.0577C42.2378 42.2996 42.2378 42.2395 42.1243 42.1186L39.0929 37.8089C38.7889 37.3819 38.638 37.0193 38.638 36.2297V19.5951C38.638 19.4141 38.638 19.2298 38.4866 19.048L37.4634 17.5897C37.3484 17.4723 37.1974 17.4114 37.0466 17.5323L35.1153 18.9871V34.6538C35.1153 34.8957 35.0757 35.1382 35.2282 35.3192L36.1004 36.5323C36.3274 36.835 36.7046 37.2009 37.0466 37.0193L37.3484 36.835C37.7278 36.5923 37.8054 36.9558 37.5769 37.261L34.0921 42.0577C33.9391 42.2996 33.9012 42.2395 33.7882 42.1186L30.7182 37.748C30.341 37.261 30.341 37.1402 30.341 36.3506V9.39711C30.341 9.09454 30.341 9.03101 30.1504 8.78934L29.7711 8.24141C29.3932 7.69699 29.2424 7.81791 28.7495 8.18401L27.9907 8.72844C27.8773 8.78934 27.7638 8.54661 27.9527 8.24141L31.9682 2.83951C32.1213 2.59766 32.1213 2.65856 32.2342 2.77949L34.6599 6.36296C34.9639 6.84736 35.1153 7.15011 35.1153 7.93884V18.0766L40.1535 12.9781C40.3065 12.8563 40.4574 12.8563 40.5709 13.0382L43.0346 16.6827C43.3743 17.1671 43.4498 17.5323 43.4498 18.1375V34.7723C43.4498 35.0775 43.4498 35.1382 43.6403 35.3801L44.588 36.6532C44.9658 37.2009 45.1168 37.0793 45.6095 36.7165L46.3684 36.1697C46.4813 36.1088 46.5969 36.3506 46.4058 36.6532L42.3908 42.0577ZM58.5311 21.9639L51.8239 28.7024V33.8618C51.8239 34.3453 51.8619 34.5304 52.1279 34.7114L54.2876 36.5323C54.6649 36.835 55.3107 37.1402 55.6902 36.7741L57.6985 34.8957C58.0382 34.5905 58.3048 34.7723 58.1143 35.0175L52.6207 42.1186C52.5057 42.2996 52.5452 42.2395 52.3938 42.1186L47.5045 37.9897C47.125 37.688 47.0122 37.5637 47.0122 36.7165V17.5323C47.0122 17.2271 47.0892 17.1062 47.314 16.9853L55.3107 12.8563C55.4242 12.7965 55.5372 12.7356 55.6126 12.9781L58.6066 21.4768C58.682 21.6611 58.682 21.8429 58.5311 21.9639ZM51.9015 16.0748L51.8239 16.1323V27.9153L54.4766 24.3916C54.629 24.2109 54.629 24.0864 54.5536 23.9081L51.9015 16.0748ZM85.9212 34.4695L80.4652 41.9977C80.3127 42.1786 80.1992 42.2996 80.0483 42.1786C76.7878 39.5689 73.9848 38.1106 71.1434 38.1106C68.7931 38.1106 66.4825 39.3846 63.9059 42.1186C63.6774 42.3605 63.5265 42.2996 63.6774 41.8769C65.0424 38.3533 66.8619 34.6538 69.1351 32.9512C69.1726 32.7096 69.2121 31.92 69.2121 30.8252V12.9781C69.2121 12.7356 69.2881 12.6147 69.4391 12.4937L73.758 8.30494C72.8103 8.60751 71.7496 8.85269 70.8394 8.85269C66.8999 8.85269 64.891 5.69516 64.1702 0.716761C64.1322 0.471586 64.2077 0.411561 64.3212 0.471586C66.3316 2.05061 67.9984 2.59766 69.628 2.59766C72.3554 2.59766 76.2575 0.229736 78.6458 0.229736C83.4576 0.229736 86.1117 3.44816 86.1117 13.952V33.8009C86.1117 34.1069 86.0342 34.2879 85.9212 34.4695ZM81.3358 13.952C81.3358 8.36566 80.2372 6.84736 78.5323 6.84736C77.2807 6.84736 75.6893 7.63696 73.9848 8.24141V26.4544C73.9848 26.7604 73.9095 27.0023 73.796 27.1265L69.2881 32.8879C70.4601 32.1016 71.7496 31.7381 73.0372 31.7381C75.8027 31.7381 78.7228 33.3747 81.0715 35.1382C81.2604 35.3192 81.3358 35.1382 81.3358 34.8321V13.952ZM99.6814 42.0577C99.5305 42.2996 99.4925 42.2395 99.379 42.1186L95.9302 37.261L91.8376 42.1186C91.6867 42.2996 91.6487 42.2395 91.4978 42.0577L88.8831 38.2924C88.4658 37.748 88.4283 37.6237 88.4283 36.8949V19.1714C88.4283 18.8662 88.5793 18.8063 88.6546 18.7454L97.4462 12.9172C97.5971 12.7965 97.748 12.7965 97.901 13.0382L100.25 16.8035C100.59 17.3479 100.706 17.654 100.706 18.0167V35.1382L101.388 36.1088C102.221 37.261 102.333 37.2009 102.713 36.8949L103.244 36.4714C103.585 36.1697 103.849 36.4113 103.546 36.835L99.6814 42.0577ZM95.9302 19.4741C95.9302 19.108 95.8906 18.9271 95.7038 18.6245L94.3388 16.4409C94.2633 16.3166 94.2633 16.38 94.1483 16.4409L93.2005 17.1062V34.6538C93.2005 35.2591 93.2782 35.5619 93.5441 35.9271L94.037 36.6532C94.3767 37.1402 94.7936 37.3819 95.2865 37.0193L95.9302 36.5323V19.4741ZM108.51 42.0577C108.357 42.2996 108.32 42.2395 108.206 42.1186L105.139 37.748C104.759 37.261 104.759 37.1402 104.759 36.3506V19.5951C104.759 19.2932 104.759 19.2298 104.571 18.9871L104.191 18.4427C103.812 17.8958 103.661 18.0167 103.168 18.3793L102.409 18.9271C102.296 18.9871 102.183 18.7454 102.371 18.4427L106.389 13.0382C106.542 12.7965 106.542 12.8563 106.653 12.9781L109.079 16.5583C109.383 17.0453 109.533 17.3479 109.533 18.1375V34.6538C109.533 34.8957 109.496 35.1382 109.647 35.3192L110.519 36.5323C110.748 36.835 111.125 37.2009 111.465 37.0193L111.769 36.835C112.148 36.5923 112.224 36.9558 111.997 37.261L108.51 42.0577ZM106.577 11.5234C106.466 11.7041 106.426 11.6441 106.313 11.5234L103.432 7.45531C103.357 7.33089 103.357 7.21014 103.47 7.02831L106.313 3.02116C106.426 2.90024 106.466 2.90024 106.577 3.02116L109.458 7.08921C109.571 7.21014 109.571 7.33089 109.458 7.45531L106.577 11.5234ZM117.036 42.0577C116.884 42.2996 116.847 42.2395 116.733 42.1186L113.662 37.748C113.285 37.261 113.285 37.1402 113.285 36.3506V9.39711C113.285 9.09454 113.285 9.03101 113.096 8.78934L112.716 8.24141C112.337 7.69699 112.186 7.81791 111.693 8.18401L110.936 8.72844C110.821 8.78934 110.708 8.54661 110.899 8.24141L114.914 2.83951C115.065 2.59766 115.065 2.65856 115.18 2.77949L117.604 6.36296C117.908 6.84736 118.059 7.15011 118.059 7.93884V34.6538C118.059 34.8957 118.021 35.1382 118.174 35.3192L119.044 36.5323C119.271 36.835 119.651 37.2009 119.99 37.0193L120.296 36.835C120.674 36.5923 120.749 36.9558 120.522 37.261L117.036 42.0577ZM134.277 46.2467L130.108 51.6486C129.995 51.8295 129.918 51.7721 129.845 51.7086C127.645 49.3407 125.904 48.2494 124.009 48.2494C122.682 48.2494 121.357 48.672 119.651 49.4016C119.499 49.4651 119.462 49.2807 119.537 49.099C121.317 44.7891 123.516 43.4553 125.563 43.4553C128.593 43.4553 131.435 46.4283 132.572 47.6407L132.685 47.5198C132.987 46.4283 133.103 45.3936 133.103 44.4232C133.103 41.329 131.511 38.8402 129.541 37.261L125.485 42.0577C125.297 42.2395 125.259 42.2395 125.146 42.1186L122.418 38.1715C122.038 37.6237 122.038 37.6237 122.038 36.7741V19.7158C122.038 19.4141 122.038 19.3532 121.849 19.108L121.317 18.3793C120.94 17.8349 120.789 17.9558 120.296 18.3193L119.537 18.8662C119.424 18.9271 119.311 18.6854 119.499 18.3793L123.516 12.9781C123.668 12.7356 123.668 12.7965 123.781 12.9172L126.358 16.6827C126.66 17.1671 126.813 17.4723 126.813 18.2619V34.8321C126.813 35.1382 126.851 35.4401 126.963 35.6217L127.874 36.9558C128.138 37.3819 128.63 37.2009 128.934 36.9558L129.541 36.5323V19.6558C129.541 19.3532 129.541 19.3532 129.352 19.108L128.819 18.3793C128.441 17.8349 128.326 17.8958 127.796 18.1375L127.494 18.2619C127.381 18.3193 127.267 18.0766 127.456 17.7749L131.019 12.9781C131.17 12.7356 131.17 12.7965 131.283 12.9172L133.86 16.6827C134.163 17.1671 134.314 17.4723 134.314 18.2619V34.2279C135.906 36.1088 136.589 37.9897 136.589 39.8716C136.589 41.9977 135.944 44.0604 134.277 46.2467ZM160.194 9.64141C159.513 9.64141 158.944 9.51804 158.301 9.39711V27.3049C158.301 27.731 158.261 27.8519 158.11 28.0336L151.746 34.5304C152.692 35.2591 153.829 35.7462 155.005 35.7462C159.02 35.7462 163.566 32.2225 165.687 23.4213C165.803 22.9342 166.069 22.8133 166.069 23.6629V24.2709C166.069 33.9218 161.484 42.6021 154.701 42.6021C147.312 42.6021 142.877 33.6775 142.877 24.3916C142.877 17.4114 145.266 10.9154 150.684 8.18401C150.91 8.05976 150.95 8.24141 150.797 8.42569C148.409 11.3989 147.121 16.2566 147.121 21.1134C147.121 26.2736 148.409 31.3729 151.29 34.1069L152.881 32.2826C153.449 31.6781 153.527 31.0094 153.527 30.0389V7.81791C151.782 6.78664 150.229 6.17869 148.79 6.17869C146.819 6.17869 145.039 7.57274 143.297 10.9754C143.106 11.3389 142.991 11.3389 142.991 10.9754C143.219 4.11596 147.046 0.229736 150.836 0.229736C155.194 0.229736 159.209 3.63244 163.604 3.63244C165.159 3.63244 166.749 3.08206 168.076 1.92986C168.266 1.80894 168.302 2.05061 168.229 2.29246C166.864 7.75789 163.528 9.64141 160.194 9.64141ZM179.367 21.9639L172.661 28.7024V33.8618C172.661 34.3453 172.699 34.5304 172.964 34.7114L175.123 36.5323C175.502 36.835 176.148 37.1402 176.525 36.7741L178.534 34.8957C178.876 34.5905 179.14 34.7723 178.951 35.0175L173.456 42.1186C173.343 42.2996 173.38 42.2395 173.229 42.1186L168.342 37.9897C167.962 37.688 167.849 37.5637 167.849 36.7165V17.5323C167.849 17.2271 167.923 17.1062 168.151 16.9853L176.148 12.8563C176.261 12.7965 176.374 12.7356 176.452 12.9781L179.444 21.4768C179.521 21.6611 179.521 21.8429 179.367 21.9639ZM172.737 16.0748L172.661 16.1323V27.9153L175.314 24.3916C175.465 24.2109 175.465 24.0864 175.389 23.9081L172.737 16.0748ZM184.673 42.0577C184.52 42.2996 184.485 42.2395 184.371 42.1186L181.3 37.748C180.922 37.261 180.922 37.1402 180.922 36.3506V9.39711C180.922 9.09454 180.922 9.03101 180.731 8.78934L180.354 8.24141C179.975 7.69699 179.822 7.81791 179.331 8.18401L178.572 8.72844C178.459 8.78934 178.344 8.54661 178.534 8.24141L182.55 2.83951C182.701 2.59766 182.701 2.65856 182.816 2.77949L185.241 6.36296C185.545 6.84736 185.696 7.15011 185.696 7.93884V34.6538C185.696 34.8957 185.657 35.1382 185.808 35.3192L186.682 36.5323C186.908 36.835 187.288 37.2009 187.627 37.0193L187.931 36.835C188.311 36.5923 188.385 36.9558 188.158 37.261L184.673 42.0577ZM200.474 21.9639L193.768 28.7024V33.8618C193.768 34.3453 193.804 34.5304 194.071 34.7114L196.23 36.5323C196.608 36.835 197.253 37.1402 197.631 36.7741L199.64 34.8957C199.981 34.5905 200.246 34.7723 200.057 35.0175L194.562 42.1186C194.45 42.2996 194.488 42.2395 194.335 42.1186L189.447 37.9897C189.068 37.688 188.953 37.5637 188.953 36.7165V17.5323C188.953 17.2271 189.03 17.1062 189.257 16.9853L197.253 12.8563C197.367 12.7965 197.48 12.7356 197.556 12.9781L200.55 21.4768C200.625 21.6611 200.625 21.8429 200.474 21.9639ZM193.84 16.0748L193.768 16.1323V27.9153L196.421 24.3916C196.57 24.2109 196.57 24.0864 196.494 23.9081L193.84 16.0748ZM214.266 46.2467L210.098 51.6486C209.985 51.8295 209.909 51.7721 209.834 51.7086C207.634 49.3407 205.892 48.2494 203.998 48.2494C202.671 48.2494 201.344 48.672 199.64 49.4016C199.488 49.4651 199.451 49.2807 199.526 49.099C201.307 44.7891 203.506 43.4553 205.552 43.4553C208.584 43.4553 211.423 46.4283 212.561 47.6407L212.675 47.5198C212.977 46.4283 213.092 45.3936 213.092 44.4232C213.092 41.329 211.501 38.8402 209.53 37.261L205.437 42.1186C205.286 42.2996 205.172 42.2395 205.059 42.0577L202.482 38.2924C202.103 37.748 202.028 37.5061 202.028 36.8949V19.1714C202.028 18.8662 202.178 18.8063 202.254 18.7454L210.97 12.9781C211.198 12.7965 211.348 12.7965 211.423 12.9172L213.851 16.8035C214.153 17.2879 214.304 17.654 214.304 18.0766V34.2279C215.895 36.1088 216.578 37.9897 216.578 39.8716C216.578 41.9977 215.933 44.0604 214.266 46.2467ZM209.53 19.3532C209.53 19.108 209.492 18.9271 209.341 18.6854L207.938 16.4409C207.863 16.3166 207.825 16.38 207.71 16.4409L206.8 17.1062V34.5304C206.8 35.501 206.955 35.6217 207.559 36.5323C207.9 37.0193 208.087 37.2009 208.431 37.2009C208.735 37.2009 209.226 36.835 209.53 36.5323V19.3532ZM226.618 20.6872C226.429 20.9324 226.24 21.0533 226.052 21.0533C225.861 21.0533 225.67 20.9324 225.483 20.6872L223.171 17.5323L222.944 17.8349V34.7114C222.944 35.0775 222.944 35.1382 223.095 35.3192L223.701 36.1697C224.345 37.0193 224.496 37.1402 225.18 36.7165L225.634 36.4113C225.937 36.2297 226.012 36.4714 225.823 36.7741L221.919 42.0577C221.77 42.2996 221.731 42.2395 221.617 42.1186L218.623 37.8089C218.283 37.3219 218.168 37.1402 218.168 36.4714V19.1714L217.26 17.654C217.183 17.5323 217.147 17.5323 217.032 17.654L215.895 18.6854C215.555 18.9871 215.44 18.5636 215.669 18.2619L219.571 12.9781C219.722 12.7965 219.799 12.7965 219.875 12.9172L222.527 17.1062L225.142 12.9781C225.293 12.7965 225.406 12.7356 225.557 12.9781L227.566 15.954C227.945 16.4983 228.171 16.8035 228.4 16.8035C228.551 16.8035 228.742 16.6827 228.97 16.4409L229.498 15.8905C229.84 15.5279 229.991 16.0748 229.802 16.38L226.618 20.6872ZM240.601 42.0577C240.45 42.2996 240.41 42.2395 240.297 42.1186L236.848 37.261L232.757 42.1186C232.606 42.2996 232.568 42.2395 232.415 42.0577L229.802 38.2924C229.386 37.748 229.348 37.6237 229.348 36.8949V19.1714C229.348 18.8662 229.498 18.8063 229.574 18.7454L238.368 12.9172C238.517 12.7965 238.668 12.7965 238.819 13.0382L241.169 16.8035C241.511 17.3479 241.624 17.654 241.624 18.0167V35.1382L242.306 36.1088C243.14 37.261 243.255 37.2009 243.633 36.8949L244.163 36.4714C244.503 36.1697 244.769 36.4113 244.465 36.835L240.601 42.0577ZM236.848 19.4741C236.848 19.108 236.812 18.9271 236.623 18.6245L235.258 16.4409C235.183 16.3166 235.183 16.38 235.067 16.4409L234.122 17.1062V34.6538C234.122 35.2591 234.197 35.5619 234.462 35.9271L234.954 36.6532C235.294 37.1402 235.713 37.3819 236.206 37.0193L236.848 36.5323V19.4741ZM258.448 37.6237L255.001 41.8769C254.62 42.3605 254.544 42.2395 254.089 41.816L250.491 38.2924V45.3936L251.512 46.7944C251.627 46.9119 251.627 47.0363 251.512 47.2179L248.52 51.6486C248.444 51.7086 248.369 51.8295 248.216 51.6486L244.882 47.3389C244.769 47.2179 244.809 47.0963 244.882 46.9119L245.717 45.3936V19.2932L244.882 17.654C244.845 17.5897 244.809 17.5897 244.731 17.654L243.593 18.5636C243.33 18.8063 243.14 18.5036 243.366 18.201L247.231 12.9781C247.344 12.7965 247.497 12.7965 247.572 12.9172L250.376 17.3479L255.454 12.9781C255.607 12.8563 255.72 12.9172 255.756 12.9781L258.297 16.7436C258.485 17.0453 258.714 17.5323 258.714 18.0766V36.6532C258.714 37.0793 258.714 37.3219 258.448 37.6237ZM253.938 19.6558C253.938 19.2932 253.862 18.9871 253.712 18.7454L252.65 17.1062C252.575 16.9853 252.5 16.9853 252.384 17.0453L250.491 18.201V37.4428L251.552 37.9897C252.422 38.4133 252.801 38.3533 253.181 37.8089L253.56 37.261C253.902 36.7741 253.938 36.2297 253.938 35.2591V19.6558ZM273.422 42.0577C273.269 42.2996 273.269 42.2395 273.156 42.1186L270.124 37.8089C269.822 37.3819 269.671 37.0193 269.671 36.2297V19.5951C269.671 19.4141 269.671 19.2298 269.518 19.048L268.495 17.5897C268.381 17.4723 268.23 17.4114 268.08 17.5323L266.145 18.9871V34.6538C266.145 34.8957 266.107 35.1382 266.26 35.3192L267.13 36.5323C267.358 36.835 267.736 37.2009 268.08 37.0193L268.381 36.835C268.761 36.5923 268.835 36.9558 268.608 37.261L265.123 42.0577C264.972 42.2996 264.933 42.2395 264.819 42.1186L261.75 37.748C261.372 37.261 261.372 37.1402 261.372 36.3506V9.39711C261.372 9.09454 261.372 9.03101 261.181 8.78934L260.802 8.24141C260.423 7.69699 260.272 7.81791 259.781 8.18401L259.022 8.72844C258.909 8.78934 258.793 8.54661 258.984 8.24141L262.999 2.83951C263.152 2.59766 263.152 2.65856 263.266 2.77949L265.691 6.36296C265.995 6.84736 266.145 7.15011 266.145 7.93884V18.0766L271.185 12.9781C271.338 12.8563 271.487 12.8563 271.602 13.0382L274.065 16.6827C274.405 17.1671 274.481 17.5323 274.481 18.1375V34.7723C274.481 35.0775 274.481 35.1382 274.67 35.3801L275.619 36.6532C275.997 37.2009 276.148 37.0793 276.64 36.7165L277.399 36.1697C277.514 36.1088 277.626 36.3506 277.437 36.6532L273.422 42.0577Z"/>
</mask>
<path fill-rule="evenodd" clip-rule="evenodd" d="M21.7758 9.64141C21.0946 9.64141 20.5263 9.51804 19.8826 9.39711V27.3049C19.8826 27.731 19.8446 27.8519 19.6921 28.0336L13.3263 34.5304C14.274 35.2591 15.4106 35.7462 16.5868 35.7462C20.6018 35.7462 25.1477 32.2225 27.2715 23.4213C27.3845 22.9342 27.6488 22.8133 27.6488 23.6629V24.2709C27.6488 33.9218 23.0633 42.6021 16.2828 42.6021C8.8939 42.6021 4.46143 33.6775 4.46143 24.3916C4.46143 17.4114 6.84539 10.9154 12.2651 8.18401C12.4936 8.05976 12.5316 8.24141 12.3786 8.42569C9.99243 11.3989 8.7034 16.2566 8.7034 21.1134C8.7034 26.2736 9.99243 31.3729 12.8714 34.1069L14.4629 32.1616C14.9953 31.4938 15.1066 30.8885 15.1066 29.9146V7.81791C13.3643 6.78664 11.8124 6.17869 10.3703 6.17869C8.40105 6.17869 6.61906 7.57274 4.87672 10.9754C4.68786 11.3389 4.57273 11.3389 4.57273 10.9754C4.80124 4.11596 8.62738 0.229736 12.4166 0.229736C16.7751 0.229736 20.7907 3.63244 25.1872 3.63244C26.739 3.63244 28.3322 3.08206 29.6577 1.92986C29.8465 1.80894 29.884 2.05061 29.8085 2.29246C28.4456 7.75789 25.1096 9.64141 21.7758 9.64141ZM42.3908 42.0577C42.2378 42.2996 42.2378 42.2395 42.1243 42.1186L39.0929 37.8089C38.7889 37.3819 38.638 37.0193 38.638 36.2297V19.5951C38.638 19.4141 38.638 19.2298 38.4866 19.048L37.4634 17.5897C37.3484 17.4723 37.1974 17.4114 37.0466 17.5323L35.1153 18.9871V34.6538C35.1153 34.8957 35.0757 35.1382 35.2282 35.3192L36.1004 36.5323C36.3274 36.835 36.7046 37.2009 37.0466 37.0193L37.3484 36.835C37.7278 36.5923 37.8054 36.9558 37.5769 37.261L34.0921 42.0577C33.9391 42.2996 33.9012 42.2395 33.7882 42.1186L30.7182 37.748C30.341 37.261 30.341 37.1402 30.341 36.3506V9.39711C30.341 9.09454 30.341 9.03101 30.1504 8.78934L29.7711 8.24141C29.3932 7.69699 29.2424 7.81791 28.7495 8.18401L27.9907 8.72844C27.8773 8.78934 27.7638 8.54661 27.9527 8.24141L31.9682 2.83951C32.1213 2.59766 32.1213 2.65856 32.2342 2.77949L34.6599 6.36296C34.9639 6.84736 35.1153 7.15011 35.1153 7.93884V18.0766L40.1535 12.9781C40.3065 12.8563 40.4574 12.8563 40.5709 13.0382L43.0346 16.6827C43.3743 17.1671 43.4498 17.5323 43.4498 18.1375V34.7723C43.4498 35.0775 43.4498 35.1382 43.6403 35.3801L44.588 36.6532C44.9658 37.2009 45.1168 37.0793 45.6095 36.7165L46.3684 36.1697C46.4813 36.1088 46.5969 36.3506 46.4058 36.6532L42.3908 42.0577ZM58.5311 21.9639L51.8239 28.7024V33.8618C51.8239 34.3453 51.8619 34.5304 52.1279 34.7114L54.2876 36.5323C54.6649 36.835 55.3107 37.1402 55.6902 36.7741L57.6985 34.8957C58.0382 34.5905 58.3048 34.7723 58.1143 35.0175L52.6207 42.1186C52.5057 42.2996 52.5452 42.2395 52.3938 42.1186L47.5045 37.9897C47.125 37.688 47.0122 37.5637 47.0122 36.7165V17.5323C47.0122 17.2271 47.0892 17.1062 47.314 16.9853L55.3107 12.8563C55.4242 12.7965 55.5372 12.7356 55.6126 12.9781L58.6066 21.4768C58.682 21.6611 58.682 21.8429 58.5311 21.9639ZM51.9015 16.0748L51.8239 16.1323V27.9153L54.4766 24.3916C54.629 24.2109 54.629 24.0864 54.5536 23.9081L51.9015 16.0748ZM85.9212 34.4695L80.4652 41.9977C80.3127 42.1786 80.1992 42.2996 80.0483 42.1786C76.7878 39.5689 73.9848 38.1106 71.1434 38.1106C68.7931 38.1106 66.4825 39.3846 63.9059 42.1186C63.6774 42.3605 63.5265 42.2996 63.6774 41.8769C65.0424 38.3533 66.8619 34.6538 69.1351 32.9512C69.1726 32.7096 69.2121 31.92 69.2121 30.8252V12.9781C69.2121 12.7356 69.2881 12.6147 69.4391 12.4937L73.758 8.30494C72.8103 8.60751 71.7496 8.85269 70.8394 8.85269C66.8999 8.85269 64.891 5.69516 64.1702 0.716761C64.1322 0.471586 64.2077 0.411561 64.3212 0.471586C66.3316 2.05061 67.9984 2.59766 69.628 2.59766C72.3554 2.59766 76.2575 0.229736 78.6458 0.229736C83.4576 0.229736 86.1117 3.44816 86.1117 13.952V33.8009C86.1117 34.1069 86.0342 34.2879 85.9212 34.4695ZM81.3358 13.952C81.3358 8.36566 80.2372 6.84736 78.5323 6.84736C77.2807 6.84736 75.6893 7.63696 73.9848 8.24141V26.4544C73.9848 26.7604 73.9095 27.0023 73.796 27.1265L69.2881 32.8879C70.4601 32.1016 71.7496 31.7381 73.0372 31.7381C75.8027 31.7381 78.7228 33.3747 81.0715 35.1382C81.2604 35.3192 81.3358 35.1382 81.3358 34.8321V13.952ZM99.6814 42.0577C99.5305 42.2996 99.4925 42.2395 99.379 42.1186L95.9302 37.261L91.8376 42.1186C91.6867 42.2996 91.6487 42.2395 91.4978 42.0577L88.8831 38.2924C88.4658 37.748 88.4283 37.6237 88.4283 36.8949V19.1714C88.4283 18.8662 88.5793 18.8063 88.6546 18.7454L97.4462 12.9172C97.5971 12.7965 97.748 12.7965 97.901 13.0382L100.25 16.8035C100.59 17.3479 100.706 17.654 100.706 18.0167V35.1382L101.388 36.1088C102.221 37.261 102.333 37.2009 102.713 36.8949L103.244 36.4714C103.585 36.1697 103.849 36.4113 103.546 36.835L99.6814 42.0577ZM95.9302 19.4741C95.9302 19.108 95.8906 18.9271 95.7038 18.6245L94.3388 16.4409C94.2633 16.3166 94.2633 16.38 94.1483 16.4409L93.2005 17.1062V34.6538C93.2005 35.2591 93.2782 35.5619 93.5441 35.9271L94.037 36.6532C94.3767 37.1402 94.7936 37.3819 95.2865 37.0193L95.9302 36.5323V19.4741ZM108.51 42.0577C108.357 42.2996 108.32 42.2395 108.206 42.1186L105.139 37.748C104.759 37.261 104.759 37.1402 104.759 36.3506V19.5951C104.759 19.2932 104.759 19.2298 104.571 18.9871L104.191 18.4427C103.812 17.8958 103.661 18.0167 103.168 18.3793L102.409 18.9271C102.296 18.9871 102.183 18.7454 102.371 18.4427L106.389 13.0382C106.542 12.7965 106.542 12.8563 106.653 12.9781L109.079 16.5583C109.383 17.0453 109.533 17.3479 109.533 18.1375V34.6538C109.533 34.8957 109.496 35.1382 109.647 35.3192L110.519 36.5323C110.748 36.835 111.125 37.2009 111.465 37.0193L111.769 36.835C112.148 36.5923 112.224 36.9558 111.997 37.261L108.51 42.0577ZM106.577 11.5234C106.466 11.7041 106.426 11.6441 106.313 11.5234L103.432 7.45531C103.357 7.33089 103.357 7.21014 103.47 7.02831L106.313 3.02116C106.426 2.90024 106.466 2.90024 106.577 3.02116L109.458 7.08921C109.571 7.21014 109.571 7.33089 109.458 7.45531L106.577 11.5234ZM117.036 42.0577C116.884 42.2996 116.847 42.2395 116.733 42.1186L113.662 37.748C113.285 37.261 113.285 37.1402 113.285 36.3506V9.39711C113.285 9.09454 113.285 9.03101 113.096 8.78934L112.716 8.24141C112.337 7.69699 112.186 7.81791 111.693 8.18401L110.936 8.72844C110.821 8.78934 110.708 8.54661 110.899 8.24141L114.914 2.83951C115.065 2.59766 115.065 2.65856 115.18 2.77949L117.604 6.36296C117.908 6.84736 118.059 7.15011 118.059 7.93884V34.6538C118.059 34.8957 118.021 35.1382 118.174 35.3192L119.044 36.5323C119.271 36.835 119.651 37.2009 119.99 37.0193L120.296 36.835C120.674 36.5923 120.749 36.9558 120.522 37.261L117.036 42.0577ZM134.277 46.2467L130.108 51.6486C129.995 51.8295 129.918 51.7721 129.845 51.7086C127.645 49.3407 125.904 48.2494 124.009 48.2494C122.682 48.2494 121.357 48.672 119.651 49.4016C119.499 49.4651 119.462 49.2807 119.537 49.099C121.317 44.7891 123.516 43.4553 125.563 43.4553C128.593 43.4553 131.435 46.4283 132.572 47.6407L132.685 47.5198C132.987 46.4283 133.103 45.3936 133.103 44.4232C133.103 41.329 131.511 38.8402 129.541 37.261L125.485 42.0577C125.297 42.2395 125.259 42.2395 125.146 42.1186L122.418 38.1715C122.038 37.6237 122.038 37.6237 122.038 36.7741V19.7158C122.038 19.4141 122.038 19.3532 121.849 19.108L121.317 18.3793C120.94 17.8349 120.789 17.9558 120.296 18.3193L119.537 18.8662C119.424 18.9271 119.311 18.6854 119.499 18.3793L123.516 12.9781C123.668 12.7356 123.668 12.7965 123.781 12.9172L126.358 16.6827C126.66 17.1671 126.813 17.4723 126.813 18.2619V34.8321C126.813 35.1382 126.851 35.4401 126.963 35.6217L127.874 36.9558C128.138 37.3819 128.63 37.2009 128.934 36.9558L129.541 36.5323V19.6558C129.541 19.3532 129.541 19.3532 129.352 19.108L128.819 18.3793C128.441 17.8349 128.326 17.8958 127.796 18.1375L127.494 18.2619C127.381 18.3193 127.267 18.0766 127.456 17.7749L131.019 12.9781C131.17 12.7356 131.17 12.7965 131.283 12.9172L133.86 16.6827C134.163 17.1671 134.314 17.4723 134.314 18.2619V34.2279C135.906 36.1088 136.589 37.9897 136.589 39.8716C136.589 41.9977 135.944 44.0604 134.277 46.2467ZM160.194 9.64141C159.513 9.64141 158.944 9.51804 158.301 9.39711V27.3049C158.301 27.731 158.261 27.8519 158.11 28.0336L151.746 34.5304C152.692 35.2591 153.829 35.7462 155.005 35.7462C159.02 35.7462 163.566 32.2225 165.687 23.4213C165.803 22.9342 166.069 22.8133 166.069 23.6629V24.2709C166.069 33.9218 161.484 42.6021 154.701 42.6021C147.312 42.6021 142.877 33.6775 142.877 24.3916C142.877 17.4114 145.266 10.9154 150.684 8.18401C150.91 8.05976 150.95 8.24141 150.797 8.42569C148.409 11.3989 147.121 16.2566 147.121 21.1134C147.121 26.2736 148.409 31.3729 151.29 34.1069L152.881 32.2826C153.449 31.6781 153.527 31.0094 153.527 30.0389V7.81791C151.782 6.78664 150.229 6.17869 148.79 6.17869C146.819 6.17869 145.039 7.57274 143.297 10.9754C143.106 11.3389 142.991 11.3389 142.991 10.9754C143.219 4.11596 147.046 0.229736 150.836 0.229736C155.194 0.229736 159.209 3.63244 163.604 3.63244C165.159 3.63244 166.749 3.08206 168.076 1.92986C168.266 1.80894 168.302 2.05061 168.229 2.29246C166.864 7.75789 163.528 9.64141 160.194 9.64141ZM179.367 21.9639L172.661 28.7024V33.8618C172.661 34.3453 172.699 34.5304 172.964 34.7114L175.123 36.5323C175.502 36.835 176.148 37.1402 176.525 36.7741L178.534 34.8957C178.876 34.5905 179.14 34.7723 178.951 35.0175L173.456 42.1186C173.343 42.2996 173.38 42.2395 173.229 42.1186L168.342 37.9897C167.962 37.688 167.849 37.5637 167.849 36.7165V17.5323C167.849 17.2271 167.923 17.1062 168.151 16.9853L176.148 12.8563C176.261 12.7965 176.374 12.7356 176.452 12.9781L179.444 21.4768C179.521 21.6611 179.521 21.8429 179.367 21.9639ZM172.737 16.0748L172.661 16.1323V27.9153L175.314 24.3916C175.465 24.2109 175.465 24.0864 175.389 23.9081L172.737 16.0748ZM184.673 42.0577C184.52 42.2996 184.485 42.2395 184.371 42.1186L181.3 37.748C180.922 37.261 180.922 37.1402 180.922 36.3506V9.39711C180.922 9.09454 180.922 9.03101 180.731 8.78934L180.354 8.24141C179.975 7.69699 179.822 7.81791 179.331 8.18401L178.572 8.72844C178.459 8.78934 178.344 8.54661 178.534 8.24141L182.55 2.83951C182.701 2.59766 182.701 2.65856 182.816 2.77949L185.241 6.36296C185.545 6.84736 185.696 7.15011 185.696 7.93884V34.6538C185.696 34.8957 185.657 35.1382 185.808 35.3192L186.682 36.5323C186.908 36.835 187.288 37.2009 187.627 37.0193L187.931 36.835C188.311 36.5923 188.385 36.9558 188.158 37.261L184.673 42.0577ZM200.474 21.9639L193.768 28.7024V33.8618C193.768 34.3453 193.804 34.5304 194.071 34.7114L196.23 36.5323C196.608 36.835 197.253 37.1402 197.631 36.7741L199.64 34.8957C199.981 34.5905 200.246 34.7723 200.057 35.0175L194.562 42.1186C194.45 42.2996 194.488 42.2395 194.335 42.1186L189.447 37.9897C189.068 37.688 188.953 37.5637 188.953 36.7165V17.5323C188.953 17.2271 189.03 17.1062 189.257 16.9853L197.253 12.8563C197.367 12.7965 197.48 12.7356 197.556 12.9781L200.55 21.4768C200.625 21.6611 200.625 21.8429 200.474 21.9639ZM193.84 16.0748L193.768 16.1323V27.9153L196.421 24.3916C196.57 24.2109 196.57 24.0864 196.494 23.9081L193.84 16.0748ZM214.266 46.2467L210.098 51.6486C209.985 51.8295 209.909 51.7721 209.834 51.7086C207.634 49.3407 205.892 48.2494 203.998 48.2494C202.671 48.2494 201.344 48.672 199.64 49.4016C199.488 49.4651 199.451 49.2807 199.526 49.099C201.307 44.7891 203.506 43.4553 205.552 43.4553C208.584 43.4553 211.423 46.4283 212.561 47.6407L212.675 47.5198C212.977 46.4283 213.092 45.3936 213.092 44.4232C213.092 41.329 211.501 38.8402 209.53 37.261L205.437 42.1186C205.286 42.2996 205.172 42.2395 205.059 42.0577L202.482 38.2924C202.103 37.748 202.028 37.5061 202.028 36.8949V19.1714C202.028 18.8662 202.178 18.8063 202.254 18.7454L210.97 12.9781C211.198 12.7965 211.348 12.7965 211.423 12.9172L213.851 16.8035C214.153 17.2879 214.304 17.654 214.304 18.0766V34.2279C215.895 36.1088 216.578 37.9897 216.578 39.8716C216.578 41.9977 215.933 44.0604 214.266 46.2467ZM209.53 19.3532C209.53 19.108 209.492 18.9271 209.341 18.6854L207.938 16.4409C207.863 16.3166 207.825 16.38 207.71 16.4409L206.8 17.1062V34.5304C206.8 35.501 206.955 35.6217 207.559 36.5323C207.9 37.0193 208.087 37.2009 208.431 37.2009C208.735 37.2009 209.226 36.835 209.53 36.5323V19.3532ZM226.618 20.6872C226.429 20.9324 226.24 21.0533 226.052 21.0533C225.861 21.0533 225.67 20.9324 225.483 20.6872L223.171 17.5323L222.944 17.8349V34.7114C222.944 35.0775 222.944 35.1382 223.095 35.3192L223.701 36.1697C224.345 37.0193 224.496 37.1402 225.18 36.7165L225.634 36.4113C225.937 36.2297 226.012 36.4714 225.823 36.7741L221.919 42.0577C221.77 42.2996 221.731 42.2395 221.617 42.1186L218.623 37.8089C218.283 37.3219 218.168 37.1402 218.168 36.4714V19.1714L217.26 17.654C217.183 17.5323 217.147 17.5323 217.032 17.654L215.895 18.6854C215.555 18.9871 215.44 18.5636 215.669 18.2619L219.571 12.9781C219.722 12.7965 219.799 12.7965 219.875 12.9172L222.527 17.1062L225.142 12.9781C225.293 12.7965 225.406 12.7356 225.557 12.9781L227.566 15.954C227.945 16.4983 228.171 16.8035 228.4 16.8035C228.551 16.8035 228.742 16.6827 228.97 16.4409L229.498 15.8905C229.84 15.5279 229.991 16.0748 229.802 16.38L226.618 20.6872ZM240.601 42.0577C240.45 42.2996 240.41 42.2395 240.297 42.1186L236.848 37.261L232.757 42.1186C232.606 42.2996 232.568 42.2395 232.415 42.0577L229.802 38.2924C229.386 37.748 229.348 37.6237 229.348 36.8949V19.1714C229.348 18.8662 229.498 18.8063 229.574 18.7454L238.368 12.9172C238.517 12.7965 238.668 12.7965 238.819 13.0382L241.169 16.8035C241.511 17.3479 241.624 17.654 241.624 18.0167V35.1382L242.306 36.1088C243.14 37.261 243.255 37.2009 243.633 36.8949L244.163 36.4714C244.503 36.1697 244.769 36.4113 244.465 36.835L240.601 42.0577ZM236.848 19.4741C236.848 19.108 236.812 18.9271 236.623 18.6245L235.258 16.4409C235.183 16.3166 235.183 16.38 235.067 16.4409L234.122 17.1062V34.6538C234.122 35.2591 234.197 35.5619 234.462 35.9271L234.954 36.6532C235.294 37.1402 235.713 37.3819 236.206 37.0193L236.848 36.5323V19.4741ZM258.448 37.6237L255.001 41.8769C254.62 42.3605 254.544 42.2395 254.089 41.816L250.491 38.2924V45.3936L251.512 46.7944C251.627 46.9119 251.627 47.0363 251.512 47.2179L248.52 51.6486C248.444 51.7086 248.369 51.8295 248.216 51.6486L244.882 47.3389C244.769 47.2179 244.809 47.0963 244.882 46.9119L245.717 45.3936V19.2932L244.882 17.654C244.845 17.5897 244.809 17.5897 244.731 17.654L243.593 18.5636C243.33 18.8063 243.14 18.5036 243.366 18.201L247.231 12.9781C247.344 12.7965 247.497 12.7965 247.572 12.9172L250.376 17.3479L255.454 12.9781C255.607 12.8563 255.72 12.9172 255.756 12.9781L258.297 16.7436C258.485 17.0453 258.714 17.5323 258.714 18.0766V36.6532C258.714 37.0793 258.714 37.3219 258.448 37.6237ZM253.938 19.6558C253.938 19.2932 253.862 18.9871 253.712 18.7454L252.65 17.1062C252.575 16.9853 252.5 16.9853 252.384 17.0453L250.491 18.201V37.4428L251.552 37.9897C252.422 38.4133 252.801 38.3533 253.181 37.8089L253.56 37.261C253.902 36.7741 253.938 36.2297 253.938 35.2591V19.6558ZM273.422 42.0577C273.269 42.2996 273.269 42.2395 273.156 42.1186L270.124 37.8089C269.822 37.3819 269.671 37.0193 269.671 36.2297V19.5951C269.671 19.4141 269.671 19.2298 269.518 19.048L268.495 17.5897C268.381 17.4723 268.23 17.4114 268.08 17.5323L266.145 18.9871V34.6538C266.145 34.8957 266.107 35.1382 266.26 35.3192L267.13 36.5323C267.358 36.835 267.736 37.2009 268.08 37.0193L268.381 36.835C268.761 36.5923 268.835 36.9558 268.608 37.261L265.123 42.0577C264.972 42.2996 264.933 42.2395 264.819 42.1186L261.75 37.748C261.372 37.261 261.372 37.1402 261.372 36.3506V9.39711C261.372 9.09454 261.372 9.03101 261.181 8.78934L260.802 8.24141C260.423 7.69699 260.272 7.81791 259.781 8.18401L259.022 8.72844C258.909 8.78934 258.793 8.54661 258.984 8.24141L262.999 2.83951C263.152 2.59766 263.152 2.65856 263.266 2.77949L265.691 6.36296C265.995 6.84736 266.145 7.15011 266.145 7.93884V18.0766L271.185 12.9781C271.338 12.8563 271.487 12.8563 271.602 13.0382L274.065 16.6827C274.405 17.1671 274.481 17.5323 274.481 18.1375V34.7723C274.481 35.0775 274.481 35.1382 274.67 35.3801L275.619 36.6532C275.997 37.2009 276.148 37.0793 276.64 36.7165L277.399 36.1697C277.514 36.1088 277.626 36.3506 277.437 36.6532L273.422 42.0577Z" fill="black"/>
<path fill-rule="evenodd" clip-rule="evenodd" d="M21.7758 9.64141C21.0946 9.64141 20.5263 9.51804 19.8826 9.39711V27.3049C19.8826 27.731 19.8446 27.8519 19.6921 28.0336L13.3263 34.5304C14.274 35.2591 15.4106 35.7462 16.5868 35.7462C20.6018 35.7462 25.1477 32.2225 27.2715 23.4213C27.3845 22.9342 27.6488 22.8133 27.6488 23.6629V24.2709C27.6488 33.9218 23.0633 42.6021 16.2828 42.6021C8.8939 42.6021 4.46143 33.6775 4.46143 24.3916C4.46143 17.4114 6.84539 10.9154 12.2651 8.18401C12.4936 8.05976 12.5316 8.24141 12.3786 8.42569C9.99243 11.3989 8.7034 16.2566 8.7034 21.1134C8.7034 26.2736 9.99243 31.3729 12.8714 34.1069L14.4629 32.1616C14.9953 31.4938 15.1066 30.8885 15.1066 29.9146V7.81791C13.3643 6.78664 11.8124 6.17869 10.3703 6.17869C8.40105 6.17869 6.61906 7.57274 4.87672 10.9754C4.68786 11.3389 4.57273 11.3389 4.57273 10.9754C4.80124 4.11596 8.62738 0.229736 12.4166 0.229736C16.7751 0.229736 20.7907 3.63244 25.1872 3.63244C26.739 3.63244 28.3322 3.08206 29.6577 1.92986C29.8465 1.80894 29.884 2.05061 29.8085 2.29246C28.4456 7.75789 25.1096 9.64141 21.7758 9.64141ZM42.3908 42.0577C42.2378 42.2996 42.2378 42.2395 42.1243 42.1186L39.0929 37.8089C38.7889 37.3819 38.638 37.0193 38.638 36.2297V19.5951C38.638 19.4141 38.638 19.2298 38.4866 19.048L37.4634 17.5897C37.3484 17.4723 37.1974 17.4114 37.0466 17.5323L35.1153 18.9871V34.6538C35.1153 34.8957 35.0757 35.1382 35.2282 35.3192L36.1004 36.5323C36.3274 36.835 36.7046 37.2009 37.0466 37.0193L37.3484 36.835C37.7278 36.5923 37.8054 36.9558 37.5769 37.261L34.0921 42.0577C33.9391 42.2996 33.9012 42.2395 33.7882 42.1186L30.7182 37.748C30.341 37.261 30.341 37.1402 30.341 36.3506V9.39711C30.341 9.09454 30.341 9.03101 30.1504 8.78934L29.7711 8.24141C29.3932 7.69699 29.2424 7.81791 28.7495 8.18401L27.9907 8.72844C27.8773 8.78934 27.7638 8.54661 27.9527 8.24141L31.9682 2.83951C32.1213 2.59766 32.1213 2.65856 32.2342 2.77949L34.6599 6.36296C34.9639 6.84736 35.1153 7.15011 35.1153 7.93884V18.0766L40.1535 12.9781C40.3065 12.8563 40.4574 12.8563 40.5709 13.0382L43.0346 16.6827C43.3743 17.1671 43.4498 17.5323 43.4498 18.1375V34.7723C43.4498 35.0775 43.4498 35.1382 43.6403 35.3801L44.588 36.6532C44.9658 37.2009 45.1168 37.0793 45.6095 36.7165L46.3684 36.1697C46.4813 36.1088 46.5969 36.3506 46.4058 36.6532L42.3908 42.0577ZM58.5311 21.9639L51.8239 28.7024V33.8618C51.8239 34.3453 51.8619 34.5304 52.1279 34.7114L54.2876 36.5323C54.6649 36.835 55.3107 37.1402 55.6902 36.7741L57.6985 34.8957C58.0382 34.5905 58.3048 34.7723 58.1143 35.0175L52.6207 42.1186C52.5057 42.2996 52.5452 42.2395 52.3938 42.1186L47.5045 37.9897C47.125 37.688 47.0122 37.5637 47.0122 36.7165V17.5323C47.0122 17.2271 47.0892 17.1062 47.314 16.9853L55.3107 12.8563C55.4242 12.7965 55.5372 12.7356 55.6126 12.9781L58.6066 21.4768C58.682 21.6611 58.682 21.8429 58.5311 21.9639ZM51.9015 16.0748L51.8239 16.1323V27.9153L54.4766 24.3916C54.629 24.2109 54.629 24.0864 54.5536 23.9081L51.9015 16.0748ZM85.9212 34.4695L80.4652 41.9977C80.3127 42.1786 80.1992 42.2996 80.0483 42.1786C76.7878 39.5689 73.9848 38.1106 71.1434 38.1106C68.7931 38.1106 66.4825 39.3846 63.9059 42.1186C63.6774 42.3605 63.5265 42.2996 63.6774 41.8769C65.0424 38.3533 66.8619 34.6538 69.1351 32.9512C69.1726 32.7096 69.2121 31.92 69.2121 30.8252V12.9781C69.2121 12.7356 69.2881 12.6147 69.4391 12.4937L73.758 8.30494C72.8103 8.60751 71.7496 8.85269 70.8394 8.85269C66.8999 8.85269 64.891 5.69516 64.1702 0.716761C64.1322 0.471586 64.2077 0.411561 64.3212 0.471586C66.3316 2.05061 67.9984 2.59766 69.628 2.59766C72.3554 2.59766 76.2575 0.229736 78.6458 0.229736C83.4576 0.229736 86.1117 3.44816 86.1117 13.952V33.8009C86.1117 34.1069 86.0342 34.2879 85.9212 34.4695ZM81.3358 13.952C81.3358 8.36566 80.2372 6.84736 78.5323 6.84736C77.2807 6.84736 75.6893 7.63696 73.9848 8.24141V26.4544C73.9848 26.7604 73.9095 27.0023 73.796 27.1265L69.2881 32.8879C70.4601 32.1016 71.7496 31.7381 73.0372 31.7381C75.8027 31.7381 78.7228 33.3747 81.0715 35.1382C81.2604 35.3192 81.3358 35.1382 81.3358 34.8321V13.952ZM99.6814 42.0577C99.5305 42.2996 99.4925 42.2395 99.379 42.1186L95.9302 37.261L91.8376 42.1186C91.6867 42.2996 91.6487 42.2395 91.4978 42.0577L88.8831 38.2924C88.4658 37.748 88.4283 37.6237 88.4283 36.8949V19.1714C88.4283 18.8662 88.5793 18.8063 88.6546 18.7454L97.4462 12.9172C97.5971 12.7965 97.748 12.7965 97.901 13.0382L100.25 16.8035C100.59 17.3479 100.706 17.654 100.706 18.0167V35.1382L101.388 36.1088C102.221 37.261 102.333 37.2009 102.713 36.8949L103.244 36.4714C103.585 36.1697 103.849 36.4113 103.546 36.835L99.6814 42.0577ZM95.9302 19.4741C95.9302 19.108 95.8906 18.9271 95.7038 18.6245L94.3388 16.4409C94.2633 16.3166 94.2633 16.38 94.1483 16.4409L93.2005 17.1062V34.6538C93.2005 35.2591 93.2782 35.5619 93.5441 35.9271L94.037 36.6532C94.3767 37.1402 94.7936 37.3819 95.2865 37.0193L95.9302 36.5323V19.4741ZM108.51 42.0577C108.357 42.2996 108.32 42.2395 108.206 42.1186L105.139 37.748C104.759 37.261 104.759 37.1402 104.759 36.3506V19.5951C104.759 19.2932 104.759 19.2298 104.571 18.9871L104.191 18.4427C103.812 17.8958 103.661 18.0167 103.168 18.3793L102.409 18.9271C102.296 18.9871 102.183 18.7454 102.371 18.4427L106.389 13.0382C106.542 12.7965 106.542 12.8563 106.653 12.9781L109.079 16.5583C109.383 17.0453 109.533 17.3479 109.533 18.1375V34.6538C109.533 34.8957 109.496 35.1382 109.647 35.3192L110.519 36.5323C110.748 36.835 111.125 37.2009 111.465 37.0193L111.769 36.835C112.148 36.5923 112.224 36.9558 111.997 37.261L108.51 42.0577ZM106.577 11.5234C106.466 11.7041 106.426 11.6441 106.313 11.5234L103.432 7.45531C103.357 7.33089 103.357 7.21014 103.47 7.02831L106.313 3.02116C106.426 2.90024 106.466 2.90024 106.577 3.02116L109.458 7.08921C109.571 7.21014 109.571 7.33089 109.458 7.45531L106.577 11.5234ZM117.036 42.0577C116.884 42.2996 116.847 42.2395 116.733 42.1186L113.662 37.748C113.285 37.261 113.285 37.1402 113.285 36.3506V9.39711C113.285 9.09454 113.285 9.03101 113.096 8.78934L112.716 8.24141C112.337 7.69699 112.186 7.81791 111.693 8.18401L110.936 8.72844C110.821 8.78934 110.708 8.54661 110.899 8.24141L114.914 2.83951C115.065 2.59766 115.065 2.65856 115.18 2.77949L117.604 6.36296C117.908 6.84736 118.059 7.15011 118.059 7.93884V34.6538C118.059 34.8957 118.021 35.1382 118.174 35.3192L119.044 36.5323C119.271 36.835 119.651 37.2009 119.99 37.0193L120.296 36.835C120.674 36.5923 120.749 36.9558 120.522 37.261L117.036 42.0577ZM134.277 46.2467L130.108 51.6486C129.995 51.8295 129.918 51.7721 129.845 51.7086C127.645 49.3407 125.904 48.2494 124.009 48.2494C122.682 48.2494 121.357 48.672 119.651 49.4016C119.499 49.4651 119.462 49.2807 119.537 49.099C121.317 44.7891 123.516 43.4553 125.563 43.4553C128.593 43.4553 131.435 46.4283 132.572 47.6407L132.685 47.5198C132.987 46.4283 133.103 45.3936 133.103 44.4232C133.103 41.329 131.511 38.8402 129.541 37.261L125.485 42.0577C125.297 42.2395 125.259 42.2395 125.146 42.1186L122.418 38.1715C122.038 37.6237 122.038 37.6237 122.038 36.7741V19.7158C122.038 19.4141 122.038 19.3532 121.849 19.108L121.317 18.3793C120.94 17.8349 120.789 17.9558 120.296 18.3193L119.537 18.8662C119.424 18.9271 119.311 18.6854 119.499 18.3793L123.516 12.9781C123.668 12.7356 123.668 12.7965 123.781 12.9172L126.358 16.6827C126.66 17.1671 126.813 17.4723 126.813 18.2619V34.8321C126.813 35.1382 126.851 35.4401 126.963 35.6217L127.874 36.9558C128.138 37.3819 128.63 37.2009 128.934 36.9558L129.541 36.5323V19.6558C129.541 19.3532 129.541 19.3532 129.352 19.108L128.819 18.3793C128.441 17.8349 128.326 17.8958 127.796 18.1375L127.494 18.2619C127.381 18.3193 127.267 18.0766 127.456 17.7749L131.019 12.9781C131.17 12.7356 131.17 12.7965 131.283 12.9172L133.86 16.6827C134.163 17.1671 134.314 17.4723 134.314 18.2619V34.2279C135.906 36.1088 136.589 37.9897 136.589 39.8716C136.589 41.9977 135.944 44.0604 134.277 46.2467ZM160.194 9.64141C159.513 9.64141 158.944 9.51804 158.301 9.39711V27.3049C158.301 27.731 158.261 27.8519 158.11 28.0336L151.746 34.5304C152.692 35.2591 153.829 35.7462 155.005 35.7462C159.02 35.7462 163.566 32.2225 165.687 23.4213C165.803 22.9342 166.069 22.8133 166.069 23.6629V24.2709C166.069 33.9218 161.484 42.6021 154.701 42.6021C147.312 42.6021 142.877 33.6775 142.877 24.3916C142.877 17.4114 145.266 10.9154 150.684 8.18401C150.91 8.05976 150.95 8.24141 150.797 8.42569C148.409 11.3989 147.121 16.2566 147.121 21.1134C147.121 26.2736 148.409 31.3729 151.29 34.1069L152.881 32.2826C153.449 31.6781 153.527 31.0094 153.527 30.0389V7.81791C151.782 6.78664 150.229 6.17869 148.79 6.17869C146.819 6.17869 145.039 7.57274 143.297 10.9754C143.106 11.3389 142.991 11.3389 142.991 10.9754C143.219 4.11596 147.046 0.229736 150.836 0.229736C155.194 0.229736 159.209 3.63244 163.604 3.63244C165.159 3.63244 166.749 3.08206 168.076 1.92986C168.266 1.80894 168.302 2.05061 168.229 2.29246C166.864 7.75789 163.528 9.64141 160.194 9.64141ZM179.367 21.9639L172.661 28.7024V33.8618C172.661 34.3453 172.699 34.5304 172.964 34.7114L175.123 36.5323C175.502 36.835 176.148 37.1402 176.525 36.7741L178.534 34.8957C178.876 34.5905 179.14 34.7723 178.951 35.0175L173.456 42.1186C173.343 42.2996 173.38 42.2395 173.229 42.1186L168.342 37.9897C167.962 37.688 167.849 37.5637 167.849 36.7165V17.5323C167.849 17.2271 167.923 17.1062 168.151 16.9853L176.148 12.8563C176.261 12.7965 176.374 12.7356 176.452 12.9781L179.444 21.4768C179.521 21.6611 179.521 21.8429 179.367 21.9639ZM172.737 16.0748L172.661 16.1323V27.9153L175.314 24.3916C175.465 24.2109 175.465 24.0864 175.389 23.9081L172.737 16.0748ZM184.673 42.0577C184.52 42.2996 184.485 42.2395 184.371 42.1186L181.3 37.748C180.922 37.261 180.922 37.1402 180.922 36.3506V9.39711C180.922 9.09454 180.922 9.03101 180.731 8.78934L180.354 8.24141C179.975 7.69699 179.822 7.81791 179.331 8.18401L178.572 8.72844C178.459 8.78934 178.344 8.54661 178.534 8.24141L182.55 2.83951C182.701 2.59766 182.701 2.65856 182.816 2.77949L185.241 6.36296C185.545 6.84736 185.696 7.15011 185.696 7.93884V34.6538C185.696 34.8957 185.657 35.1382 185.808 35.3192L186.682 36.5323C186.908 36.835 187.288 37.2009 187.627 37.0193L187.931 36.835C188.311 36.5923 188.385 36.9558 188.158 37.261L184.673 42.0577ZM200.474 21.9639L193.768 28.7024V33.8618C193.768 34.3453 193.804 34.5304 194.071 34.7114L196.23 36.5323C196.608 36.835 197.253 37.1402 197.631 36.7741L199.64 34.8957C199.981 34.5905 200.246 34.7723 200.057 35.0175L194.562 42.1186C194.45 42.2996 194.488 42.2395 194.335 42.1186L189.447 37.9897C189.068 37.688 188.953 37.5637 188.953 36.7165V17.5323C188.953 17.2271 189.03 17.1062 189.257 16.9853L197.253 12.8563C197.367 12.7965 197.48 12.7356 197.556 12.9781L200.55 21.4768C200.625 21.6611 200.625 21.8429 200.474 21.9639ZM193.84 16.0748L193.768 16.1323V27.9153L196.421 24.3916C196.57 24.2109 196.57 24.0864 196.494 23.9081L193.84 16.0748ZM214.266 46.2467L210.098 51.6486C209.985 51.8295 209.909 51.7721 209.834 51.7086C207.634 49.3407 205.892 48.2494 203.998 48.2494C202.671 48.2494 201.344 48.672 199.64 49.4016C199.488 49.4651 199.451 49.2807 199.526 49.099C201.307 44.7891 203.506 43.4553 205.552 43.4553C208.584 43.4553 211.423 46.4283 212.561 47.6407L212.675 47.5198C212.977 46.4283 213.092 45.3936 213.092 44.4232C213.092 41.329 211.501 38.8402 209.53 37.261L205.437 42.1186C205.286 42.2996 205.172 42.2395 205.059 42.0577L202.482 38.2924C202.103 37.748 202.028 37.5061 202.028 36.8949V19.1714C202.028 18.8662 202.178 18.8063 202.254 18.7454L210.97 12.9781C211.198 12.7965 211.348 12.7965 211.423 12.9172L213.851 16.8035C214.153 17.2879 214.304 17.654 214.304 18.0766V34.2279C215.895 36.1088 216.578 37.9897 216.578 39.8716C216.578 41.9977 215.933 44.0604 214.266 46.2467ZM209.53 19.3532C209.53 19.108 209.492 18.9271 209.341 18.6854L207.938 16.4409C207.863 16.3166 207.825 16.38 207.71 16.4409L206.8 17.1062V34.5304C206.8 35.501 206.955 35.6217 207.559 36.5323C207.9 37.0193 208.087 37.2009 208.431 37.2009C208.735 37.2009 209.226 36.835 209.53 36.5323V19.3532ZM226.618 20.6872C226.429 20.9324 226.24 21.0533 226.052 21.0533C225.861 21.0533 225.67 20.9324 225.483 20.6872L223.171 17.5323L222.944 17.8349V34.7114C222.944 35.0775 222.944 35.1382 223.095 35.3192L223.701 36.1697C224.345 37.0193 224.496 37.1402 225.18 36.7165L225.634 36.4113C225.937 36.2297 226.012 36.4714 225.823 36.7741L221.919 42.0577C221.77 42.2996 221.731 42.2395 221.617 42.1186L218.623 37.8089C218.283 37.3219 218.168 37.1402 218.168 36.4714V19.1714L217.26 17.654C217.183 17.5323 217.147 17.5323 217.032 17.654L215.895 18.6854C215.555 18.9871 215.44 18.5636 215.669 18.2619L219.571 12.9781C219.722 12.7965 219.799 12.7965 219.875 12.9172L222.527 17.1062L225.142 12.9781C225.293 12.7965 225.406 12.7356 225.557 12.9781L227.566 15.954C227.945 16.4983 228.171 16.8035 228.4 16.8035C228.551 16.8035 228.742 16.6827 228.97 16.4409L229.498 15.8905C229.84 15.5279 229.991 16.0748 229.802 16.38L226.618 20.6872ZM240.601 42.0577C240.45 42.2996 240.41 42.2395 240.297 42.1186L236.848 37.261L232.757 42.1186C232.606 42.2996 232.568 42.2395 232.415 42.0577L229.802 38.2924C229.386 37.748 229.348 37.6237 229.348 36.8949V19.1714C229.348 18.8662 229.498 18.8063 229.574 18.7454L238.368 12.9172C238.517 12.7965 238.668 12.7965 238.819 13.0382L241.169 16.8035C241.511 17.3479 241.624 17.654 241.624 18.0167V35.1382L242.306 36.1088C243.14 37.261 243.255 37.2009 243.633 36.8949L244.163 36.4714C244.503 36.1697 244.769 36.4113 244.465 36.835L240.601 42.0577ZM236.848 19.4741C236.848 19.108 236.812 18.9271 236.623 18.6245L235.258 16.4409C235.183 16.3166 235.183 16.38 235.067 16.4409L234.122 17.1062V34.6538C234.122 35.2591 234.197 35.5619 234.462 35.9271L234.954 36.6532C235.294 37.1402 235.713 37.3819 236.206 37.0193L236.848 36.5323V19.4741ZM258.448 37.6237L255.001 41.8769C254.62 42.3605 254.544 42.2395 254.089 41.816L250.491 38.2924V45.3936L251.512 46.7944C251.627 46.9119 251.627 47.0363 251.512 47.2179L248.52 51.6486C248.444 51.7086 248.369 51.8295 248.216 51.6486L244.882 47.3389C244.769 47.2179 244.809 47.0963 244.882 46.9119L245.717 45.3936V19.2932L244.882 17.654C244.845 17.5897 244.809 17.5897 244.731 17.654L243.593 18.5636C243.33 18.8063 243.14 18.5036 243.366 18.201L247.231 12.9781C247.344 12.7965 247.497 12.7965 247.572 12.9172L250.376 17.3479L255.454 12.9781C255.607 12.8563 255.72 12.9172 255.756 12.9781L258.297 16.7436C258.485 17.0453 258.714 17.5323 258.714 18.0766V36.6532C258.714 37.0793 258.714 37.3219 258.448 37.6237ZM253.938 19.6558C253.938 19.2932 253.862 18.9871 253.712 18.7454L252.65 17.1062C252.575 16.9853 252.5 16.9853 252.384 17.0453L250.491 18.201V37.4428L251.552 37.9897C252.422 38.4133 252.801 38.3533 253.181 37.8089L253.56 37.261C253.902 36.7741 253.938 36.2297 253.938 35.2591V19.6558ZM273.422 42.0577C273.269 42.2996 273.269 42.2395 273.156 42.1186L270.124 37.8089C269.822 37.3819 269.671 37.0193 269.671 36.2297V19.5951C269.671 19.4141 269.671 19.2298 269.518 19.048L268.495 17.5897C268.381 17.4723 268.23 17.4114 268.08 17.5323L266.145 18.9871V34.6538C266.145 34.8957 266.107 35.1382 266.26 35.3192L267.13 36.5323C267.358 36.835 267.736 37.2009 268.08 37.0193L268.381 36.835C268.761 36.5923 268.835 36.9558 268.608 37.261L265.123 42.0577C264.972 42.2996 264.933 42.2395 264.819 42.1186L261.75 37.748C261.372 37.261 261.372 37.1402 261.372 36.3506V9.39711C261.372 9.09454 261.372 9.03101 261.181 8.78934L260.802 8.24141C260.423 7.69699 260.272 7.81791 259.781 8.18401L259.022 8.72844C258.909 8.78934 258.793 8.54661 258.984 8.24141L262.999 2.83951C263.152 2.59766 263.152 2.65856 263.266 2.77949L265.691 6.36296C265.995 6.84736 266.145 7.15011 266.145 7.93884V18.0766L271.185 12.9781C271.338 12.8563 271.487 12.8563 271.602 13.0382L274.065 16.6827C274.405 17.1671 274.481 17.5323 274.481 18.1375V34.7723C274.481 35.0775 274.481 35.1382 274.67 35.3801L275.619 36.6532C275.997 37.2009 276.148 37.0793 276.64 36.7165L277.399 36.1697C277.514 36.1088 277.626 36.3506 277.437 36.6532L273.422 42.0577Z" stroke="black" stroke-width="2" mask="url(#path-1-inside-1_2_252)"/>
</g>
<defs>
<filter id="filter0_d_2_252" x="0.461426" y="0.229736" width="281.077" height="59.5405" filterUnits="userSpaceOnUse" color-interpolation-filters="sRGB">
<feFlood flood-opacity="0" result="BackgroundImageFix"/>
<feColorMatrix in="SourceAlpha" type="matrix" values="0 0 0 0 0 0 0 0 0 0 0 0 0 0 0 0 0 0 127 0" result="hardAlpha"/>
<feOffset dy="4"/>
<feGaussianBlur stdDeviation="2"/>
<feComposite in2="hardAlpha" operator="out"/>
<feColorMatrix type="matrix" values="0 0 0 0 0 0 0 0 0 0 0 0 0 0 0 0 0 0 0.25 0"/>
<feBlend mode="normal" in2="BackgroundImageFix" result="effect1_dropShadow_2_252"/>
<feBlend mode="normal" in="SourceGraphic" in2="effect1_dropShadow_2_252" result="shape"/>
</filter>
</defs>
</svg>
